<mxfile host="app.diagrams.net" modified="2024-01-24T09:18:41.270Z" agent="Mozilla/5.0 (Windows NT 10.0; Win64; x64) AppleWebKit/537.36 (KHTML, like Gecko) Chrome/120.0.0.0 Safari/537.36" etag="ezIdPxnrCXLUgiUpJ1xl" version="22.1.21" type="device">
  <diagram name="Страница — 1" id="v-uV9-Re4WjgrE0wQal3">
    <mxGraphModel dx="478" dy="249" grid="1" gridSize="10" guides="1" tooltips="1" connect="1" arrows="1" fold="1" page="1" pageScale="1" pageWidth="827" pageHeight="1169" math="0" shadow="0">
      <root>
        <mxCell id="0" />
        <mxCell id="1" parent="0" />
        <mxCell id="8yuOUE8DRb-jMOZw8tpv-1" value="" style="shape=image;verticalLabelPosition=bottom;labelBackgroundColor=default;verticalAlign=top;aspect=fixed;imageAspect=0;image=data:image/png,iVBORw0KGgoAAAANSUhEUgAAAgAAAAIACAYAAAD0eNT6AAAAAXNSR0IArs4c6QAAIABJREFUeAHt3U3IdV1ZB/BLjSwhQcFMMGyQUBGRIxUjGhQOHARC1qQGRVIOCpsnDkVzEA4KHTQwpDRSECWhgqCIwGoQSJAFQaJUmIGSSmos8D48nI7nY++11l7rWr8DL8/9sff6+F3XWft/XnjfJ8KLwGWBV0bEmyLirRHxroj4QET8RUT8U0R8KSK+4R8GemCYHijvyfLeLO/R8l4t79ny3i3v4fJe9iJAgMC3FHhuRLw2It4REZ9ysA9zsAtawmaNHijv6fLeLu/x8l73IkCAQLw+It4XEZ/z0PfQ1wNL9EB5r5f3fHnvexEgsKDAayLiLx34Sxz4NT5BGiPnv4koZ0A5C7wIEFhA4Psj4kMe/B78ekAPPNMDfxQR5WzwIkAgocBLIuI9EfHVZ970PtXl/FSnruq6pQfK2VDOiHJWeBEgkETg1RHxWQ9+n/j0gB64owfKWVHODC8CBCYX+PmI+PIdb/otnxjc45OmHsjZA+XMKGeHFwECEwqU/9TnnR78PvHpAT2wowfKGeI/G5zwAWDJ6wq8MCI+tuNN71Ndzk916qquW3qgnCXlTPEiQGBwgRdExCc9/H3q0wN6oGIPlDOlnC1eBAgMKvCciPhgxTf9lk8L7vEpUw/k7IFytpQzxosAgQEFftPD36c+PaAHGvZAOWO8CBAYTOCNEfH1hm98n+pyfqpTV3V9pAfKGVPOGi8CBAYR+JGI+KKHv09+ekAPdOiBctaUM8eLAIGDBZ4fEZ/u8KZ/5FOCa32q1AO5e6CcOeXs8SJA4ECB3/Dw96lPD+iBA3qgnD1eBAgcJPCiiPj8AW98n+5yf7pTX/W9pwfK2VPOIC8CBA4QeJeHv09+ekAPHNgD5QzyIkCgs8Ar/D/+HfwHHvz3fEJ0Tf5/k1D+zoByFnkRINBR4P0OfwFAD+iBAXqgnEVeBAh0Eni5/+bfwT/Awe8Tfv5P+PfUuPy/AcqZ5EWAQAeBtzj8BQA9oAcG6oFyJnkRINBB4BMDvfHv+YTgGp8U9UDuHihnkhcBAo0Fyl/L+RUBYMpPf1+KiC/456pBMRIW5jMoZ5K/Mrjx4W94Aj/rgJzqAfHViHhbRHyf1r1boFgVs2InDMxjUM4mLwIEGgp8wKE41UPhpxv2Qvahi50AMI9BOZu8CBBoJFD+Lu7yr5AdinMYfLhRH6w0bDHU73MYlLOpnFFeBAg0EHipw3Cqh8GvNeiB1YYshgLAPAbljPIiQKCBwKschlM9DH6pQQ+sNmQxFADmMShnlBcBAg0E3uAwnOph8DsNemC1IYuhADCPQTmjvAgQaCDwZofhVA+D/4mIH2zQB6sMWeyKoQAwj0E5o7wIEGgg8HaH4XQPg3+NiJ9s0AvZhyxmxc7Dfy6DckZ5ESDQQOB9DsRpHwifiYiPR8RH/HPVoBgVKw/+OQ3KGeVFgEADgY86GD0Y9IAeGLgHyhnlRYBAA4E/GfiN7xPbnJ/Y1E3davZAOaO8CBBoICAAOKxrHtbG0k+1e0AAaHDwG5JAERAAHNi1D2zj6amaPSAAeFYRaCQgADisax7WxtJPtXtAAGh0+BuWgADgwK59YBtPT9XsAQHAc4pAIwEBwGFd87A2ln6q3QMCQKPD37AEBAAHdu0D23h6qmYPCACeUwQaCQgADuuah7Wx9FPtHhAAGh3+hiUgADiwax/YxtNTNXtAAPCcItBIQABwWNc8rI2ln2r3gADQ6PA3LAEBwIFd+8A2np6q2QMCgOcUgUYCAoDDuuZhbSz9VLsHBIBGh79hCQgADuzaB7bx9FTNHhAAPKcINBIQABzWNQ9rY+mn2j0gADQ6/A1LQABwYNc+sI2np2r2gADgOUWgkYAA4LCueVgbSz/V7gEBoNHhb1gCAoADu/aBbTw9VbMHBADPKQKNBAQAh3XNw9pY+ql2DwgAjQ5/wxIQABzYtQ9s4+mpmj0gAHhOEWgk0DoAfCYi/tE/DPRA2h4o7/GaD/zzsQSARoe/YQm0DgA/h5gAgdQC5T1+/tCu+b0AkLp9bO5IAQHgSH1zE5hfQACYv4Z2sKiAALBo4W2bQCUBAaASpGEI9BYQAHqLm49ALgEBIFc97WYhAQFgoWLbKoEGAgJAA1RDEughIAD0UDYHgbwCAkDe2tpZcgEBIHmBbY9AYwEBoDGw4Qm0EhAAWskal8AaAgLAGnW2y4QCAkDCotoSgY4CAkBHbFMRqCkgANTUNBaB9QQEgPVqbsdJBASAJIW0DQIHCQgAB8GblsBeAQFgr6D7CawtIACsXX+7n1hAAJi4eJZOYAABAWCAIlgCgS0CAsAWNfcQIPAkIAA8SfiTwGQCAsBkBbNcAoMJCACDFcRyCNwrIADcK+U6AgQuCQgAl1T8jMAEAgLABEWyRAIDCwgAAxfH0ghcExAArun4HQECtwQEgFtCfk9gUAEBYNDCWBaBSQQEgEkKZZkEzgUEgHMR3xMg8IiAAPCIlmsJDCQgAAxUDEshMKGAADBh0SyZQBEQAPQBAQJ7BASAPXruJXCggABwIL6pCSQQEAASFNEW1hQQANasu10TqCUgANSSNA6BzgICQGdw0xFIJiAAJCuo7awjIACsU2s7JdBCQABooWpMAh0EBIAOyKYgkFhAAEhcXFvLLSAA5K6v3RFoLSAAtBY2PoFGAgJAI1jDElhEQABYpNC2mU9AAMhXUzsi0FNAAOipbS4CFQUEgIqYhiKwoIAAsGDRbTmHgACQo452QeAoAQHgKHnzEtgpIADsBHQ7gcUFBIDFG8D25xUQAOatnZUTGEFAABihCtZAYIOAALABzS0ECJwEBIAThS8IzCUgAMxVL6slMJqAADBaRayHwJ0CAsCdUC4jQOCigABwkcUPCYwvIACMXyMrJDCygAAwcnWsjcAVAQHgCo5fESBwU0AAuEnkAgJjCggAY9bFqgjMIiAAzFIp6yRwJiAAnIH4lgCBhwQEgIe4XExgHAEBYJxaWAmBGQUEgBmrZs0EIkIA0AYECOwREAD26LmXwIECAsCB+KYmkEBAAEhQRFtYU0AAWLPudk2gloAAUEvSOAQ6CwgAncFNRyCZgACQrKC2s46AALBOre2UQAsBAaCFqjEJdBAQADogm4JAYgEBIHFxbS23gACQu752R6C1gADQWtj4BBoJCACNYA1LYBEBAWCRQttmPgEBIF9N7YhATwEBoKe2uQhUFBAAKmIaisCCAgLAgkW35RwCAkCOOtoFgaMEBICj5M1LYKeAALAT0O0EFhcQABZvANufV0AAmLd2Vk5gBAEBYIQqWAOBDQICwAY0txAgcBIQAE4UviAwl4AAMFe9rJbAaAICwGgVsR4CdwoIAHdCuYwAgYsCAsBFFj8kML6AADB+jayQwMgCAsDI1bE2AlcEBIArOH5FgMBNAQHgJpELCIwpIACMWRerIjCLgAAwS6Wsk8CZgABwBuJbAgQeEhAAHuJyMYFxBASAcWphJQRmFBAAZqyaNROICAFAGxAgsEdAANij514CBwoIAAfim5pAAgEBIEERbWFNAQFgzbrbNYFaAgJALUnjEOgsIAB0BjcdgWQCAkCygtrOOgICwDq1tlMCLQQEgBaqxiTQQUAA6IBsCgKJBQSAxMW1tdwCAkDu+todgdYCAkBrYeMTaCQgADSCNSyBRQQEgEUKbZv5BASAfDW1IwI9BQSAntrmIlBRQACoiGkoAgsKCAALFt2WcwgIADnqaBcEjhIQAI6SNy+BnQICwE5AtxNYXEAAWLwBbH9eAQFg3tpZOYERBASAEapgDQQ2CAgAG9DcQoDASUAAOFH4gsBcAgLAXPWyWgKjCQgAo1XEegjcKSAA3AnlMgIELgoIABdZ/JDA+AICwPg1skICIwsIACNXx9oIXBEQAK7g+BUBAjcFBICbRC4gMKaAADBmXayKwCwCAsAslbJOAmcCAsAZiG8JEHhIQAB4iMvFBMYREADGqYWVEJhRQACYsWrWTCAiBABtQIDAHgEBYI+eewkcKCAAHIhvagIJBASABEW0hTUFBIA1627XBGoJCAC1JI1DoLOAANAZ3HQEkgkIAMkKajvrCAgA69TaTgm0EBAAWqgak0AHAQGgA7IpCCQWEAASF9fWcgsIALnra3cEWgsIAK2FjU+gkYAA0AjWsAQWERAAFim0beYTEADy1dSOCPQUEAB6apuLQEUBAaAipqEILCggACxYdFvOISAA5KijXRA4SkAAOErevAR2CggAOwHdTmBxAQFg8Qaw/XkFBIB5a2flBEYQEABGqII1ENggIABsQHMLAQInAQHgROELAnMJCABz1ctqCYwmIACMVhHrIXCngABwJ5TLCBC4KCAAXGTxQwLjCwgA49fICgmMLCAAjFwdayNwRUAAuILjVwQI3BQQAG4SuYDAmAICwJh1sSoCswgIALNUyjoJnAkIAGcgviVA4CEBAeAhLhcTGEdAABinFlZCYEYBAWDGqlkzgYgQALQBAQJ7BASAPXruJXCggABwIL6pCSQQEAASFNEW1hQQANasu10TqCUgANSSNA6BzgICQGdw0xFIJiAAJCuo7awjIACsU2s7JdBCQABooWpMAh0EBIAOyKYgkFhAAEhcXFvLLSAA5K6v3RFoLSAAtBY2PoFGAgJAI1jDElhEQABYpNC2mU9AAMhXUzsi0FNAAOipbS4CFQUEgIqYhiKwoIAAsGDRbTmHgACQo452QeAoAQHgKHnzEtgpIADsBHQ7gcUFBIDFG8D25xUQAOatnZUTGEFAABihCtZAYIOAALABzS0ECJwEBIAThS8IzCUgAMxVL6slMJqAADBaRayHwJ0CAsCdUC4jQOCigABwkcUPCYwvIACMXyMrJDCygAAwcnWsjcAVAQHgCo5fESBwU0AAuEnkAgJjCggAY9bFqgjMIiAAzFIp6yRwJiAAnIH4lgCBhwQEgIe4XExgHAEBYJxaWAmBGQUEgBmrZs0EIkIA0AYECOwREAD26LmXwIECAsCB+KYmkEBAAEhQRFtYU0AAWLPudk2gloAAUEvSOAQ6CwgAncFNRyCZgACQrKC2s46AALBOre2UQAsBAaCFqjEJdBAQADogm4JAYgEBIHFxbS23gACQu752R6C1gADQWtj4BBoJCACNYA1LYBEBAWCRQttmPgEBIF9N7YhATwEBoKe2uQhUFBAAKmIaisCCAgLAgkW35RwCAkCOOtoFgaMEBICj5M1LYKeAALAT0O0EFhcQABZvANufV0AAmLd2Vk5gBAEBYIQqWAOBDQICwAY0txAgcBIQAE4UviAwl4AAMFe9rJbAaAICwGgVsR4CdwoIAHdCuYwAgYsCAsBFFj8kML6AADB+jayQwMgCAsDI1bE2AlcEBIArOH5FgMBNAQHgJpELCIwpIACMWRerIjCLgAAwS6Wsk8CZgABwBuJbAgQeEhAAHuJyMYFxBASAcWphJQRmFBAAZqyaNROICAFAGxAgsEdAANij514CBwoIAAfim5pAAgEBIEERbWFNAQFgzbrbNYFaAgJALUnjEOgsIAB0BjcdgWQCAkCygtrOOgICwDq1tlMCLQQEgBaqxiTQQUAA6IBsCgKJBQSAxMW1tdwCAkDu+todgdYCAkBrYeMTaCQgADSCNSyBRQQEgEUKbZv5BASAfDW1IwI9BQSAntrmIlBRQACoiGkoAgsKCAALFt2WcwgIADnqaBcEjhIQAI6SNy+BnQICwE5AtxNYXEAAWLwBbH9eAQFg3tpZOYERBASAEapgDQQ2CAgAG9DcQoDASUAAOFH4gsBcAgLAXPWyWgKjCQgAo1XEegjcKSAA3AnlMgIELgoIABdZ/JDA+AICwPg1skICIwsIACNXx9oIXBEQAK7g+BUBAjcFBICbRC4gMKaAADBmXayKwCwCAsAslbJOAmcCAsAZiG8JEHhIQAB4iMvFBMYREADGqYWVEJhRQACYsWrWTCAiBABtQIDAHgEBYI+eewkcKCAAHIhvagIJBASABEW0hTUFBIA1627XBGoJCAC1JI1DoLOAANAZ3HQEkgkIAMkKajvrCAgA69TaTgm0EBAAWqgak0AHAQGgA7IpCCQWEAASF9fWcgsIALnra3cEWgsIAK2FjU+gkYAA0AjWsAQWERAAFim0beYTEADy1dSOCPQUEAB6apuLQEUBAaAipqEILCggACxYdFvOISAA5KijXRA4SkAAOErevAR2CggAOwHdTmBxAQFg8Qaw/XkFBIB5a2flBEYQEABGqII1ENggIABsQHMLAQInAQHgROELAnMJCABz1ctqCYwmIACMVhHrIXCngABwJ5TLCBC4KCAAXGTxQwLjCwgA49fICgmMLCAAjFwdayNwRUAAuILjVwQI3BQQAG4SuYDAmAICwJh1sSoCswgIALNUyjoJnAkIAGcgviVA4CEBAeAhLhcTGEdAABinFlZCYEYBAWDGqlkzgYgQALQBAQJ7BASAPXruJXCggABwIL6pCSQQEAASFNEW1hQQANasu10TqCUgANSSNA6BzgICQGdw0xFIJiAAJCuo7awjIACsU2s7JdBCQABooWpMAh0EBIAOyKYgkFhAAEhcXFvLLSAA5K6v3RFoLSAAtBY2PoFGAgJAI1jDElhEQABYpNC2mU9AAMhXUzsi0FNAAOipbS4CFQUEgIqYhiKwoIAAsGDRbTmHgACQo452QeAoAQHgKHnzEtgpIADsBHQ7gcUFBIDFG8D25xUQAOatnZUTGEFAABihCtZAYIOAALABzS0ECJwEBIAThS8IzCUgAMxVL6slMJqAADBaRayHwJ0CAsCdUC4jQOCigABwkcUPCYwvIACMXyMrJDCygAAwcnWsjcAVAQHgCo5fESBwU0AAuEnkAgJjCggAY9bFqgjMIiAAzFIp6yRwJiAAnIH4lgCBhwQEgIe4XExgHAEBYJxaWAmBGQUEgBmrZs0EIkIA0AYECOwREAD26LmXwIECAsCB+KYmkEBAAEhQRFtYU0AAWLPudk2gloAAUEvSOAQ6CwgAncFNRyCZgACQrKC2s46AALBOre2UQAsBAaCFqjEJdBAQADogm4JAYgEBIHFxbS23gACQu752R6C1gADQWtj4BBoJCACNYA1LYBEBAWCRQttmPgEBIF9N7YhATwEBoKe2uQhUFBAAKmIaisCCAgLAgkW35RwCAkCOOtoFgaMEBICj5M1LYKeAALAT0O0EFhcQABZvANufV0AAmLd2Vk5gBAEBYIQqWAOBDQICwAY0txAgcBIQAE4UviAwl4AAMFe9rJbAaAICwGgVsR4CdwoIAHdCuYwAgYsCAsBFFj8kML6AADB+jayQwMgCAsDI1bE2AlcEBIArOH5FgMBNAQHgJpELCIwpIACMWRerIjCLgAAwS6Wsk8CZgABwBuJbAgQeEhAAHuJyMYFxBASAcWphJQRmFBAAZqyaNROICAFAGxAgsEdAANij514CBwoIAAfim5pAAgEBIEERbWFNAQFgzbrbNYFaAgJALUnjEOgsIAB0BjcdgWQCAkCygtrOOgICwDq1tlMCLQQEgBaqxiTQQUAA6IBsCgKJBQSAxMW1tdwCAkDu+todgdYCAkBrYeMTaCQgADSCNSyBRQQEgEUKbZv5BASAfDW1IwI9BQSAntrmIlBRQACoiGkoAgsKCAALFt2WcwgIADnqaBcEjhIQAI6SNy+BnQICwE5AtxNYXEAAWLwBbH9eAQFg3tpZOYERBASAEapgDQQ2CAgAG9DcQoDASUAAOFH4gsBcAgLAXPWyWgKjCQgAo1XEegjcKSAA3AnlMgIELgoIABdZ/JDA+AICwPg1skICIwsIACNXx9oIXBEQAK7g+BUBAjcFBICbRC4gMKaAADBmXayKwCwCAsAslbJOAmcCAsAZiG8JEHhIQAB4iMvFBMYREADGqYWVEJhRQACYsWrWTCAiBABtQIDAHgEBYI+eewkcKCAAHIhvagIJBASABEW0hTUFBIA1627XBGoJCAC1JI1DoLOAANAZ3HQEkgkIAMkKajvrCAgA69TaTgm0EBAAWqgak0AHAQGgA7IpCCQWEAASF9fWcgsIALnra3cEWgsIAK2FjU+gkYAA0AjWsAQWERAAFim0beYTEADy1dSOCPQUEAB6apuLQEUBAaAipqEILCggACxYdFvOISAA5KijXRA4SkAAOErevAR2CggAOwHdTmBxAQFg8Qaw/XkFBIB5a2flBEYQEABGqII1ENggIABsQHMLAQInAQHgROELAnMJCABz1ctqCYwmIACMVhHrIXCngABwJ5TLCBC4KCAAXGTxQwLjCwgA49fICgmMLCAAjFwdayNwRUAAuILjVwQI3BQQAG4SuYDAmAICwJh1sSoCswgIALNUyjoJnAkIAGcgviVA4CEBAeAhLhcTGEdAABinFlZCYEYBAWDGqlkzgYgQALQBAQJ7BASAPXruJXCggABwIL6pCSQQEAASFNEW1hQQANasu10TqCUgANSSNA6BzgICQGdw0xFIJiAAJCuo7awjIACsU2s7JdBCQABooWpMAh0EBIAOyKYgkFhAAEhcXFvLLSAA5K6v3RFoLSAAtBY2PoFGAgJAI1jDElhEQABYpNC2mU9AAMhXUzsi0FNAAOipbS4CFQUEgIqYhiKwoIAAsGDRbTmHgACQo452QeAoAQHgKHnzEtgpIADsBHQ7gcUFBIDFG8D25xUQAOatnZUTGEFAABihCtZAYIOAALABzS0ECJwEBIAThS8IzCUgAMxVL6slMJqAADBaRayHwJ0CAsCdUC4jQOCigABwkcUPCYwvIACMXyMrJDCygAAwcnWsjcAVAQHgCo5fESBwU0AAuEnkAgJjCggAY9bFqgjMIiAAzFIp6yRwJiAAnIH4lgCBhwQEgIe4XExgHAEBYJxaWAmBGQUEgBmrZs0EIkIA0AYECOwREAD26LmXwIECAsCB+KYmkEBAAEhQRFtYU0AAWLPudk2gloAAUEvSOAQ6CwgAncFNRyCZgACQrKC2s46AALBOre2UQAsBAaCFqjEJdBAQADogm4JAYgEBIHFxbS23gACQu752R6C1gADQWtj4BBoJCACNYA1LYBEBAWCRQttmPgEBIF9N7YhATwEBoKe2uQhUFBAAKmIaisCCAgLAgkW35RwCAkCOOtoFgaMEBICj5M1LYKeAALAT0O0EFhcQABZvANufV0AAmLd2Vk5gBAEBYIQqWAOBDQICwAY0txAgcBIQAE4UviAwl4AAMFe9rJbAaAICwGgVsR4CdwoIAHdCuYwAgYsCAsBFFj8kML6AADB+jayQwMgCAsDI1bE2AlcEBIArOH5FgMBNAQHgJpELCIwpIACMWRerIjCLgAAwS6Wsk8CZgABwBuJbAgQeEhAAHuJyMYFxBASAcWphJQRmFBAAZqyaNROICAFAGxAgsEdAANij514CBwoIAAfim5pAAgEBIEERbWFNAQFgzbrbNYFaAgJALUnjEOgsIAB0BjcdgWQCAkCygtrOOgICwDq1tlMCLQQEgBaqxiTQQUAA6IBsCgKJBQSAxMW1tdwCAkDu+todgdYCAkBrYeMTaCQgADSCNSyBRQQEgEUKbZv5BASAfDW1IwI9BQSAntrmIlBRQACoiGkoAgsKCAALFt2WcwgIADnqaBcEjhIQAI6SNy+BnQICwE5AtxNYXEAAWLwBbH9eAQFg3tpZOYERBASAEapgDQQ2CAgAG9DcQoDASUAAOFH4gsBcAgLAXPWyWgKjCQgAo1XEegjcKSAA3AnlMgIELgoIABdZ/JDA+AICwPg1skICIwsIACNXx9oIXBEQAK7g+BUBAjcFBICbRC4gMKaAADBmXayKwCwCAsAslbJOAmcCAsAZiG8JEHhIQAB4iMvFBMYREADGqYWVEJhRQACYsWrWTCAiBABtQIDAHgEBYI+eewkcKCAAHIhvagIJBASABEW0hTUFBIA1627XBGoJCAC1JI1DoLOAANAZ3HQEkgkIAMkKajvrCAgA69TaTgm0EBAAWqgak0AHAQGgA7IpCCQWEAASF9fWcgsIALnra3cEWgsIAK2FjU+gkYAA0AjWsAQWERAAFim0beYTEADy1dSOCPQUEAB6apuLQEUBAaAipqEILCggACxYdFvOISAA5KijXRA4SkAAOErevAR2CggAOwHdTmBxAQFg8Qaw/XkFBIB5a2flBEYQEABGqII1ENggIABsQHMLAQInAQHgROELAnMJCABz1ctqCYwmIACMVhHrIXCngABwJ5TLCBC4KCAAXGTxQwLjCwgA49fICgmMLCAAjFwdayNwRUAAuILjVwQI3BQQAG4SuYDAmAICwJh1sSoCswgIALNUyjoJnAkIAGcgviVA4CEBAeAhLhcTGEdAABinFlZCYEYBAWDGqlkzgYgQALQBAQJ7BASAPXruJXCggABwIL6pCSQQEAASFNEW1hQQANasu10TqCUgANSSNA6BzgICQGdw0xFIJiAAJCuo7awjIACsU2s7JdBCQABooWpMAh0EBIAOyKYgkFhAAEhcXFvLLSAA5K6v3RFoLSAAtBY2PoFGAgJAI1jDElhEQABYpNC2mU9AAMhXUzsi0FNAAOipbS4CFQUEgIqYhiKwoIAAsGDRbTmHgACQo452QeAoAQHgKHnzEtgpIADsBHQ7gcUFBIDFG8D25xUQAOatnZUTGEFAABihCtZAYIOAALABzS0ECJwEBIAThS8IzCUgAMxVL6slMJqAADBaRayHwJ0CAsCdUC4jQOCigABwkcUPCYwvIACMXyMrJDCygAAwcnWsjcAVAQHgCo5fESBwU0AAuEnkAgJjCggAY9bFqgjMIiAAzFIp6yRwJiAAnIH4lgCBhwQEgIe4XExgHAEBYJxaWAmBGQUEgBmrZs0EIkIA0AYECOwREAD26LmXwIECAsCB+KYmkEBAAEhQRFtYU0AAWLPudk2gloAAUEvSOAQ6CwgAncFNRyCZgACQrKB69MqjAAAIcElEQVS2s46AALBOre2UQAsBAaCFqjEJdBAQADogm4JAYgEBIHFxbS23gACQu752R6C1gADQWtj4BBoJCACNYA1LYBEBAWCRQttmPgEBIF9N7YhATwEBoKe2uQhUFBAAKmIaisCCAgLAgkW35RwCAkCOOtoFgaMEBICj5M1LYKeAALAT0O0EFhcQABZvANufV0AAmLd2Vk5gBAEBYIQqWAOBDQICwAY0txAgcBIQAE4UviAwl4AAMFe9rJbAaAICwGgVsR4Cdwq0DgDfiAj/MNADemBrD5QzyosAgQYCAoCDeevB7D6906MHBIAGB78hCRQBAcAh3uMQN4c+29oDAoBnFYFGAgKAg3nrwew+vdOjBwSARoe/YQkIAA7xHoe4OfTZ1h4QADynCDQSEAAczFsPZvfpnR49IAA0OvwNS0AAcIj3OMTNoc+29oAA4DlFoJGAAOBg3nowu0/v9OgBAaDR4W9YAgKAQ7zHIW4Ofba1BwQAzykCjQQEAAfz1oPZfXqnRw8IAI0Of8MSEAAc4j0OcXPos609IAB4ThFoJCAAOJi3Hszu0zs9ekAAaHT4G5aAAOAQ33qIfz0i/joi3hYRvxARPxURP/zNf8rX5Wfld+Wacu3Wedy3tp0A4DlFoJGAALD24brl4fovEfErEfE9D/RkubbcU+7dMqd71nUTAB54o7mUwCMCAsC6B+ujD9X/iIhfj4hvf6TBzq4t95YxyliPzu/6Nc0EgLM3kW8J1BIQANY8VB99mP5pRLy4VtN9c6wy5qPrcP16ZgJAxTeeoQg8KyAArHegPvoQ/e2I+LZnm6bS12XMMvaj63H9WmYCQKU3nGEInAsIAGsdpo8+PN9+3jANvi9zPLou169jJgA0eNMZkkAREADWOUgffWj+YUQ8p8PbpMxR5np0fa5fw0wA6PAmNMWaAgLAGofoow/Lv4+I7+z4lihzlTkfXafr85sJAB3fiKZaS0AAyH+AbnlIvu6At0GZc8ta3ZPbTQA44M1oyjUEBIDch+eWh+NHDmz9MveWNbsnr5sAcOAb0tS5BQSAvAfn1ofiDx3Y8mXuret2X047AeDAN6SpcwsIADkPza0Pw78doN3LGrau33357ASAAd6UlpBTQADId2DueQiW/3f/0a+yhj17cG8uPwHg6Hek+dMKCAC5Dsu9D78fHaDTyxr27sP9eQwFgAHelJaQU0AAyHNQ7n3ofS0injdAm5c1lLXs3Y/7cxgKAAO8KS0hp4AAkOOQrPGw++xALV7WUmNPxpjfUQAY6I1pKbkEBID5D8haD7m/G6i1y1pq7cs4c1sKAAO9MS0ll8BHHbQeNN/sgT8fqLXLWjy4GZQeKGeUFwECDQTe66D1oPlmD/xDg/7aOmRZiwDAoPTA+7Y2kfsIELgu4G9ic8g+PWj/83qrdP1tWcvTuvy5tkWPv5Gya3ObjMAoAr/soPWgeaYHvn2Axixr8NBn8NQDbx6gJy2BQEqBNzhsPWye6YEfH6DLyxqeDn9/sihnlBcBAg0E/E9XHLDPPmTf3aDHHh2yrOHZNfl6bY9XPdpAridA4D6B73bYetg80wOfvq9tml5V1uChz+CpB17atNsMTmBhgedExH85cD1wnumBnzjw/VDmfjr4/cniCxFRzigvAgQaCfy+Q9dD55ke+JtGfXbPsGVuD34GTz3wgXuaxjUECGwXeJND10PnrAd+Zns7bb6zzPl08PuTRemBn93cTW4kQOAuge+KiK84fD18numBf4uIl93VPXUuKnOVOT34GTz1QDmTXlinvYxCgMA1AX8ngIP36eB9+rP86/jvuNY0lX5X5vCv/vXfU989/fmJSv1lGAIEbgj8qk9fPn1e6IE/iIhvu9E7e35dxi5zPB36/mTx1ANv2dNY7iVA4H6Bl0fE1x3EHkQXeuDPIuLF97fS3VeWMcvYTwe+P1k89UA5i8qZ5EWAQCeB9zuMPYy+RQ/8c0TU/B+ylLHKmE8Hvj9ZPNsD5SzyIkCgo8ArIuLLDmUPpW/RA1+LiN+LiO/d0ZPl3jJGGevZA9/XPJ56oJxB5SzyIkCgs8C7HMweTDd64H8i4ncj4vURcc9fHlSuKdeWe8q9Twe9P1lc6oFyBnkRIHCAwIsi4vMOaQ+pO3vgvyPijyPityLirRFR/lv+8k/5uvys/K5cc+mg9zMu5z1Qzp5yBnkRIHCQwG84sD2w9IAeOKAHytnjRYDAgQLPjwh/IYtPZ+efznyvJ1r2QDlzytnjRYDAwQI/EhFfPOATQMsDxtgeYHpgzB4oZ005c7wIEBhE4I3+3wD+NbAQqAca90D5b/7LWeNFgMBgAr/Z+M3vE9mYn8jURV169UA5Y7wIEBhQoPxd3B8UAnwK1AN6oEEPlLOlnDFeBAgMKvCCiPhkgzd/r08Y5vFpVg+M1wPlTClnixcBAoMLlL+W82NCgE+BekAPVOiBj/urfgc/8S2PwJnAcyPinRXe/D6NjfdpTE3UpFcPvDsinnd2tviWAIFJBH7e3xngU6AgqAce7IGvRMQvTnLGWSYBAlcEXh0Rn33wAOj1CcM8Ps3qgbF64N8j4seunCd+RYDAZAIviYj3RMRXBQGfBvWAHrjQA/8bEe+NiJdNdrZZLgECdwp8f0R86MKb36ewsT6FqYd69OyBD0fED9x5hriMAIHJBV4TEX8pCPgkqAeW7oG/iojXTX6WWT4BAhsFyt/9/r6I+JwHwdIPgp6fNs117L/dKO/18p4v730vAgQIRPnPBl8bEe+IiE8JA8KAHkjVA+U9Xd7b5T1e3uteBAgQ+JYCr4yIN0XEWyPiXRHxgYj4i4j4p4j4kodDqoeDT+THfiKv4V/ek+W9Wd6j5b1a3rPlvVvew+W97EXg/wn8H+Em5eXUQLt+AAAAAElFTkSuQmCC;" parent="1" vertex="1">
          <mxGeometry x="80" y="160" width="90" height="90" as="geometry" />
        </mxCell>
        <mxCell id="8yuOUE8DRb-jMOZw8tpv-6" style="edgeStyle=orthogonalEdgeStyle;rounded=0;orthogonalLoop=1;jettySize=auto;html=1;exitX=1;exitY=0.25;exitDx=0;exitDy=0;entryX=0;entryY=0;entryDx=0;entryDy=15;entryPerimeter=0;" parent="1" source="8yuOUE8DRb-jMOZw8tpv-2" target="8yuOUE8DRb-jMOZw8tpv-4" edge="1">
          <mxGeometry relative="1" as="geometry">
            <mxPoint x="310" y="330" as="targetPoint" />
            <Array as="points">
              <mxPoint x="240" y="433" />
              <mxPoint x="240" y="327" />
            </Array>
          </mxGeometry>
        </mxCell>
        <mxCell id="8yuOUE8DRb-jMOZw8tpv-2" value="" style="shape=image;verticalLabelPosition=bottom;labelBackgroundColor=default;verticalAlign=top;aspect=fixed;imageAspect=0;image=data:image/png,iVBORw0KGgoAAAANSUhEUgAAAgAAAAIACAYAAAD0eNT6AAAAAXNSR0IArs4c6QAAIABJREFUeAHt3QmMbXddB/AvSIGwFASCAlVRBKKAoS5AwqIIolEgQkQpSkUxqKAUIxjjEtMIDcoSQCNBMKIoJiwRolFAjCjSCBYwxLIoSxFEqVFkF0qpOcl7pJR5d+a+d858z/KZ5KWvb+be3/l//t+553vv3Ds38UGAAAECBAgQIECAAAECBAgQIECAAAECBAgQIECAAAECBAgQIECAAAECBAgQIECAAAECBAgQIECAAAECBAgQIECAAAECBAgQIECAAAECBAgQIECAAAECBAgQIECAAAECBAgQIECAAAECBAgQIECAAAECBAgQIECAAAECBAgQIECAAAECBAgQIECAAAECBAgQIECAAAECBAgQIECAAAECBAgQIECAAAECBAgQIECAAAECBAgQIECAAAECBAgQIECAAAECBAgQIECAAAECBAgQIECAAAECBAgQIECAAAECBAgQIECAAAECBAgQIECAAAECBAgQIECAAAECBAgQIECAAAECBAgQIECAAAECBAgQIECAAAECBAgQIECAAAECBAgQIECAAAECBAgQIECAAAECBAgQIECAAAECBAgQIECAAAECBAgQIECAAAECBAgQIECAAAECBOYo8OVJ7p7k/CRPTvL8JC9J8pdJ/jbJJf4wkAEZkAEZOCQDf5/k1SfOH7+X5KlJHp3k3kluOceT3xaP6XYnNuVFST6Q5Cp/GMiADMiADEycgcuTvDTJ45LcKcm1tngCbqz5DkkuTPKvE2+wMqFQyYAMyIAMHCUDH0zy9CTnNk6Ka595vSSPSfJGJ33NXgZkQAZkYMYZuDTJE5OcvfYT89Tru1GSC5IM7eooLczXcJIBGZABGZhDBj6W5NlJbj31iXJt139Wkicl+YgTv+IjAzIgAzKw4Ax8KslFSW64thP1FOu5b5J/XvBmz6F5Ogb3gGRABmRgXhn49xOvUPOEwQOaw02T/IkTv6YvAzIgAzKw4gz8VZLbHHAO3Ow/3S3Je1a84Zr4vJq4/bAfMiADzQwMP95+2GbP+CcWPjwU8stJrnDy1/hlQAZkQAY2lIHPJ3lOkuE5b5v7uE6SF2xos5tt02z3dmRABmRgnhn46yQ32VIDGF7eN/x6XoFkIAMyIAMysPUMvC3JOVsoATdL8hYnf+VHBmRABmRABr6Qgfclue2aS8ANkgxvsrD1tmf9MiADMiADMnDNDLw7ya3WWAKum+RVTv7KjwzIgAzIgAycMgPDjwOGR8pX8zE82394W95rth3/z0QGZEAGZEAGvjgDr1/TqwOGN0awwQxkQAZkQAZk4GgZeNYaHgK4R5LPKAAKkAzIgAzIgAzslYEfXnIJuLl38ttrszXjozVjTpxkQAa2kIGPJvn6pZaA39f2FAAZkAEZkAEZOO0MvC7J4t5A6D5Jhl91uIWWZo32WQZkQAZkYKoMLOpHAddL8o6ZnPyvTPIfJ95s6M1JLvGHgQzIgAzIwI4MDK/HH96+dy7vU/PhJb008AnFk/8ANfzo4VFJ7pxkKCM+CBAgQIDAvgLDG/XcIcl5SZ6b5P3Fc9sz9j34xtdf/0RzmuqhkIOud/hRw58n+Z4kw5sM+SBAgAABAmMLDD+Lv1eSPy48OvDJJLcce0FjX9/jjrkhDW8qdKexF+H6CBAgQIDADoHh9/a/+Jif6/abO46n/qnh1/3+2zEVgP9K8pD6ih0AAQIECGxZYHjC+/BGPgc9Oj32v30iyS3miv3QY0J4w1rfMGGuG+u4CBAgQOCUAjdJ8opjOv/93CmPovyJVx4DwMuTDM8z8EGAAAECBOYicO0kzz6Gc+A/zWXBVz+O4ckJn5148X+6pjdIuDqevxMgQIDAKgSePvF5cPixwl3nJjX1S/8uTjI8x8AHAQIECBCYq8DwSoGXTVwCnjm3xb96wgVfnuQ2c1uw4yFAgAABAgcI3DjJOyc8Jw6/aG82H8M98+HZiWM/4/Hk9T18Nit1IAQIECBA4HCBuycZfhPtyfPY2P895/BDOJ6v+PYJF/ma41mCKQQIECBAYFSB5094bjx/1CM9gyu7cMJF3uMMjstFCRAgQIBAS+Crk/zfROfHF7YWdc25w7Pzx354Y7i+4W0QfRAgQIAAgaUKDCfqKc6Pb50LyFTv/PfIuSzQcRAgQIAAgdMQmOpH5MN7Awy/e6D6Mbxb0hSv/x+uc3gmpQ8CBAgQILBUgeFlgcNb0k/xKMDwfgTVjztOtLDXV1dlOAECBAgQGEfgRROdJ797nMM7/WuZ6uGN4bcp+SBAgAABAksX+JmJCsCPtmEeONHCfry9MPMJECBAgMAIAveb6Dw5FIvqx3kTLewB1VUZToAAAQIExhG4/UTnyV8a5/BO/1oeM9HCvP7/9PfEJQkQIEBgPgJfOdF58qL2Eh8/0cJm925HbWjzCRAgQGCRAmdPdJ58VlvjgokWpgC0d9Z8AgQIEBhDQAHYsygoAGPEznUQIECAQFtAAVAA2hk0nwABAgQKAgqAAlCInZEECBAg0BZQABSAdgbNJ0CAAIGCgAKgABRiZyQBAgQItAUUAAWgnUHzCRAgQKAgoAAoAIXYGUmAAAECbQEFQAFoZ9B8AgQIECgIKAAKQCF2RhIgQIBAW0ABUADaGTSfAAECBAoCCoACUIidkQQIECDQFlAAFIB2Bs0nQIAAgYKAAqAAFGJnJAECBAi0BRQABaCdQfMJECBAoCCgACgAhdgZSYAAAQJtAQVAAWhn0HwCBAgQKAgoAApAIXZGEiBAgEBbQAFQANoZNJ8AAQIECgIKgAJQiJ2RBAgQINAWUAAUgHYGzSdAgACBgoACoAAUYmckAQIECLQFFAAFoJ1B8wkQIECgIKAAKACF2BlJgAABAm0BBUABaGfQfAIECBAoCCgACkAhdkYSIECAQFtAAVAA2hk0nwABAgQKAgqAAlCInZEECBAg0BZQABSAdgbNJ0CAAIGCgAKgABRiZyQBAgQItAUUAAWgnUHzCRAgQKAgoAAoAIXYGUmAAAECbQEFQAFoZ9B8AgQIECgIKAAKQCF2RhIgQIBAW0ABUADaGTSfAAECBAoCCoACUIidkQQIECDQFlAAFIB2Bs0nQIAAgYKAAqAAFGJnJAECBAi0BRQABaCdQfMJECBAoCCgACgAhdgZSYAAAQJtAQVAAWhn0HwCBAgQKAgoAApAIXZGEiBAgEBbQAFQANoZNJ8AAQIECgIKgAJQiJ2RBAgQINAWUAAUgHYGzSdAgACBgoACoAAUYmckAQIECLQFFAAFoJ1B8wkQIECgIKAAKACF2BlJgAABAm0BBUABaGfQfAIECBAoCCgACkAhdkYSIECAQFtAAVAA2hk0nwABAgQKAgqAAlCInZEECBAg0BZQABSAdgbNJ0CAAIGCgAKgABRiZyQBAgQItAUUAAWgnUHzCRAgQKAgoAAoAIXYGUmAAAECbQEFQAFoZ9B8AgQIECgIKAAKQCF2RhIgQIBAW0ABUADaGTSfAAECBAoCCoACUIidkQQIECDQFlAAFIB2Bs0nQIAAgYKAAqAAFGJnJAECBAi0BRQABaCdQfMJECBAoCCgACgAhdgZSYAAAQJtAQVAAWhn0HwCBAgQKAgoAApAIXZGEiBAgEBbQAFQANoZNJ8AAQIECgIKgAJQiJ2RBAgQINAWUAAUgHYGzSdAgACBgoACoAAUYmckAQIECLQFFAAFoJ1B8wkQIECgIKAAKACF2BlJgAABAm0BBUABaGfQfAIECBAoCCgACkAhdkYSIECAQFtAAVAA2hk0nwABAgQKAgqAAlCInZEECBAg0BZQABSAdgbNJ0CAAIGCgAKgABRiZyQBAgQItAUUAAWgnUHzCRAgQKAgoAAoAIXYGUmAAAECbQEFQAFoZ9B8AgQIECgIKAAKQCF2RhIgQIBAW0ABUADaGTSfAAECBAoCCoACUIidkQQIECDQFlAAFIB2Bs0nQIAAgYKAAqAAFGJnJAECBAi0BRQABaCdQfMJECBAoCCgACgAhdgZSYAAAQJtAQVAAWhn0HwCBAgQKAgoAApAIXZGEiBAgEBbQAFQANoZNJ8AAQIECgIKgAJQiJ2RBAgQINAWUAAUgHYGzSdAgACBgoACoAAUYmckAQIECLQFFAAFoJ1B8wkQIECgIKAAKACF2BlJgAABAm0BBUABaGfQfAIECBAoCCgACkAhdkYSIECAQFtAAVAA2hk0nwABAgQKAgqAAlCInZEECBAg0BZQABSAdgbNJ0CAAIGCgAKgABRiZyQBAgQItAUUAAWgnUHzCRAgQKAgoAAoAIXYGUmAAAECbQEFQAFoZ9B8AgQIECgIKAAKQCF2RhIgQIBAW0ABUADaGTSfAAECBAoCCoACUIidkQQIECDQFlAAFIB2Bs0nQIAAgYKAAqAAFGJnJAECBAi0BRQABaCdQfMJECBAoCCgACgAhdgZSYAAAQJtAQVAAWhn0HwCBAgQKAgoAApAIXZGEiBAgEBbQAFQANoZNJ8AAQIECgIKgAJQiJ2RBAgQINAWUAAUgHYGzSdAgACBgoACoAAUYmckAQIECLQFFAAFoJ1B8wkQIECgIKAAKACF2BlJgAABAm0BBUABaGfQfAIECBAoCCgACkAhdkYSIECAQFtAAVAA2hk0nwABAgQKAgqAAlCInZEECBAg0BZQABSAdgbNJ0CAAIGCgAKgABRiZyQBAgQItAUUAAWgnUHzCRAgQKAgoAAoAIXYGUmAAAECbQEFQAFoZ9B8AgQIECgIKAAKQCF2RhIgQIBAW0ABUADaGTSfAAECBAoCCoACUIidkQQIECDQFlAAFIB2Bs0nQIAAgYKAAqAAFGJnJAECBAi0BRQABaCdQfMJECBAoCCgACgAhdgZSYAAAQJtAQVAAWhn0HwCBAgQKAgoAApAIXZGEiBAgEBbQAFQANoZNJ8AAQIECgIKgAJQiJ2RBAgQINAWUAAUgHYGzSdAgACBgoACoAAUYmckAQIECLQFFAAFoJ1B8wkQIECgIKAAKACF2BlJgAABAm0BBUABaGfQfAIECBAoCCgACkAhdkYSIECAQFtAAVAA2hk0nwABAgQKAgqAAlCInZEECBAg0BZQABSAdgbNJ0CAAIGCgAKgABRiZyQBAgQItAUUAAWgnUHzCRAgQKAgoAAoAIXYGUmAAAECbQEFQAFoZ9B8AgQIECgIKAAKQCF2RhIgQIBAW0ABUADaGTSfAAECBAoCCoACUIidkQQIECDQFlAAFIB2Bs0nQIAAgYKAAqAAFGJnJAECBAi0BRQABaCdQfMJECBAoCCgACgAhdgZSYAAAQJtAQVAAWhn0HwCBAgQKAgoAApAIXZGEiBAgEBbQAFQANoZNJ8AAQIECgIKgAJQiJ2RBAgQINAWUAAUgHYGzSdAgACBgoACoAAUYmckAQIECLQFFAAFoJ1B8wkQIECgIKAAKACF2BlJgAABAm0BBUABaGfQfAIECBAoCCgACkAhdkYSIECAQFtAAVAA2hk0nwABAgQKAgqAAlCInZEECBAg0BZQABSAdgbNJ0CAAIGCgAKgABRiZyQBAgQItAUUAAWgnUHzCRAgQKAgoAAoAIXYGUmAAAECbQEFQAFoZ9B8AgQIECgIKAAKQCF2RhIgQIBAW0ABUADaGTSfAAECBAoCCoACUIidkQQIECDQFlAAFIB2Bs0nQIAAgYKAAqAAFGJnJAECBAi0BRQABaCdQfMJECBAoCCgACgAhdgZSYAAAQJtAQVAAWhn0HwCBAgQKAgoAApAIXZGEiBAgEBbQAFQANoZNJ8AAQIECgIKgAJQiJ2RBAgQINAWUAAUgHYGzSdAgACBgoACoAAUYmckAQIECLQFFAAFoJ1B8wkQIECgIKAAKACF2BlJgAABAm0BBUABaGfQfAIECBAoCCgACkAhdkYSIECAQFtAAVAA2hk0nwABAgQKAgqAAlCInZEECBAg0BZQABSAdgbNJ0CAAIGCgAKgABRiZyQBAgQItAUUAAWgnUHzCRAgQKAgoAAoAIXYGUmAAAECbQEFQAFoZ9B8AgQIECgIKAAKQCF2RhIgQIBAW0ABUADaGTSfAAECBAoCCoACUIidkQQIECDQFlAAFIB2Bs0nQIAAgYKAAqAAFGJnJAECBAi0BRQABaCdQfMJECBAoCCgACgAhdgZSYAAAQJtAQVAAWhn0HwCBAgQKAgoAApAIXZGEiBAgEBbQAFQANoZNJ8AAQIECgIKgAJQiJ2RBAgQINAWUAAUgHYGzSdAgACBgoACoAAUYmckAQIECLQFFAAFoJ1B8wkQIECgIKAAKACF2BlJgAABAm0BBWDPAvCkJA/zh4EMyIAMyMDCM3D+nue/q4749c9qN5sLjnigR12Qr0sYMJABGZABGTgsAwqAAqIwyIAMyIAMbDADCsAGN/2wVujz7jnIgAzIwPozoAAoAJq/DMiADMjABjOgAGxw0zX79Td7e2yPZUAGDsuAAqAAaP4yIAMyIAMbzIACsMFNP6wV+rx7DjIgAzKw/gwoAAqA5i8DMiADMrDBDCgAG9x0zX79zd4e22MZkIHDMqAAKACavwzIgAzIwAYzoABscNMPa4U+756DDMiADKw/AwqAAqD5y4AMyIAMbDADCsAGN12zX3+zt8f2WAZk4LAMKAAKgOYvAzIgAzKwwQwoABvc9MNaoc+75yADMiAD68+AAqAAaP4yIAMyIAMbzIACsMFN1+zX3+ztsT2WARk4LAMKgAKg+cuADMiADGwwAwrABjf9sFbo8+45yIAMyMD6M6AAKACavwzIgAzIwAYzoABscNM1+/U3e3tsj2VABg7LwGoLwE8mub8/DGRABmRABhaegQdPdEd1tQXgrvFBgAABAgSWL3C2ArDfwzkKwPJDbwUECBAgkCgAezYgBcC3DQECBAisQUABUADWkGNrIECAAIE9BRQABWDPyPhyAgQIEFiDgAKgAKwhx9ZAgAABAnsKKAAKwJ6R8eUECBAgsAYBBUABWEOOrYEAAQIE9hRQABSAPSPjywkQIEBgDQIKgAKwhhxbAwECBAjsKaAAKAB7RsaXEyBAgMAaBBQABWANObYGAgQIENhTQAFQAPaMjC8nQIAAgTUIKAAKwBpybA0ECBAgsKeAAqAA7BkZX06AAAECaxBQABSANeTYGggQIEBgTwEFQAHYMzK+nAABAgTWILDaAvDYPU/sVx3x679tDbtuDQQIECCweYFbHPG8d9Tz48mve1pb9kcmWtj92wsznwABAgQIjCBw+4nOk78ywrGd0VU8eKKFPeKMjsqFCRAgQIDAPATuOdF58vHt5X3HRAu7sL0w8wkQIECAwAgCPzHRefL8EY7tjK7imyZa2CvP6KhcmAABAgQIzEPgOROdJx/UXt4Nklw5weI+kuTL2osznwABAgQInKHApROcI4cnAt7xDI9rlItfNtHi7jXK0bkSAgQIECDQEfiaJJ+f4Bz52SRndZb0xVNfNcHihnbzvC8e4/8IECBAgMCiBH51ovPj2+ei8MyJFvjRJDeZyyIdBwECBAgQ2EPgOkneO9H58eV7HMekX/rQiRY4PApQf53jpHKunAABAgTWKvCoCc+NT5gL2s2SfG6ihf5Pkq+Yy0IdBwECBAgQOILA8AT5qe79D3eOh1fgzebjHycqAMNCXzSbVToQAgQIECBwuMBTJjwn/meSax1+CMf3FU+dcLFDCfjB41uKSQQIECBA4LQF7p3kignPiS8+7SOb6ILfPOFihwIwPCHwGyc6dldLgAABAgTGELh1kg9OfD58yBgHOvZ1vG3iRQ+otx37oF0fAQIECBAYQWB41dpbJz4P/neS641wrKNfxZMmXvjwSMD75vLbj0bXc4UECBAgsFSB4cnqbz6Gc+BvzRXoVkmG3040nKin/HN5ku+cK4LjIkCAAIFNCZyb5D0Tn/dOnlO/dc6yLzwmhOFlh78+14dC5rxBjo0AAQIERhEY3q9meEveTx/Tee9vRjnqCa/kDhP+ToCTDejq//2XJMM7Is3qJRET+rpqAgQIEOgLDM/0v+SYTvwnz3n36y/78CMYXqJw8oCP67/DEy+G90a+0eGH5ysIECBAgMDeAsOT74bffPu6wjnu4r2PtnSB4eV6U74Gclep+HiSlyV5bJLhpYk3LBkYS4AAAQLLFhhO+HdJ8mNJ/ijJ8Az8XeefKT/3XUuifHoR6uqbMLwN44eTvOvEwzXDQzb+MJABGZABGThVBt6R5EPH/OPsq5+3rvn3ly7p5D8c6/B7kC+bSQm4Jqb/77VY9uxlQAZk4OgZ+FiSc5ZWAIbj/QEFoPZwkW+wo3+DsWIlAzIw1wz8/BJP/ieP+Q+UACVABmRABmRABvbOwPBkw+Glhov9GJ6E93Ybv/fGz7WNOi73lGRABmRg+gwMz10b3ldg8R93TvJJJUAJkAEZkAEZkIFDM3Blkgcs/sx/tQWcl2RYlObIQAZkQAZkQAZOnYFfuNq5czV/HV6bb9MZyIAMyIAMyMDBGfjt1ZzxD1jIk5UAJUgGZEAGZEAGviQDw2/RvfYB583V/NPwO/ufYeO/ZOO14YPbMBcuMiADW8jAS5KctZoz/SELuSDJ8Fv6trCx1mifZUAGZEAGTpWB4WH/Vd/zP6gPPDLJZ5UAJUgGZEAGZGCjGXjqQSfHrfzbfZJ8cKMbf6o26N/dU5ABGZCBdWfgo0l+aCsn+l3rvEWSv1AC3AOQARmQARnYQAbenOR2u06KW/vc8POPJ/qFQb75N/DN757duu/Z2V/7e6oMDD/y/o0k193aCf6o671Nkj90ElAEZEAGZEAGVpSBv0tyl6OeCLf+dQ/0HgK++Vf0zX+qewT+3b1FGVh3Bt6f5Pwkw0vgfewhMPxY4EFJ3uREoAzIgAzIgAwsKAPvTTK83P36e5zzfOkBAkNz+t4kr/CyQTcAC7oBcM9u3ffs7K/9vWYGhve7eW2S4b1vFv02vgech2fxT8MrBn42yRu9uZAyoAzIgAzIwAwy8LYkv5jkq2ZxltzIQQxl4GFJnpvknX6zoBuCGdwQXPMegf93L1EG1peBy5K8MMnwy+xuvZHz7eyXeYMk5yZ5eJILk/xukuH3K78qycVJLvFnkwafmKAYfFqWZpWl/51gj6+wx7Pa4+O8/f6HJK85cf54QZKLTjyR725JbjL7M6EDJEDgCwLDN/PY98Iu/cK1+8scBP5sgj2+fA4LcwwECBAgcPoCCsDp2y3lkgrAUnbKcRIgQOAYBRSAY8QujVIASvDGEiBAYM4CCsCcd2ecY1MAxnF0LQQIEFiVgAKwqu08cDEKwIEs/pEAAQLbFlAA1r//CsD699gKCRAgsLeAArA32eIuoAAsbsscMAECBKYXUACmN25PUADaO2A+AQIEZiigAMxwU0Y+JAVgZFBXR4AAgTUIKABr2MXda1AAdvv4LAECBDYpoACsf9sVgPXvsRUSIEBgbwEFYG+yxV1AAVjcljlgAgQITC+gAExv3J6gALR3wHwCBAjMUEABmOGmjHxICsDIoK6OAAECaxBQANawi7vXoADs9vFZAgQIbFJAAVj/tisA699jKyRAgMDeAgrA3mSLu4ACsLgtc8AECBCYXkABmN64PUEBaO+A+QQIEJihgAIww00Z+ZAUgJFBXR0BAgTWIKAArGEXd69BAdjt47MECBDYpIACsP5tVwDWv8dWSIAAgb0FFIC9yRZ3AQVgcVvmgAkQIDC9gAIwvXF7ggLQ3gHzCRAgMEMBBWCGmzLyISkAI4O6OgIECKxBQAFYwy7uXoMCsNvHZwkQILBJAQVg/duuAKx/j62QAAECewsoAHuTLe4CCsDitswBEyBAYHoBBWB64/YEBaC9A+YTIEBghgIKwAw3ZeRDUgBGBnV1BAgQWIOAArCGXdy9BgVgt4/PEiBAYJMCCsD6t10BWP8eWyEBAgT2FlAA9iZb3AUUgMVtmQMmQIDA9AIKwPTG7QkKQHsHzCdAgMAMBRSAGW7KyIekAIwM6uoIECCwBgEFYA27uHsNCsBuH58lQIDAJgUUgPVvuwKw/j22QgIECOwtoADsTba4CygAi9syB0yAAIHpBRSA6Y3bExSA9g6YT4AAgRkKKAAz3JSRD0kBGBnU1REgQGANAgrAGnZx9xoUgN0+PkuAAIFNCigA6992BWD9e2yFBAgQ2FtAAdibbHEXUAAWt2UOmAABAtMLKADTG7cnKADtHTCfAAECMxRQAGa4KSMfkgIwMqirI0CAwBoEFIA17OLuNSgAu318lgABApsUUADWv+0KwPr32AoJECCwt4ACsDfZ4i6gACxuyxwwAQIEphdQAKY3bk9QANo7YD4BAgRmKKAAzHBTRj4kBWBkUFdHgACBNQgoAGvYxd1rUAB2+/gsAQIENimgAKx/2xWA9e+xFRIgQGBvAQVgb7LFXUABWNyWOWACBAhML6AATG/cnqAAtHfAfAIECMxQQAGY4aaMfEgKwMigro4AAQJrEFAA1rCLu9egAOz28VkCBAhsUkABWP+2KwDr32MrJECAwN4CCsDeZIu7gAKwuC1zwAQIEJheQAGY3rg9QQFo74D5BAgQmKGAAjDDTRn5kBSAkUFdHQECBNYgoACsYRd3r0EB2O3jswQIENikgAKw/m1XANa/x1ZIgACBvQUUgL3JFncBBWBxW+aACRAgML2AAjC9cXuCAtDeAfMJECAwQwEFYIabMvIhKQAjg7o6AgQIrEFAAVjDLu5egwKw28dnCRAgsEkBBWD9264ArH+PrZAAAQJ7CygAe5Mt7gIKwOK2zAETIEBgegEFYHrj9gQFoL0D5hMgQGCGAgrADDdl5ENSAEYGdXUECBAYS+BaSe6T5BlJLknyoSSfS3KVPwxk4MAMfCbJB5K8PsmvJbnLWN+MrocAAQLHJXDPJBe7kT/wRl4BUgKPmoHPJ3l5ktsf1zeuOQQIEDgTgQvc03fiV/5GzcDHkzzkTL4pXZYGTBRNAAADXUlEQVQAAQJTC1zkhn/UG/6j3lP0det/VOHKJOdN/Q3s+gkQIHA6Ao9w8nfyl4FJM/CpJN9yOt+cLkOAAIGpBG6c5MNu/Ce98Xcvf/338o+yx29KMjzB1gcBAgRmITA8Y/koN16+hpMMnHkGPB9gFjd7DoIAgUHgXQqAAiQDx5aBl7rZIUCAwBwE7uCG/9hu+N17PvN7z2swHF4VcJ05fPM7BgIEti3wfQqAAiADx56Bc7Z9s2P1BAjMQeDRbvyP/cZ/DfdireHMHs242xy++R0DAQLbFvDyvzO7IXci5Hc6Gbjztm92rJ4AgTkI3NcjAB4BkIFjz8DN5vDN7xgIENi2wE2TfNYJ4NhPAKdzr9Fl1vFow7u3fZNj9QQIzEngtQqAAiADx5aB4R02fRAgQGAWAsMvJnHvkoEMTJ+BK5J8wyy+6x0EAQIETvxq0jcoAUqQDEyegd9xi0OAAIG5Cdw2yeVOAJOfANzLnv5e9lyNL01y9ty+8R0PAQIEBoF7JfmIEqAEyMDoGRie+Pe1bmYIECAwZ4E7Jhnuqcz1XpTjsjdLy8Crk9x8zt/0jo0AAQInBc5K8tNJLlMEFCEZOO0MvCXJ95/8pvJfAgQILE3g3CQXJHlakuf5w0AGdmbgKUl+KsnXLe0b3fESIECAAAECBAgQIECAAAECBAgQIECAAAECBAgQIECAAAECBAgQIECAAAECBAgQIECAAAECBAgQIECAAAECBAgQIECAAAECBAgQIECAAAECBAgQIECAAAECBAgQIECAAAECBAgQIECAAAECBAgQIECAAAECBAgQIECAAAECBAgQIECAAAECBAgQIECAAAECBAgQIECAAAECBAgQIECAAAECBAgQIECAAAECBAgQIECAAAECBAgQIECAAAECBAgQIECAAAECBAgQIECAAAECBAgQIECAAAECBAgQIECAAAECBAgQIECAAAECBAgQIECAAAECBAgQIECAAAECBAgQIECAAAECBAgQIECAAAECBAgQIECAAAECBAgQIECAAAECBAgQIECAAAECBAgQIECAAAECBAgQIECAAAECBAgQIECAAAECBAgQIECAAAECBAgQIECAAAECBAgQIECAAAECBAgQIECAAAECBAgQIECAAAECIwj8P6/D5nNXNi89AAAAAElFTkSuQmCC;" parent="1" vertex="1">
          <mxGeometry x="90" y="410" width="92" height="92" as="geometry" />
        </mxCell>
        <mxCell id="8yuOUE8DRb-jMOZw8tpv-23" style="edgeStyle=orthogonalEdgeStyle;rounded=0;orthogonalLoop=1;jettySize=auto;html=1;entryX=0;entryY=0.5;entryDx=0;entryDy=0;" parent="1" source="8yuOUE8DRb-jMOZw8tpv-4" target="8yuOUE8DRb-jMOZw8tpv-11" edge="1">
          <mxGeometry relative="1" as="geometry">
            <Array as="points">
              <mxPoint x="560" y="337" />
              <mxPoint x="560" y="301" />
            </Array>
          </mxGeometry>
        </mxCell>
        <mxCell id="8yuOUE8DRb-jMOZw8tpv-4" value="" style="shape=cube;whiteSpace=wrap;html=1;boundedLbl=1;backgroundOutline=1;darkOpacity=0.05;darkOpacity2=0.1;" parent="1" vertex="1">
          <mxGeometry x="310" y="312" width="118" height="50" as="geometry" />
        </mxCell>
        <mxCell id="8yuOUE8DRb-jMOZw8tpv-3" value="" style="shape=image;verticalLabelPosition=bottom;labelBackgroundColor=default;verticalAlign=top;aspect=fixed;imageAspect=0;image=data:image/png,iVBORw0KGgoAAAANSUhEUgAAAgAAAAIACAYAAAD0eNT6AAAAAXNSR0IArs4c6QAAIABJREFUeAHt3X2QpWlZH+AbDOsCJiiwkpQmyEc+FCFrxRggxmgU+QplBRDRRBeFP5QgghYqECwlCSBY0RIDpFIGEKyQCitfUcANWyWIEkRM1o1iRUlWTTaKuIrCLsuuk/pRpytdU/RMd8+53/c+fa67ampmerqf536u551+fuf0+ahSBAicZYG7VtVjquoZVfXiqnptVV1bVR+oqo9sfuXP+Vj+LZ+Tz83X5GsVAQIECBAgsCMCV1TVk6vqLVV1c1WdO+WvfG3GyFgZUxEgQIAAAQLDBC6rqm+rqndV1e2nPPAvFBQy5js3c2QuRYAAAQIECKwocIeq+oaq+mDDoX9UIMhcmTNzKwIECBAgQGBhga+uqvcvePCfHwgyd3pQBAgQIECAwAICn1tV16x48J8fBNJLelIECBAgQIBAk8BDqurGQYf/QRhIT+lNESBAgAABAlsWuKqqbhl4+B+EgPSWHhUBAgQIECCwBYFPq6ofGnzwHwSAg9/Ta3pWBAgQIECAwCkFcpC+cYcO/4MQkJ6FgFNuui8jQIAAAQK7dMv/4PA/+D29KwIECBAgQOCEAvl5+sFhuqu/e0zACTfdpxMgQIDAfgvkEfWTH/B33ECSNXh2wH5fy1ZPgAABAscUyHPqJz7V77iH/vmfl7V4nYBjbr5PI0CAAIH9FZj0Ij/nH+an/XvWpAgQIECAAIEjBPLSuqc9ZKd/nZcNPmLTfZgAAQIE9lsgb66z5mv7dweIrM0bCO33NW71BAgQIPApBPIOe92H8NrjZ42KAAECBAgQ2AhctvBb+q4VBPJWwlmrIkCAAAECBKrq2/bg1v9B6MhaFQECBAgQIFBV79qjAJC1KgIECBAgsPcCV1TV7QsFgD+rqt+oqp+sqmdufuXP+Vj+7eBWeufvWWvWrAgQIECAwF4LPHmBg/dPq+ppVXW3C0jn3/I5+dzOAJCxs2ZFgAABAgT2WuAtzQdu7nK/3wmE87ndP5LImhUBAgQIENhbgbtW1c2NAeAFVXXHU+jma/K1XfcEZM1ZuyJAgAABAnsp8JjGQza34k9z+B9sRL62856ArF0RIECAAIG9FHhGUwDIz/FPcrf/UfgZo+sxAVm7IkCAAAECeynw4qYAkAfzbasyVsePArJ2RYAAAQIE9lLgtQ2Ha57Od6FH+58UOmN1PEUwa1cECBAgQGAvBa5tCAB5Tv+2K2Nu+16ArF0RIECAAIG9FPhAw8GaF/bZdmXMbQeArF0RIECAAIG9FPhIw8GaV/jbdmXMbQeArF0RIECAAIG9FPhow8G6KwEga1cECBAgQGAvBW5oCAC78iOArF0RIECAAIG9FHhfQwDYlQcBZu2KAAECBAjspcDbGgLArjwNMGtXBAgQIEBgLwU6XgcgD9bbhRcC8joAe3nJWzQBAgQIROD7Gu4BSADYhZcCztoVAQIECBDYS4G/3xQAEgKmvxlQ1q4IECBAgMBeClxeVbc0hoCpbwecNWftigABAgQI7K3AOxsDwME9ASd5Z8B8bufbAKenrFkRIECAAIG9FvjnzQHg4DEBeWDghd4kKP+Wz+l6+9/0cfAra1YECBAgQGCvBb7w0MF4cEB2/Z6nCOZ1AvJiQXnFwPzKn/Oxjnf8O2odWbMiQIAAAQJ7L/BzC4aAow7lpT6etSoCBAgQIECgqp6wRwEga1UECBAgQIBAVd2pqv7PHoSArDFrVQQIECBAgMBG4Nl7EACyRkWAAAECBAgcErisqj5whkNA1pY1KgIECBAgQOA8gS8/wwEga1MECBAgQIDAEQKvOoMhIGtSBAgQIECAwAUE7llVN56hEJC1ZE2KAAECBAgQuIjA36mqm89ACMgashZFgAABAgQIHFPgiWcgAGQNigABAgQIEDihwA/scAhI74oAAQIECBA4hcAdquqlOxgC0nN6VwQIECBAgMAlCHznwm/Wc9r3BcgbCqVXRYAAAQIECGxJ4PHDHxiYB/ylR0WAAAECBAhsWeDBVfU/Bv5I4DerKr0pAgQIECBAoEng8qp6QVV9YkAQSA8vqqo7N63VsAQIECBAgMB5Ag+sqvesGALeV1VXnteTvxIgQIAAAQILCNyxqr6mqt65YBD4+ap6bFVlbkWAAAECBAisLPDFVfXvm340kLv6X1dVX7LyGk1PgAABAgQIHCGQg/q0T+M76usypiJAgAABAgQGCwgAgzdHawQIECBAoEtAAOiSNS4BAgQIEBgsIAAM3hytESBAgACBLgEBoEvWuAQIECBAYLCAADB4c7RGgAABAgS6BASALlnjEiBAgACBwQICwODN0RoBAgQIEOgSEAC6ZI1LgAABAgQGCwgAgzdHawQIECBAoEtAAOiSNS4BAgQIEBgsIAAM3hytESBAgACBLgEBoEvWuAQIECBAYLCAADB4c7RGgAABAgS6BASALlnjEiBAgACBwQICwODN0RoBAgQIEOgSEAC6ZI1LgAABAgQGCwgAgzdHawQIECBAoEtAAOiSNS4BAgQIEBgsIAAM3hytESBAgACBLgEBoEvWuAQIECBAYLCAADB4c7RGgAABAgS6BASALlnjEiBAgACBwQICwODN0RoBAgQIEOgSEAC6ZI1LgAABAgQGCwgAgzdHawQIECBAoEtAAOiSNS4BAgQIEBgsIAAM3hytESBAgACBLgEBoEvWuAQIECBAYLCAADB4c7RGgAABAgS6BASALlnjEiBAgACBwQICwODN0RoBAgQIEOgSEAC6ZI1LgAABAgQGCwgAgzdHawQIECBAoEtAAOiSNS4BAgQIEBgsIAAM3hytESBAgACBLgEBoEvWuAQIECBAYLCAADB4c7RGgAABAgS6BASALlnjEiBAgACBwQICwODN0RoBAgQIEOgSEAC6ZI1LgAABAgQGCwgAgzdHawQIECBAoEtAAOiSNS4BAgQIEBgsIAAM3hytESBAgACBLgEBoEvWuAQIECBAYLCAADB4c7RGgAABAgS6BASALlnjEiBAgACBwQICwODN0RoBAgQIEOgSEAC6ZI1LgAABAgQGCwgAgzdHawQIECBAoEtAAOiSNS4BAgQIEBgsIAAM3hytESBAgACBLgEBoEvWuAQIECBAYLCAADB4c7RGgAABAgS6BASALlnjEiBAgACBwQICwODN0RoBAgQIEOgSEAC6ZI1LgAABAgQGCwgAgzdHawQIECBAoEtAAOiSNS4BAgQIEBgsIAAM3hytESBAgACBLgEBoEvWuAQIECBAYLCAADB4c7RGgAABAgS6BASALlnjEiBAgACBwQICwODN0RoBAgQIEOgSEAC6ZI1LgAABAgQGCwgAgzdHawQIECBAoEtAAOiSNS4BAgQIEBgsIAAM3hytESBAgACBLgEBoEvWuAQIECBAYLCAADB4c7RGgAABAgS6BASALlnjEiBAgACBwQICwODN0RoBAgQIEOgSEAC6ZI1LgAABAgQGCwgAgzdHawQIECBAoEtAAOiSNS4BAgQIEBgsIAAM3hytESBAgACBLgEBoEvWuAQIECBAYLCAADB4c7RGgAABAgS6BASALlnjEiBAgACBwQICwODN0RoBAgQIEOgSEAC6ZI1LgAABAgQGCwgAgzdHawQIECBAoEtAAOiSNS4BAgQIEBgsIAAM3hytESBAgACBLgEBoEvWuAQIECBAYLCAADB4c7RGgAABAgS6BASALlnjEiBAgACBwQICwODN0RoBAgQIEOgSEAC6ZI1LgAABAgQGCwgAgzdHawQIECBAoEtAAOiSNS4BAgQIEBgsIAAM3hytESBAgACBLgEBoEvWuAQIECBAYLCAADB4c7RGgAABAgS6BASALlnjEiBAgACBwQICwODN0RoBAgQIEOgSEAC6ZI1LgAABAgQGCwgAgzdHawQIECBAoEtAAOiSNS4BAgQIEBgsIAAM3hytESBAgACBLgEBoEvWuAQIECBAYLCAADB4c7RGgAABAgS6BASALlnjEiBAgACBwQICwODN0RoBAgQIEOgSEAC6ZI1LgAABAgQGCwgAgzdHawQIECBAoEtAAOiSNS4BAgQIEBgsIAAM3hytESBAgACBLgEBoEvWuAQIECBAYLCAADB4c7RGgAABAgS6BASALlnjEiBAgACBwQICwODN0RoBAgQIEOgSEAC6ZI1LgAABAgQGCwgAgzdHawQIECBAoEtAAOiSNS4BAgQIEBgsIAAM3hytESBAgACBLgEBoEvWuAQIECBAYLCAADB4c7RGgAABAgS6BASALlnjEiBAgACBwQICwODN0RoBAgQIEOgSEAC6ZI1LgAABAgQGCwgAgzdHawQIECBAoEtAAOiSNS4BAgQIEBgsIAAM3hytESBAgACBLgEBoEvWuAQIECBAYLCAADB4c7RGgAABAgS6BASALlnjEiBAgACBwQICwODN0RoBAgQIEOgSEAC6ZI1LgAABAgQGCwgAgzdHawQIECBAoEtAAOiSNS4BAgQIEBgsIAAM3hytESBAgACBLgEBoEvWuAQIECBAYLCAADB4c7RGgAABAgS6BASALlnjEiBAgACBwQICwODN0RoBAgQIEOgSEAC6ZI1LgAABAgQGCwgAgzdHawQIECBAoEtAAOiSNS4BAgQIEBgsIAAM3hytESBAgACBLgEBoEvWuAQIECBAYLCAADB4c7RGgAABAgS6BASALlnjEiBAgACBwQICwODN0RoBAgQIEOgSEAC6ZI1LgAABAgQGCwgAgzdHawQIECBAoEtAAOiSNS4BAgQIEBgsIAAM3hytESBAgACBLgEBoEvWuAQIECBAYLCAADB4c7RGgAABAgS6BASALlnjEiBAgACBwQICwODN0RoBAgQIEOgSEAC6ZI1LgAABAgQGCwgAgzdHawQIECBAoEtAAOiSNS4BAgQIEBgsIAAM3hytESBAgACBLgEBoEvWuAQIECBAYLCAADB4c7RGgAABAgS6BASALlnjEiBAgACBwQICwODN0RoBAgQIEOgSEAC6ZI1LgAABAgQGCwgAgzdHawQIECBAoEtAAOiSNS4BAgQIEBgsIAAM3hytESBAgACBLgEBoEvWuAQIECBAYLCAADB4c7RGgAABAgS6BASALlnjEiBAgACBwQICwODN0RoBAgQIEOgSEAC6ZI1LgAABAgQGCwgAgzdHawQIECBAoEtAAOiSNS4BAgQIEBgsIAAM3hytESBAgACBLgEBoEvWuAQIECBAYLCAADB4c7RGgAABAgS6BASALlnjEiBAgACBwQICwODN0RoBAgQIEOgSEAC6ZI1LgAABAgQGCwgAgzdHawQIECBAoEtAAOiSNS4BAgQIEBgsIAAM3hytESBAgACBLgEBoEvWuAQIECBAYLCAADB4c7RGgAABAgS6BASALlnjEiBAgACBwQL/sarObflXxlQECBAgQIDAYIG3bfnwT5jImIoAAQIECBAYLPDuhgCQMRUBAgQIECAwWOC6hgCQMRUBAgQIECAwWOCDDQEgYyoCBAgQIEBgsMCHGgJAxlQECBAgQIDAYIFbGgJAxlQECBAgQIDAUIE7NRz+B08pzNiKAAECBAgQGChw98YAkLEVAQIECBAgMFDg3o0BIGMrAgQIECBAYKDAAxoDQMZWBAgQIECAwECBBzcGgIytCBAgQIAAgYECD2sMABlbESBAgAABAgMFHtsYADK2IkCAAAECBAYKXNUYADK2IkCAAAECBAYKPK0xAGRsRYAAAQIECAwU+N7GAJCxFQECBAgQIDBQ4F82BoCMrQgQIECAAIGBAj/aGAAytiJAgAABAgQGCryyMQBkbEWAAAECBAgMFHh9YwDI2IoAAQIECBAYKPD2xgCQsRUBAgQIECAwUODdjQEgYysCBAgQIEBgoMB1jQEgYysCBAgQIEBgoMD/bAwAGVsRIECAAAECAwX+oDEAZGxFgAABAgQIDBT4eGMAyNiKAAECBAgQGCZwWePhf24zduZQBAgQIECAwCCBuy8QADKHIkCAAAECBAYJ3HuBAJA5FAECBAgQIDBI4AsXCACZQxEgQIAAAQKDBB6yQADIHIoAAQIECBAYJPDVCwSAzKEIECBAgACBQQKPWyAAZA5FgAABAgQIDBK4aoEAkDkUAQIECBAgMEjgaQsEgMyhCBAgQIAAgUECz14gAGQORYAAAQIECAwSeMECASBzKAIECBAgQGCQwEsXCACZQxEgQIAAAQKDBF61QADIHIoAAQIECBAYJHD1AgEgcygCBAgQIEBgkMDbFwgAmUMRIECAAAECgwR+YYEAkDkUAQIECBAgMEjgVxcIAJlDESBAgAABAoME/tcCASBzKAIECBAgQGCQwIcXCACZQxEgQIAAAQKDBG5dIABkDkWAAAECBAgMEbhsgcP/3GaOzKUIECBAgACBAQL3WDAAZC5FgAABAgQIDBD4vAUDQOZSBAgQIECAwACBBy4YADKXIkCAAAECBAYIPHTBAJC5FAECBAgQIDBA4OELBoDMpQgQIECAAIEBAo9bMABkLkWAAAECBAgMEHjSggEgcykCBAgQIEBggMC3LxgAMpciQIAAAQIEBgg8Z8EAkLkUAQIECBAgMEDghQsGgMylCBAgQIAAgQECP7ZgAMhcigABAgQIEBgg8KoFA0DmUgQIECBAgMAAgasXDACZSxEgQIAAAQIDBH52wQCQuRQBAgQIECAwQOAXFwwAmUsRIECAAAECAwSuXzAAZC5FgAABAgQIDBC4YcEAkLkUAQIECBAgMEDgwwsGgMylCBAgQIAAgQECty4YADKXIkCAAAECBFYW+PQFD/9zm7kypyJAgAABAgRWFLjnCgEgcyoCBAgQIEBgRYH7rBAAMqciQIAAAQIEVhR40AoBIHMqAgQIECBAYEWBh64QADKnIkCAAAECBFYUePgKASBzKgIECBAgQGBFgcevEAAypyJAgAABAgRWFPjmFQJA5lQECBAgQIDAigJPXyEAZE5FgAABAgQIrCjw3BUCQOZUBAgQIECAwIoCL1whAGRORYAAAQIECKwo8GMrBIDMqQgQIECAAIEVBV69QgDInIoAAQIECBBYUeCnVggAmVMRIECAAAECKwpcs0IAyJyKAAECBAgQWFHgPSsEgMypCBAgQIAAgRUFrl8hAGRORYAAAQIECKwocMMKASBzKgIECBAgQGBFgT9cIQBkTkWAAAECBAisKPCJFQJA5lQECBAgQIDASgKXr3D4n9vMmbkVAQIECBAgsILAFSsGgMytCBAgQIAAgRUE7rNiAMjcigABAgQIEFhB4EErBoDMrQgQIECAAIEVBP7uigEgcysCBAgQIEBgBYFHrBgAMrciQIAAAQIEVhD42hUDQOZWBAgQIECAwAoC37JiAMjcigABAgQIEFhB4OkrBoDMrQgQIECAAIEVBJ67YgDI3IoAAQIECBBYQeBFKwaAzK0IECBAgACBFQT+9YoBIHMrAgQIECBAYAWBn1gxAGRuRYAAAQIECKwg8IYVA0DmVgQIECBAgMAKAtesGAAytyJAgAABAgRWEHjPigEgcysCBAgQIEBgBYH/vmIAyNyKAAECBAgQWEHgt1cMAJlbESBAgAABAisI3LRiAMjcigABAgQIEFhB4BMrBoDMrQgQIECAAIGFBS5f8fA/t5k7PSgCBAgQIEBgQYErBgSA9KAIECBAgACBBQXuOyAApAdFgAABAgQILCjwNwcEgPSgCBAgQIAAgQUFvnRAAEgPigABAgQIEFhQ4JEDAkB6UAQIECBAgMCCAl87IACkB0WAAAECBAgsKPAtAwJAelAECBAgQIDAggLfMSAApAdFgAABAgQILCjwzwYEgPSgCBAgQIAAgQUFfnBAAEgPigABAgQIEFhQ4GUDAkB6UAQIECBAgMCCAj8xIACkB0WAAAECBAgsKPCGAQEgPSgCBAgQIEBgQYH/PCAApAdFgAABAgQILCjwXwYEgPSgCBAgQIAAgQUFfm1AAEgPigABAgQIEFhQ4HcGBID0oAgQIECAAIEFBW4aEADSgyJAgAABAgQWFLhtQABID4oAAQIECBBYSODOAw7/c5se0osiQIAAAQIEFhD47EEBIL0oAgQIECBAYAGB+w0KAOlFESBAgAABAgsIXDkoAKQXRYAAAQIECCwg8KWDAkB6UQQIECBAgMACAo8cFADSiyJAgAABAgQWEHjCoACQXhQBAgQIECCwgMCTBwWA9KIIECBAgACBBQSeMSgApBdFgAABAgQILCDwvEEBIL0oAgQIECBAYAGBHxwUANKLIkCAAAECBBYQeNmgAJBeFAECBAgQILCAwGsGBYD0oggQIECAAIEFBN44KACkF0WAAAECBAgsIPCOQQEgvSgCBAgQIEBgAYH3DgoA6UURIECAAAECCwj8+qAAkF4UAQIECBAgsIDA7wwKAOlFESBAgAABAgsI/NGgAJBeFAECBAgQILCAwG2DAkB6UQQIECBAgECzwF0GHf7nNr2kJ0WAAAECBAg0CtxrYABIT4oAAQIECBBoFLj/wACQnhQBAgQIECDQKHDlwACQnhQBAgQIECDQKPD3BgaA9KQIECBAgACBRoFHDQwA6UkRIECAAAECjQJfNzAApCdFgAABAgQINAo8ZWAASE+KAAECBAgQaBR45sAAkJ4UAQIECBAg0CjwvIEBID0pAgQIECBAoFHgxQMDQHpSBAgQIECAQKPAywcGgPSkCBAgQIAAgUaB1w4MAOlJESBAgAABAo0CbxoYANKTIkCAAAECBBoFrh0YANKTIkCAAAECBBoF3jswAKQnRYAAAQIECDQK/PrAAJCeFAECBAgQINAo8LsDA0B6UgQIECBAgECjwB8PDADpSREgQIAAAQKNArcPDADpSREgQIAAAQJNAncdePif2/SU3hQBAgQIECDQIHCvwQEgvSkCBAgQIECgQeD+gwNAelMECBAgQIBAg8AXDQ4A6U0RIECAAAECDQJfNjgApDdFgAABAgQINAg8enAASG+KAAECBAgQaBB44uAAkN4UAQIECBAg0CDwlMEBIL0pAgQIECBAoEHgmYMDQHpTBAgQIECAQIPA9w0OAOlNESBAgAABAg0CLxkcANKbIkCAAAECBBoEXjE4AKQ3RYAAAQIECDQI/OTgAJDeFAECBAgQINAg8KbBASC9KQIECBAgQKBB4NrBASC9KQIECBAgQKBB4JcGB4D0pggQIECAAIEtCNypqv5aVeVldr+jqj40OACkt/SYXtNzelcECBAgQIDAEQI5KP9qVT1qc4C+tKreVlW/VVW3DT7wz12kt/SeNWQtWVPCQdYoHBxxIfgwAQIECJxdgbtV1cOr6vlV9daq+s0dP+QvFgKO+veEg6w9BrGISWwUAQIECBA4EwL3rapvrKqXV9V1VXX7RW41H3Vg7sPHYxOjWMUsdooAAQIECIwXuKyqHlxV31VVV1fVjQ77utTgEsNYxjS2MVYECBAgQGB1gb9QVf+kqt5cVTc78C/5wL9YYIhxrGMee0WAAAECBBYT+PNV9Y+r6o1VdYtDv/3QPyoUxD57kL3InigCBAgQILB1gc+oqq+vqje4pb/agX9UEMjHc89A9iZ7lL1SBAgQIEDg1AKXV9UTq+qnHPojD/2jAkHCQPYse5c9VAQIECBA4FgCuTv5uz2Ib6cO/aPCQB5EmL30I4JjXfo+iQABAvspcEVV/YuqusnP9c/E4X84FGRPs7fZY0WAAAECBD4p8Feq6ker6mMO/jN38B8OAflz9jh7nT1XBAgQILCnAp9fVa+qqlsd/Gf+4D8/CGTPs/e5BhQBAgQI7InA51bV66vqzxz8e3fwnx8Ecg3kWsg1oQgQIEDgDAvkJWb9jL/2/uA/Pwjkmsi1oQgQIEDgjAnkwV95Sdnzv/H7O5PD10CuEQ8UPGP/+S2HAIH9Ffiaqvo9h7/wc8xrINdKrhlFgAABAjsqkLeXzQO9Dt/C82cex70Gcu14i+Id/c+vbQIE9lfgK6vqBoe/8HOJ10CuoVxLigABAgR2QOCpHuHv4L/Eg//wvQR5pkCuKUWAAAECgwWeu8Vv/IcPAX/2o4NcW4oAAQIEBgq85Awe/h+pql+sqn9bVX+8A+tLj+k1Paf3sxacco0pAgQIEBgk8MIdP2zy3va/UlWvqarvqapHV9W9q+oOh4z/YAfWmB4PKr1nDVlL1pS1ZY1Z6y4Hg1xrigABAgQGCOQFXHbtQMlTzf5DVX1rVX1BVX3aMRw/vgPrTI8Xq6w1a87aY7CLT9H0okEX22X/ToAAgWaBh+7ILcoPbV5y9p9uDr+Tsly2A4f/QQhLryetBILY5GV5Y3Uw1tTfcy9Grj1FgAABAisI/MXhtx5/uaq+t6oeeN5d+aehuscOHIoHh3V6vZTKjw5iFrsYHow77ffcc5FrUBEgQIDAwgKvG3g4vL+qnl1V99uyxecNXOtRB3J63WbFMqaxPWrOtT6ea1ARIECAwIICjxh0GFxfVc+pqvs3rj+3iNc65E46b3rtqhjHOuYn7avr83MtKgIECBBYQOAuVfXBlQ+AvDjMz1TVVy2w3kyRnzd3HWDbHnepn43HPnuw9ts651rMNakIECBAoFngWSsehh+rqn9TVZ/fvMbzh3/4ims+aUBIr0tW9iJ7kr05aa/b+vxck4oAAQIEGgX+3Eqv8f8nVfX9VXXPxrVdaOgvX/FwO+khmV7XqOxN9ih7ddKeL/Xz854BuTYVAQIECDQJPGHhb+65e/mVVfWXmtZz3GEz/6UeUkt9/QSr7NnSPxrItakIECBAoEngFxY8CH++qr64aR2nGXZXXgr4NGvr+JrsXfZwqeCTa1MRIECAQIPA5yz0zfyjVXVVQ/+XOuR7F1r/pRyY6XFaZS+zp5eyruN+ba5RRYAAAQJbFvj6Bb6J5xHdD9py39sa7ocWWP9xD7qjPi89Tqzs6RLPHMk1qggQIEBgywKvaD4Af7aq7r7lnrc53N2q6saLgtNjAAAHx0lEQVRmg6MO9uN8PL2lx6mVvc0eH2ctp/2cXKOKAAECBLYs8GuN37yvPuYb8mx5SScebol7QU57+O3Crd+8EVH2+rRrvNjX5RpVBAgQILBFgTzFqutR3ddV1V232Gv3UNc0HmAXO+CO+vf0tCuVvc6eH7WWS/l4rlFPB9yVK0GfBAjshEDedOVSvjEf9bUfrqr77ITA/2/ys6pq0vsgpJf0tEuVPc/eH3VdXMrHvUHQLl0JeiVAYLxAHsR1Kd+Uj/raHx6/8qMbfGJV/WGTy1Fehz+eudPDrlb2/vB6tvXnqQ8i3dV90jcBAnsu8LCmb9ZfseOuedrZi6vq5xZ6Bby8yl7mypy7/pS37P22Dv3D4+RaVQQIECCwJYF/1PTN+izdXXvHqnpAVT1+c8s8t8639StjZuzMcVaq68dKuVYVAQIECGxJoOvd8J62pf4Ms3sC2fvDt9y39eel3g1x98R1TIAAgVMI5EFb2/oGfXicia9cdwoeX3IKga5XVty1B5Wegs6XECBAYDmBy5sCQMLAVy63DDMNEcieHw6C2/xzrlVFgAABAlsUuKnpm3Ye2PbgLfZpqNkC2euutwzONaoIECBAYMsC728KALn1l2/cV265X8PNE8gedwXJXEe5RhUBAgQIbFngBY0BIN+8f3/zSPctt224IQJ5FkP2eJt3958/Vq5RRYAAAQJbFnhI8zfvfDPP28Y+44w93W3L27Bzw+Wpi9nTJd4SONeoIkCAAIEtC+Qb+e8tEAISBN5dVX99y/0bbnmB7GH28vxb6h1/z7V5ll4nYfndMiMBAgQuIPDKhb6Z54C4uaq+Z0feJfACZHv5T3nXv+xd9rDjsP9UY+baVAQIECDQJND18q2f6hv6wcfeV1WPbFqPYbcvkL3Knh3s31K/7/rLSm9/J4xIgACBLQu8Y4Vv7jlE/ltVfYN7BLa8m9sZLrf487LH/3Wla+Pa7SzDKAQIECBwIYE8j3upW3Wfap4PVtVTq+rOF2rSvy0ikBfd+daq+q2Vrwkv/7vIdpuEAAECVW9e+Rt+gkEe9PWcqrqnDVlc4O6bn/HfOOA6+OnFV29CAgQI7LHAA6vqEwO++ScIpI+3V9WTqyoHk+oR+Kyq+uaqemtV3Tpk72+rqi/qWa5RCRAgQOAogWcNOQQO/5ggB9PPVNWTquozj2rcx48tEMOrqiq3sqcc+of3O/cAKQIECBBYWOAOVfWWgSHg4ID4eFX9p6r6JmHgRFdGDv1v3OxtDA88p/2eoJdrUBEgQIDACgK5y/2GwYfEwaF1e1VdV1Wv2Bxu913BauqUsciB//KNUawO3Kb+/ttVdY+poPoiQIDAvgjk5Vcn31I86hD7v1V1dVV91+bdCC/bgw3LGvMsjqw5a4/BUT5TP55rzUv+7sHFaokECOyGwD+sqlt28DA5fMjlVeveVVU/UlXfXlVZ0xfs6NMN8xTJ9J41ZC1ZU9a25CvzHbbd1p9z+D9mN/5L6JIAAQL7I5BXgNv1A+aogypPd8tr2r+mqp6/eZDhl1XVX17p9efzmveZOz3kAY/pKb2lxwlPzTvK8VI+noD56P3572SlBAgQ2C2Bh1XVx3b8noCTHlK5VZq70vMCRb9aVe+pqrwyXR4g+bqq+vGqemlVvaiqnldV37l58Zz83D2/8kI6+Vj+LZ+Tz83X5GszRsbKmBk7c2SuXfyRy0ldD39+Dv9H7dZ/Bd0SIEBg/wT+QVX90Z6FgMOHlT9v93EFf1JVj9i//0ZWTIAAgd0UuP+KrwvvAN7uAbym5/VV9Td287+ArgkQILC/Ankg2r9zT8DOPcp+zQP/8Nyvrqq77O9/HysnQIDA7gvkJXrP6oMDDx9Y/rydex5yrTxl9y97KyBAgACBCDygqt7p3gD3BlzkGsg1kmtFESBAgMAZE8jryv/+RQ4Bt6S3c0t6lxxzTeTaUAQIECBwhgXyrnJ52dldeMnZXTpEd7HXXAO5FnJNKAIECBDYE4G/tXnnvl08uPR86fdS5M18cg0oAgQIENhTgb+9edc+h+qlH6q7YJh3aMyeKwIECBAg8EmB3Bp8k8cHnNkHCmZv3eL3n50AAQIEjhTIo8BfUlX/WxjY+TCQPcxeemT/kZe7fyBAgACB8wXyhjd5b4G8yc2fCgM7EwayV9mz7F32UBEgQIAAgVMLfEZVfVNVXePZAyODQB7Nn73JHmWvFAECBAgQ2LrA51TVd2/eHW8XHvR2lnvMOxRmL7InigABAgQILCZwZVX9q6r6XT8iWOyegVjHPPaKAAECBAisLpB3IHxSVf14Vf2GQLC1QBDLmMY2xooAAQIECIwW+OyqemxV/XBV/VJV3SYUXDQUxChWMYtdDBUBAgQIENhpgTw47auq6geq6h1V9VGB4JMGsYhJbDyAb6cvcc0TIECAwHEE7lRVX7K5a/v5m6euvbuqbjyDwSBrytry9LysNXfnZ+0xUAQIECBAgMBG4C6bF695TFU9vap+pKreXFXXD73nIPdmpLf0mF7Tc3rPC/BkLYoAAQIECBDYgsC9quohVfW4zXPfn1pVz6qq79+88t3LqurVVfX6qnprVeV97t+/eXBiHkV/U1XduvmVP+djebBdPiefm6/J12aMjJVX08vYmSNz5fn2mTs9pBdFgMCOCfw/23m/IerCb2YAAAAASUVORK5CYII=;" parent="1" vertex="1">
          <mxGeometry x="338" y="260" width="62" height="62" as="geometry" />
        </mxCell>
        <mxCell id="8yuOUE8DRb-jMOZw8tpv-5" style="edgeStyle=orthogonalEdgeStyle;rounded=0;orthogonalLoop=1;jettySize=auto;html=1;exitX=1;exitY=0.75;exitDx=0;exitDy=0;entryX=0;entryY=0;entryDx=0;entryDy=15;entryPerimeter=0;" parent="1" source="8yuOUE8DRb-jMOZw8tpv-1" target="8yuOUE8DRb-jMOZw8tpv-4" edge="1">
          <mxGeometry relative="1" as="geometry">
            <Array as="points">
              <mxPoint x="240" y="228" />
              <mxPoint x="240" y="327" />
            </Array>
          </mxGeometry>
        </mxCell>
        <mxCell id="8yuOUE8DRb-jMOZw8tpv-7" value="Bluetooth" style="text;html=1;align=center;verticalAlign=middle;resizable=0;points=[];autosize=1;strokeColor=none;fillColor=none;" parent="1" vertex="1">
          <mxGeometry x="182" y="190" width="70" height="30" as="geometry" />
        </mxCell>
        <mxCell id="8yuOUE8DRb-jMOZw8tpv-8" value="ComPort" style="text;html=1;align=center;verticalAlign=middle;resizable=0;points=[];autosize=1;strokeColor=none;fillColor=none;" parent="1" vertex="1">
          <mxGeometry x="182" y="441" width="70" height="30" as="geometry" />
        </mxCell>
        <mxCell id="8yuOUE8DRb-jMOZw8tpv-28" style="edgeStyle=orthogonalEdgeStyle;rounded=0;orthogonalLoop=1;jettySize=auto;html=1;entryX=0;entryY=0.5;entryDx=0;entryDy=0;" parent="1" target="8yuOUE8DRb-jMOZw8tpv-10" edge="1">
          <mxGeometry relative="1" as="geometry">
            <mxPoint x="787.0000000000001" y="159.99999999999997" as="sourcePoint" />
            <mxPoint x="880.0000000000001" y="248.00000000000006" as="targetPoint" />
            <Array as="points">
              <mxPoint x="840" y="160" />
              <mxPoint x="840" y="240" />
              <mxPoint x="890" y="240" />
            </Array>
          </mxGeometry>
        </mxCell>
        <mxCell id="8yuOUE8DRb-jMOZw8tpv-9" value="" style="shape=image;verticalLabelPosition=bottom;labelBackgroundColor=default;verticalAlign=top;aspect=fixed;imageAspect=0;image=data:image/png,iVBORw0KGgoAAAANSUhEUgAAAgAAAAIACAYAAAD0eNT6AAAAAXNSR0IArs4c6QAAIABJREFUeAHt3Qe4PFVh9/GfiiWKGrBg74XYxV6DFY1RYwsaiUpUoqJJsGHvhdhiLIlGwU4Qu2AlSmJJLCiKmiCCBVFssYud932+eobsf9ndu3fn7Mzs7neeZ597797dKZ9T58wpiZsCCiiggAIKKKCAAgoooIACCiiggAIKKKCAAgoooIACCiiggAIKKKCAAgoooIACCiiggAIKKKCAAgoooIACCiiggAIKKKCAAgoooIACCiiggAIKKKCAAgoooIACCiiggAIKKKCAAgoooIACCiiggAIKKKCAAgoooIACCiiggAIKKKCAAgoooIACCiiggAIKKKCAAgoooIACCiiggAIKKKCAAgoooIACCiiggAIKKKCAAgoooIACCiiggAIKKKCAAgoooIACCiiggAIKKKCAAgoooIACCiiggAIKKKCAAgoooIACCiiggAIKKKCAAgoooIACCiiggAIKKKCAAgoooIACCiiggAIKKKCAAgoooIACCiiggAIKKKCAAgoooIACCiiggAIKKKCAAgoooIACCiiggAIKKKCAAgoooIACCiiggAIKKKCAAgoooIACCiiggAIKKKCAAgoooIACCiiggAIKKKCAAgoooIACCiiggAIKKKCAAgoooIACCiiggAIKKKCAAgoooIACCiiggAIKKKCAAgoooIACCiiggAIKKKCAAgoooIACCiiggAIKKKCAAgoooIACCiiggAIKKKCAAgoooIACCiiggAIKKKCAAgoooIACCiiggAIKKKCAAgoooIACCiiggAIKKKCAAgoooIACCiiggAIKKKCAAgoooIACCiiggAIKKKCAAgoooIACCiiggAIKKKCAAgoooIACCiiggAIKKKCAAgoooIACCiiggAIKKKCAAgoooIACCiiggAIKKKCAAgoooIACCiiggAIKKKCAAgoooIACCiiggAIKKKCAAgoooIACCiiggAIKKKCAAgoooIACCiiggAIKKKCAAgoooIACCiiggAIKKKCAAgoooIACCiiggAIKKKCAAgoooIACCiiggAIKKKCAAgoooIACCiiggAIKKKCAAgoooIACCiiggAIKKKCAAgoooIACCiiggAIKKKCAAgoooIACCiiggAIKKKCAAgoooIACCiiggAIKKKCAAgoooIACCiiggAIKKKCAAgoooIACCiiggAIKKKCAAgoooIACCiiggAIKKKCAAgoooIACCiiggAIKKKCAAgoooIACCiiggAIKKKCAAgoooIACCiiggAIKKKCAAgoooIACCiiggAIKKKCAAgoooIACCiiggAIKKKCAAgoooIACCiiggAIKKKCAAgoooIACCiiggAIKKKCAAgoooIACCiiggAIKKKCAAgoooIACCiiggAIKKKCAAgoooIACCiiggAIKKKCAAgoooIACCiiggAIKKKCAAgoooIACCiiggAIKKKCAAgoooIACCiiggAIKKKCAAgoooIACCiiggAIKKKCAAgoooIACCiiggAIKKKCAAgoooIACCiiggAIKKKCAAgoooIACCiiggAIKKKCAAgoooIACCiiggAIKKKCAAgoooIACCiiggAIKKKCAAgoooIACCiiggAIKKKCAAgoooIACCiiggAIKKKCAAgoooIACCiiggAIKKKCAAgoooIACCiiggAIKKKCAAgoooIACCiiggAIKKKCAAgoooIACCiiggAIKKKCAAgoooIACCiiggAIKKKCAAgoooIACCiiggAIKKKCAAgoooIACCiiggAIKKKCAAgoooIACCiiggAIKKKCAAgoooIACCiiggAIKbLbAzkl2SXKZJJdPcp0kN0hy6yR3SHKPJPdNsl+SRyQ5MMmzkzwnycuTHJLk8CTvTHLU2Os/khwz4XVCkpPGXicn+f6E16+T/L+xF+9N+iz7GN8vx5p0Dpzb+PlyDVwL18S1cY1cK9fMtWOABSbYYIQVZthhiCWmbgoooIACClQXOGuSXZNcrhQ+t0xy1yT7JjkgyVOTvDDJq5O8PcnRSY4thePXS+H587FCdbyQ9e8zVzy2a3JasW4qJp8uYfG2EjaE0VNKmBF2hCFhuUcJW8KYsHZTQAEFFFgzgQskuXKSmyS5c5L7J3lUkmcmeUmS1yc5IsmHk3wuCQXJjy24z9QisN2CedU+T5gT9seVuECceF2JI88ocYa4QxwiLhGnqDy4KaCAAgp0JHCuJJdOcqMkf5Zk/3KHR2H+xnL3R0F+apJJTdurVjB5vu1bCZZpSBwjrhHnaAUiDhIXaXV4SKkwEFeJs8RdNwUUUECBMQEyR57x3jzJPuV58AvKHfoHk3yhNPUuMzN338MubNchfOhXQVwmTtP6RByn78O9k9yspAErCmOZg38qoMDqCpCh7Z7kNqWD1xOTvKw0vX8myXdsct+4Jvd1KMyXeQ2kCdIGjyL+OQlphs6RpCHSkpWE1c0PPXMF1krgnKVDFT226cVN8yc9vOkBTo/x31rAW8AbB6rHAVoTGH3BqIp/LCMpGD3BiInzrVUO48UooECvAruVzk/3SfK0JG9I8jHv3qtn6su8q3Tfm/WI49sljZJWGbVC2r1xEtKymwIKKLCDwIXLM/gHJvn7JG8uzZA/8e7Ngt44sFZxgFEPDFsljR+UhDRP/5sL7ZAj+IcCCqyVwE4jzfV/O9JUT09m7xA1MA4YB34w8miBx3nNYwX7HaxVUeDFrLMABf1VSuKlyZ6a/vFJfmVBb0XHOGAcWCAOkHeQh5CX8EiBisEfJSGvcVNAgR4EzlLu6O+U5LFJDk3y2SS/XCCBe/fn3Z9xwDiw3ThAXsOIBfIe8iDyImbQJG9yU0CBSgLUtK9aOvPw3I4hQt+zoPduzjhgHBhgHKCfwUfKY0YeN97U4YuVSgJ3s/YC5y697h+a5OAkn/Ku3kx+gJn8du8W/fxmtzDQWkBe9sok5G1Mq0xe56bAxgqcbeTOnvG81Jptwt/sjNKC0vDflDjwmzI74muTNC0F59jY0sALX3sBljS9V5kGlEVofuadnXf3xgHjgHHgjDhAnkje+Pwk9yxrKax9weAFrp9Ac3fPDHnUcL9iIj8jkW/KHY7X6d28caB9HPhm6fd0YOlPYCvB+pWXK39F502yVxkm84EkTqLTPuGbeWpoHDAOjMcB8tZ/K3kteS55r5sCnQrQgYU58Jkwg7nvfXZvRjWeUfm3ccI4sPw4QF8C1kZghNQdk5y/05LAg22EAEPxWGyDZigK/F/YpG+TvnHAOGAcGFwc+PVIhYCbtD/YiBLKi6wqwGQW1y4TXByd5Ocm9MEl9FW4u6K5ktXbvpzkSyVj+s9SiXxnWdGN4Z6sosg6DM8slcwDygqL+5SZ125XWpzI0JrXdUullIpp82IWSCZjGX3R+XSXCa+zT0gxvDfps+xjdJ/8zrGa4zY/Oafm/JqfnDuzx3Et9Inh2qhIc61cM9eOAavbYUIFGyPu6jDDDkMfqy3/bnoV0tR2z5G8+4NJHpPkWk5UNCHV+9bvBHZN8udJXpXEOfI3O7P5UZKvldkVP1QKJjpzvijJ05M8Isn9k9ytFHgUgJdPcslSgDp/+vIyFWyppGCNOfZUNu5ewoSwIYwIK8KMSgVhyEyZhClhu91CxM+vjxmdCg8peT3xyG1DBbjL547lCUk+moRnSSb09TE4PQlLo36+3AGwPOoLS+ch7kL3TXKXJLdMske5wyVDcCrT9c8QzloqEbRkEPbEgbuWOEHcYM575uZgmltaAIlDxCXilHnE+hiQ5zP/CmUAFUnT/pqnfYbnMTUlifsUE/NKZmY0B3+hJFyajQlLOmPSvEwnIMKXjH1SE/eaR28vrwMBKolMzU0849EGk9gQ/3iUwTTdFCgn2TF4JfOW75RWI/IRhxt2kJi6OAQ99rnTozmQwsMa/PAMWIqUu6z3lOfB3IExZSjNujdLsnu5Y+sivngMBWoJUFkg7t68VBaI08Rt+jwQ14nzxH3zpOEZ/G+S1yT5M6ctrpUcutsPY0PpdPRWZ9zrPXMhg2PVsHckeUmSx5WFjWh2JXN0TvDu0oVHGqYAaYC0QJq4T0kjpBX6L9B34YdWEnrNx5ih8C1J7p1k52FGIc+K5n06A3Gnb4/h7mrUTZM8vbdpBqWHN02jPFOzk43pUoE6Agxn49EWeRyPuxj3ziOw5pGD/RO6yfMYVcCjHvI4HxPUidut9kJBw3NgOunYlLYcAwp5hmVRuRot4M/XKuT8sgIK1BI451gFgTyRSjn9EezgvLx8kTyRSpkdCGvF5Dn2c+kkTytjhC3060Tuk0uG8dIkD0ty+yRXspY7R2z0IwoMW4A7VdIyaZq0TRpnOl3SvPlnHQPmq6B/B2WT2xIEmI2PznzvTvJbI+5CCfe0JMcmOaxEVlYnZBiUz7WWEGHdpQIrIEDapxWVvICbqjeWPIK8wsrB9g0om96V5M5JKLPcWgpcvDQ7M4mHEXI+g1+VoXI8I2SIEs+rGLpEPwk3BRRQYB6Bi5XmbYY60tTNY0ArBvPlwZRVTDpEX43LzoPtZ3YUuG0ZKuPd/vQIR8efE5O8OcmTy7A5ehNb89wxLvmXAgrUESBv+aOS13BzQe94+hnYCXF6Pt20CtBXwG2GAJO3cLf6Ce/2z9TawSIXTIDTdMRjsooLzrD0XwoooEBXAnQIZnIkRijQAZHRCa6hcuZKAUOiGerpRGUjMZPI88gkX7fg/13Bz/LCVIIYC3y/soiFEWYkwvirAgoMXoDOhyyqxrTbdDwkT3Pp9N9XCuiAyboVGz2SigV4nr3hC3TQPMSd/auT7J/keva8H3zG5gkqoMBiAgxXvH7J68jzyPs2+TEvkzyxMiZl4cZs1Hp4Zr2JK3Mxpp5eoo9PsmcSZi10U0ABBTZVgDzwFiVPJG/cxOmRqQg8ad3LA6a8pEfptzaoqZ+eoPTG57oZbsNKZG4KKKCAAtMFmPWQZ+XMLkorwaZ0MvxeGfW2VlOkM/zsQUlO3YCCn8jK8y4Wsrno9PjtfxRQQAEF5hQgLyVPJW8lj133IeHcONKhcuVvGLnr/dgaBxhDYOiZT2Bdcs7I7McUUEABBRYXuHAZMcaIA+YnWNcWgk8nufHiTP1980Jl2ct1C5hTkhyS5C+TMEmRmwIKKKBAvwKXKHnyq5J8Y81uOOkk+coklKmD31gU4SFJ6Oy2Ds00zKp3dHkuc43B63uCCiigwGYLUAZds+TZ/56EPHwdyiLK1AcPeeGhi5Qe7quOTSdFmvWZlOgPNzstefUKKKDASgucp0xpzOOCdZhSnoWcaPEY1MZiEqt8188MTUxtSc3RTQEFFFBgPQWuVRZD++wKtwxQ1u49hOA5f7lbXrW7fp6r0HmEQv/KQ4D0HBRQQAEFOhW4TBmifVQSpltftXKMIea9TSJ0tSSsg7wqaBT6PM+nx/5unUYzD6aAAgooMGQBHmEzXJ1+A6s0OyELwl2la9jbJ2H2olUo/Bk3yp2+yzJ2HUs8ngIKKLB6AozwYvI2FjVahTLuJ0nu3BXzo1eghsT4/KeXpSu7cvE4CiiggALrJcDd9TNWoLX7N2VRvaXpM6PfwQOuEbH85KFJbjnkoRJLCx13rIACCiiwLAGGF94qyb8m+cWAy8FXLGMGQaYkZPWmITaH/E8Z87kSEyUsK3a6XwUUUECBTgQYHk5fMkaPDbFMZEKkatMIsyN2OKQLZXIHamI36iS4PYgCCiiggAJnFrhJkjcOcBQBswe2rgSwgyE1+zP+8SDn3T9zLPQdBRRQQIHeBC6V5DkDW86YxwE8ulh4o/f8EO786dTHFMPM6uSmgAIKKKDAEAV2TrL/gDoNPnFRpD8dQG9/5hngWcvZF70Iv6eAAgoooEDHApRZ90nyxZ5vopnT4A7bvfYr9NyUcXxZ3YmRB24KKKCAAgqsosBOA6gI8Oj88vPinTPJcT3VWliI56+TgOamgAIKKKDAOghQprGa37d7KltZ++Ac80A+vocT/GUSVmtibQE3BRRQQAEF1lGAfmz0rTuth3L2MVuB0pPxZx2f2DuTcFw3BRRQQAEFNkHg0kmO6Lis/elWI+je0uEJnVqejWxCYHuNCiiggAIKjAvcMcnXOyx3WUFw4nbzDk/iNTb3TwwD31RAAQUU2CwBZhZ8XYfl700n8b67gxP4cZJ9Jh3c9xRQQAEFFNhggXt0NPqOx+47bFdMcvqSKwCf285QhB3Ozj8UUEABBRRYfwGG4H9+yWUxZf0OwwJZ7nCZM/69zyb/9Y+5XqECCiigQGuB8yY5csllMiMRztiWOVvRIUmc0OcMan9RQAEFFFBgpgDzBixzBV5W0f3ddrkl1jS4gNYrEjUn6k8FFFBAAQU2RICykw7zy2qdp+zP/Zd0AMY4eue/ITHVy1RAAQUUqC5AGfquJZXR9+VsX7qEnZ+QhKENbgoooIACCiiwuABl6ZeWUE6/mFM6egk73nPxa/WbCiiggAIKKDAicLMljNT7N/Z/UuUKwFtHTtpfFVBAAQUUUKC9wNsrl9W0KuRHlXd6+/bX6R4UUEABBRRQYETgDpXL6h+w719X3ukuIyfsrwoooIACCijQXmDXymX1rzil2kMMXNK3fUC7BwUUUEABBUYF6AxYu7yuvsPbjJ6xvyuggAIKKKBAa4G9VqECcGjry3QHCiiggAIKKDAqcNgqVAB+m+Tao2ft7woooIACCiiwsMB1k1C2Dv4RACfIakbnXvhS/aICCiiggAIKIHCuJJ9dQuFPWV29RtHUUJjD+CyGnwIKKKCAAgosJEAZ+rolltNLqwBQEXjOQpfslxRQQAEFFFDgeUss/JfaAtC0BPyjKwIaixVQQAEFFJhbgDt/bqCbcnRZP5d+AE6cZYHPMfel+0EFFFBAAQU2U4Cy8rUdFP6UzZ1UADjQJ5NcejPD06tWQAEFFFBgS4GLJ/nPDsvlzioAVAJOTXKrLQn8gAKrK0DTHdNhk5CvmOQ6Sf44ya2T3DXJPZL8VZL9kjwiyYFJnp7koCQsz/ny0unn8CS83pvkqPL6cJJjyuvTZSEvFvPi9Z0k35/x+vE2MhU+O2tfHKs5Lj85l+a8OMfmfDn35jroyMS1cY1cK9fMtT+8WGCCDUZYYYYdhlg6xfjqpgnPfD4BJtH79jbSKWVq21frHWz3BE5PQr+AP5jPxE8p0InAeZJcLMnuSW6Q5LalQKKgflSSZ5TCi9EtbymF3MeSHFcKw+8lOa1Cgtxuetq0z2OMNRUP7AkDKhyECWHzolK5IMwIOyoVhCVhSthe1CHKnaQnDzK/AEPmqRhTNnadnjs/YHOBxydhjWM3BWoK7JzkUmUyKu4k907y4CRPSPKCUkgcUZrZiIPfXcKCWE0c92f3Gdq85iyEQksGceCjSYgT9FUijhBXiDPEHVosr1XiFJVENwVqCtw8yRd7KPibdNJbBaA5AZoId6sp6r7WToDm36smuWm5o/vbJE8pLUnEn48k+UISlrds4pU/tVhGHPh5km+W+EbLA521aNHkccZ9ktyxxNPLJTn72qVEL6iWwEVK3Onjrn80XQwiwyTjPsCRArXi1krsZ6fS5H69JHcqd1xPTXJwkiOTfCbJtyzQB5E+RzMMf5+/YkXmTr8n4jJx+pVJiOMPKhUF4j6Pnc62EinWk6whcM7S9+eHA8nbBpXBfCXJPs4bUCOe9boPMjQ6bt0kyT2TPLLcJb29dBbjDmoZ81pbOM1fOGk1HCvSAmmCjpSkEVoUSDM8grhxSUtWEnrN0lof/KylheirAyn4m/Q/qApAc1LUmLkrdCrh1vFuKTugFnvlJLdL8pDSq/sNSegB/jWfqQ8yTTVpy5/DKfi3Exa/LmmLNEZaYyQF/RRIg1dKQpp0G54AZdidS4fV7YR3V58ddGb1uVJrsvbbfcTmuTvDsOhFzfNNhnDxzJPe178ZWC22q8TicVaz8NyUcGPoJq0I9IuhgsAoCDrC0h+BO1C37gTwpj8I4THk+Dfok2vg6Km7r7Xc6rH3QqXDEmOwn53kzaWmSkenxt6fWhgHVj8OkKZZUY40/qySn/KIjjzArZ4ALTHkpyesSB66Uhk9ncLo/U0PSrf5BJhW8hrleeKTkrw+ySfsMb9S8d4CePUL4CGHIS0HHy95wxNLXnF1O2XPl8GWTzG/xNN6mMinbbxayYzwl2UIxXW3FUTr/WFqnoxXptMdk9YwMQrjS3l22DaS+H0NjQObFwfIO2h9pdWAmRvJW65pS+wOBQkjOZjlkjJpFdPISp70KDTTkNIR7fw7BMv6/kGnkiskuXupcb61NDf5XH41E+BoXPZ3w3AV4gB5DU3c5D3c9d4tyeU3qNP2HybZP8mxK1roj8axla8ANBfDMy46v9DpZV1GD9B8zwQ4TDDC0CA64TENanPN/tTCOGAcGEocYA0JOr0xORKTdTFx1zrNnkinaDpD/3SN8uC1LEy+VCbcYKjaqmxMYcsCKCwQc1hpvnesvJn7UDJ3z8O4uEgcIA/jMcK/loWfmPqWvG5VNtaPoJXjxDUq9EfDcS0rAKMXyBSxDGOjk8ZQNqYIHb2zp9ZsE74Z7Gi89Xfjw7rGAfI68uXRloIhLQ7H7Iy0YDDF+LqGQXNda3+BzYUS6T5Q+gsQwF1ul07yF0leUprIWIikOS9/amEcMA5sehwgT/xkWRXvXmXxpS7zaMoEnutTRmzSzdjGFkTUQBlSWPsxAZMWcXfPJBzUcL9sYb+xcWzTM3Wv34pNmzjA9Mis0kgLLv0J6BNVc7vMyJ3+pj5uNXMuvTmfnIRhhdvtQHiuJLcofQ6OXrMOIm0Sr9818zcOGAdqxgE6332w5LV7JiHv3c7G7HwM2+PGj+nma57bqu5LhLGIwPrwjCag5z3DPcY37vDpDUqtlF75p419f1UjgudthmAcMA6sUhxgngL6TzHtMaO/Jq2HwCgEpuSl9/4p5tVnKu/P9EbbCEDBuS7LuPJcihonK3M9Ksl7kvzESFQ9zrSNc37fgss4YBwgb353yavJs8m716W/FWXqXy6h7KmemXPHzJ3zSzesM4UZkBlQEwfoRMT0qqyMyBAo7lLoXMSa8LQuvbrckZBGuHvh9bjSqkTvY/qPPKAsxMRiTLcvdzgMoaL1iRcTr7DIy6TXBZKwmNOk16znqPxv0nd4j31OOhbvcS7NeTGUlbsxzplz5/XAck1cGy1nXGtz3Rhwd4YJNhhhhRl2GGK5SR2zmnjkT/MU4j2dx5vW6NpxYikVgKbZnGfqzDtf+6Tdn6bLiAM8Y/x6Elah/FCSdyR5TZIXJqGPyMNLQcaUqCxXTUFHHL9KksuWwnNWAdukC38uJtBUULDGHHvCgLAgTKg4EUaEFWFG2BGGhCVhShPwOk3isow04D6Hk7eyPgMV69GtdvhUL5xHT5bf6XjBY4GvWhGobl07MqzL/n6W5CtJPlZ6Eb8qyfOSPL4MA2WYEXeoNyyjQHZbQg/j8XTg38MRoCJBmDMCiDhAXCBOMKU4cYS4QpyhBzpxiLhEnFqX9OF1DDssiW80909awrl22FWP1NOSOYmOGvq69A+oHRDub3qi/EUShgQxdJPJOWgqZmpkevPSrEwzM8OEGH5Jc7WbAssQoNc548WJZ7Q8cGND/CMe8hiDCgPxk3j6IysM1cuWdc8jmeadR2SzRjfUNqgeSFslPBbtYbU6m+KmF3i1A3mo+zs9yalJPpXknUn+OQlLFu+b5HYW6FslJf8/cIFdk1ytxGXiNHGbOE5cZxEz4j5pYKjp0/PqJmzovMh0w+ebIz7XDpPqkW+Oa/jdRy5UKgI/MAFUD4PakWSR/dF5hQ5cPH9lucznlLslVjG8cZJLJmFKZDcFNlmAltFLlTRB2qBF4blJXl/Szsl2gFzL/JE8lc6tFPwX3EYCWCQvnvWd6rjbuJbffZSFIYj037AiUD0sZgV8jf8RgemtTZM8vbp5xEPTKE2k595uRPDzCigwUYCKMqMteMzF4y6aiXnkwDwkJ1lBWLl889vlsVHTs39ioE95s0a+PbqP6nhTznvLt1kM4qElQo+eoL930ww1yZnnmBTwrE747CR/nWSv0nlq0qQbWwayH1BAgeoCpEU6NJI2SaNUxkmzpF2W6J2Utn2vexdWqaWj6axn/FtFjtrhVj1ybHUBW/2fno/cRdKhxudjy4+kzKbFXQR3E9xV0BqDP3cc250Weauw9f8KKNC9AB1jGU5Gp0UqB7TYUTn4uZWD6uXfpAKajqG03DCLbNtt0v7bvFcdoO0Fjn7/iiXC2k+gfUWgaa5ngSKaEImQZApDWoZzNOz9XQEFliuwU6noU+Hn8R0ja5rHCt58tctzaXnhhorHoTW3NoX9pO8OugLQwNE7kqYTaq2TLsL3tnZh1AU9j2kapOPJvcvCGIzKcFNAgc0TIO2zOA55AXkCeQN5hCO0ts5Pp5U5THz34Dl79C8S46Ydd9H3qxeoi1zUdr7DDGA0Y9GRYtGL9ns72tk6sJ0Y6GcVWB0B7/J3zOuWkfeTf3K3f+0OokXt869eiHZg8LtDMHyGYTPvSsJz7Now7u/3C2l8sczP/uIkj0hy1yR7JGGMs5sCCvQvQFokTd6tpFHmjidfPMG8cWnlAosM0U8Nc8qirrba5VJ1oK4gRo9DJxc6uBAgLhrSXWWITkSjHQhH+xb4aGE0hvq7AosL0GucTrnNs/rRjnz2j+ouv/ttmemRjtIXXjw4W33TCsAWfJcoteBP2ipQvXK33cj33bIY1FtLByMqCMxxfYskuydhrW43BTZZgDRAWiBNkDYek+RFSUgz5GGkoe2mOz9f14xFeQ5IcvEBRNTaYVs9cg3A6IxTYJlSmq0/nITaW20899fe9Idl7vT3lyVhn146fLLCG6u9XXTKohhnBLK/KDBAAYYzE3eJw8Tl/cvMpyx7TFx3vYD2ecey8l9akf+jFPqsPDmkrfY1Vy+33pK0AAAgAElEQVQUh4Q1ei6sZ85jAsbA2st1uIlvWgRvHjcwppZHPXS6aRYDIlxpHmXIDYu1OH/BaMz391oCDJklfjF89o4jiwHRJM/wWuIlI5VYuMp+SauVx5C/MASS5n0qbkPdpuWPi76/MRWA0QA9b+lAeHBJrIvi+b1hJnIS89dLZkxnKNaFf36SJ5bZJvdJcocy/zqjSkjwbWbnGo1b/j58AQpywpywZ10K4gJxgplIiSMvKHHm3WWhKuISK1Ka3tfL4JQkrygdm1flcWTtOFg9Ug8/+e94htwtMnzjceVRgTX39Urk20kwVByaZYc/WkY/sJARIyAYJ/3oMmEK46bvUlodrp/k6qWTFr2xrUjsmL5q/kXBjTEd4jC/QQkDwoIwYTIbwoiwIsxYUOfIJITlf5ewJYy3Eyf87Pp4kbezOBn9LK5ZM2J2uK/a8bF6YujQYimHYkTBn5cm5hPNLKrHj9oReIj7YxY1xgZz58gwSpqFjy5Ds3gERYsEjzD+qcxpQRPy48sMjXQ2oiDjxWyNvLhD5REHHcVofubF3O8UhJNeuyUhHk96zaqg8L9J3+G9i0w5FsfnXJrz4hw5V86ZcyctNdfDtdERlGvlmnmxPC4WmGBDiw1WmGGHIZbOTLc+BXGXaZb5919W4uIii+8spZBpsdPadtUz+BbXNsiv0lRIRkYmxdKctQPA/WlqHDAOGAfqxAEmiKMiSaXzMoMsUdqdVO14Ur1Aa3d5w/82Hc14Vsi0mS5hXCfR1o7U7s9wMQ5sRhzgOf6hZeQQfTrWfasdr60AtIwx9ApuWggY2mNT5WZkPLUTovsz3hgHto4DTDzGiAvu8GsvtNOyKOjk67XjiBWAysHGs9I7lzG/70viTF1bJ+rakdr9aW4cWP04QN+P9yZhbhCGXdK3ZdO32vHaCkAHMYpWAiIwnZ4Yx/4z+xJUj3e1E4b7W/0CxDBcnTBkbn06frIkMfN6cHfvfB5nLpxqx+nqGfGZT9l3xgVYoYsITkQnwlMp+KWVgupxsXZicX+rU6AYVsMNK2ba43EpTflMvHPTJOcczyT9e6JA7XhdPdOdeNa+uaXAzkluXqYuJmGwLreTjww3E6udEN2fYb2OcYA87FNlmOfDk9zMNUC2LAtmfaB2HLECMEu75/81a3nz+IBpbxneQs3ZdQ0sLGpnBO7PONU2DjCJFtPpNs34zA3hnX3dQqRtGI1/3wpA3fDpZG9MZUzi4hEC/QqYg/xbPkKoHpfHE4t/W0gaB37fsZnHlsyN0jThkye5LV+gdvyrnmkun8AjTBNgucq9ymMEZr/6YBLGydaONO5PU+PA+scBJj77QJmtkeb725bFkKblP76/fIHa6a564bB8Ao+wXQGa4ZiylUcJTMVKzZ2mulOtHFSP/7UTqPtb/4K2zzBmmDK973m8SGsirYq0LnpHv91ctpvP144r1TPAbhg8Si2BC5VeuH9VMoC3JPlcktOsHFRPG7UTr/uzcjBPHGDY8XFJ3pzk2Un2LasgXrBWJuJ+OhOYJ7y385nqmVxnEh5o6QIsAsPdAC0HzLzFHQJ3Ctwx/NAKQvW0s52E62ct/Js4wAqHzJBHqx6te7TycSfPoky0/DmefulZZWcHaMK81s/qmVhnEh6odwEqCMxnQEZjBcECqVam5H52jEuTCnimH2f8vAV879lgpydQO21YAeg0+DbrYKzfTgZFRkWGRY9hWhGY54C7Fe5amAGsdqR2f5quShxgulta1BjJw907w32pTNPqRusbs4i6KdAI1I7X1TPf5kT9qcA8AmdNwpLLzaOGByV5apJDytrwTIjEmvBOimShXjvzW9b+uGMnzlKwvyvJwSVO/3Up2PdIwpohNs3Pk0P4mVGB2nHWCsCorr8PWoAWBe6ImsoCzzlHWxW4i2J8si0LVhZqZ5TcqTMJF/Fr9G6d+Nc8b+dxGPHTgn3Q2chKn1zteG0FYKWjgyc/S4ARDruXHs93SLJPkr9J8uQyWxmPIo5M8tEk/10mU3JNhvWtPNCKxNDX0YL8NUlemORJSR6W5N5J/iTJDZNcOYk95WelMP/XtYAVgK7FPd7GCbAuwyWTXDPJnkn+NMm9yrPZRyd5WpJ/SPKKMiqCJUu5M/xsaX3gbtG+DfUqEhTc3yu2xyb5cJJ3F3uemz+/PDt/ZAmjvZNQ4WNtjWskuYTzz29cGl7XC7YCsK4h63WtnQATMDFSgsoEnSF59nv9MmqCAoqOkfcrhdajkjy2dJJ8QekQRuF2WCnoGH75/tJ5kg6UPF/mRR8JHnnw+nISKh+zXrMyENaYmPVdpptujnXiyDl8YuS83jNyvm8YuQ4KaTqAPiZJU1DTdI7B7YvJdZNcq1jRlI7d2dcuVnhBCiwuMCv9LvI/HwEsHhZ+UwEFFFBAgc4EFinkZ33HCkBnQeeBFFBAAQUUWFxgVmG+yP+sACweFn5TAQUUUECBzgQWKeRnfccKQGdB54EUUEABBRRYXGBWYb7I/6wALB4WflMBBRRQQIHOBBYp5Gd9xwpAZ0HngRRQQAEFFFhcYFZhvsj/rAAsHhZ+UwEFFFBAgc4EFinkZ33HCkBnQeeBFFBAAQUUWFxgVmG+yP+sACweFn5TAQUUUECBzgQWKeRnfccKQGdB54EUUEABBRRYXGBWYb7I/6wALB4WflMBBRRQQIHOBBYp5Gd9xwpAZ0HngRRQQAEFFFhcYFZhvsj/rAAsHhZ+UwEFFFBAgc4EFinkZ33HCkBnQeeBFFBAAQUUWFxgVmG+yP+sACweFn5TAQUUUECBzgQWKeRnfccKQGdB54EUUEABBRRYXGBWYb7I/6wALB4WflMBBRRQQIHOBBYp5Gd9xwpAZ0HngRRQQAEFFFhcYFZhvsj/rAAsHhZ+cw0ErprkUUnekeTfkxxTfh6Z5LAkL0/y3CRPSfLIJPsl2TvJHZLsmeQ6SS6fZLck51kDj6FfAsZYY449YUBYECaEDWFEWBFmhB1hSFiOhi1hTZgT9m4KrJLAIoX8rO9YAVil0PdcqwlcPckRSU5PqqeB7yc5OclJSY4tlYoPJDkqyZuSHF4KJwqog5I8O8mBpVCiELt/knuU112S3HrkdYNS8FH4XSPJ5UZeF0yyy5TX+bYhx2en7YdjjB6Tc+BceHFuo+fKuTfXwTVxbRS8XCvXzLVj8C/FBBuMsKIihh2GWGI6KyNb5H+EPXHgatuw8aMK9CmwSDyf9Z3qiapPHI+twDwC90ty2hIKlFkJzf/VL8Brmf4syX3niTh+RoGeBWrF+WY/VgB6DlAP360Ad6JN5PenFk0coDVg326jokdTYNsCTXyt9bN6ZrjtK/ILCnQkcMMkv7ICUD3N18qM+t4PceP6HcVFD6PAIgK100j1zGCRi/I7Cixb4CxJPm7hXz29186Q+t7fx5IQV9wUGKJA7fRRPUMYIprnpMBtLPyrp/XamdFQ9ncrk4sCAxWonUaqZwoDdfO0NlyA3ua1E4/7W0/Tf9rwtOLlD1egdp5TPVMcLp1ntskCn7MCUD2t186MhrK/z25yQvHaBy1QO41UzxQGrefJbazAMsaR106M7m8YLQr/u7GpxAsfukDtPMIKwNBD3POrIlA74bi/YRTWywqHKpHOnShQWaB2fLcCUDmA3N0wBWonHPdnBWCYMd2zWmeB2vmOFYB1ji1e2xkCtROO+7MCcEbk8hcFOhKone9YAego4DxMvwK1E477swLQb4z26JsoUDvfsQKwibFoA6+5dsJxf1YANjAZeck9C9TOd6wA9BygHr4bgdoJx/1ZAegm5noUBf5PoHa+YwXg/2z9bY0Faicc92cFYI2Ti5c2UIHa+Y4VgIEGtKdVV6B2wnF/VgDqxlD3psDWArXzHSsAW5v7iTUQqJ1w3J8VgDVIFl7CignUznesAKxYBPB0FxOonXDcnxWAxWKi31JgcYHa+Y4VgMXDwm+ukEDthPOhJMckOSHJ15Iw1fAvXW+gen4yHm4YY4059oQBYTH+ubZ/r1DU9lQ3SKBtvB7/vglngyLPJl/qeMRv+/c0S9aS3yXJRZNcLskeSW6U5NZJ7pLknkn2K69HJjkwyVOSHJTkuUlYtZDXYUkOT3JkkqPK66OlwKPQG30dn+SkCa/vlsKSAnP0dfqEApP3Rj/T/M4+Ju2bY46eQ/P7R0bO94hyDVxLc11cI9fKNXPtGDQe2GCEFWbXLoZYYorttK1teI5/f9pxfF+BPgXG42nbv60A9BmaHrszgbYJZfz7nZ24B5pLYDx82v4910H9kAIdC7SN1+PftwLQcQB6uH4ExiN+27/7uQqPOk2gbXiOf3/acXxfgT4FxuNp27+tAPQZmh67M4G2CWX8+52duAeaS2A8fNr+PddB/ZACHQu0jdfj37cC0HEAerh+BMYjftu/+7kKjzpNoG14jn9/2nF8X4E+Bcbjadu/rQD0GZoeuzOBtgll/PudnbgHmktgPHza/j3XQf2QAh0LtI3X49+3AtBxAHq4fgTGI37bv/u5Co86TaBteI5/f9pxfF+BPgXG42nbv60A9BmaHrszgbYJZfz7nZ24B5pLYDx82v4910H9kAIdC7SN1+PftwLQcQB6uH4ExiN+27/7uQqPOk2gbXiOf3/acXxfgT4FxuNp27+tAPQZmh67M4G2CWX8+52duAeaS2A8fNr+PddB/ZACHQu0jdfj37cC0HEAerh+BMYjftu/+7kKjzpNoG14jn9/2nF8X4E+Bcbjadu/86sJ04K22emufep4bAWmCLSJ05O+O+Uwvt2TwKQwavNeT5fhYRWYKnD+ymX1aRzpR5V3+idTT99/KNCfQJvCYNJ3+7sSjzxJYFIYtXlv0jF8T4E+BShb28Tp8e9+g4thoY/xf7T5+219CnlsBaYItInTk7475TC+3ZPApDBq815Pl+FhFZgq8M7KZfXnOdIHK++UVcX+eOol+A8F+hFoUxhM+m4/V+FRpwlMCqM27007ju8r0IfAnkkmreLZJo6zymheWrkCwAl9Kckf9qHkMRWYItAmoUz67pTD+HZPApPCqM17PV2Gh1XgTAI8+z9xCeX033Okv1rCjkl470pytjNdim8o0I9Am8Jg0nf7uQqPOk1gUhi1eW/acXxfgS4FKEPfs6Qy+h5cyOWXtHMS32utBHQZVzzWDIE2hcGk7844lP/qQWBSGLV5r4dL8JAK7CBw1iSvW2L5fKnmaMcv8SCvSbJTcyB/KtCTQJvCYNJ3e7oMDztFYFIYtXlvymF8W4FOBM5ebqDbxOFZ3z1m9CqetsQKACdBZwP7BIyK+3vXArMSwyL/u1iSXZKcq+sL8XhnCGBPGBAWi4ThrO+ccRB/UaBjgZ3LI/RZ8bPt/x4xek08Bqjdw3D8BL+Q5EqjB/V3BToUGI+Ptf9mUo3vJzmlDK09Lgm17P8oFWCGxx6e5JAkL0/yvCQHJXl8kgOTPDjJfkn2TsKzudsmufXY6zpJJr0ul2TSi8Jx0msa+6TP8t6kffPepHPhvfHz5lq4pnuWa+RauWauHQMsMMEGI6y4acAOQywZrowtxljXDr/x/U0z8n0FlimwexLKyvH4WPPv3ya55PhFHLHkg3IBP0ly3/ED+7cCHQjUTEDua7kZ1BB8O4iSHkKBHQSoIP+4g3L4sB2OWv64aQcHbhL2G8qdyaTz8D0FliHQxD1/rn/hXSOMlxEH3acCkwSYPv/Qjspf7v6vNukkeO9NHZ0ECfTU0tw57Vx8X4GaAjUKBfexOZWHmnHPfSkwTeCuSb7ZYblLGT9147nATzs8GTLUI5NcZuoZ+Q8F6ghYeG9O4V0jrOvEOveiwGQB+tAwV06NuDrvPijbOe7M7TEdnxQn//PSGYgZj9wUWIbAvInEz3WbKQ3Vexlx0H0qcN4kT++oI+t42jpgHv5zJPlsD5UATvY7SfZPwhhINwVqCownBv+2oJ8VB2rGPfelAGUaZdu3eypbP7adSfkYFshwm1kJZJn/Yy2B+zmBkKmmosAy46v77i+vWJZ9xajnrjZYgEnw7pPkhB7L0/+dp+l/PIxuk+Q3PZ40CfurSf42yTnHT86/FdimwLIKCve7foU/YeqmQBsBpvFl7osv9lyGUobfbtELeULPJ99krl9J8rAkPD9xU2ARgV8NJC43cdqfw604EFfcFFhEgFn8/ibJlweS3zx8kYtovnOWMkPXUDKrH5ZZwy7dnKA/FZhTgFnkhhKPPY9hh8XJc8YpP6ZAI3CJJCyv+4MB5TPPb06uzU+aMl4xoIsi86RZg/GMN2tzYX53owT+fWBx2ErAcCsBH9yolOHFLirADfItkrwxydBaGF+UhPOrslEJOHigGeh/J6GZ44JVrtSdrKsAc89b6GowTxx45LomAq+rigAL29E37X8Gmqe8rGbh34hRCfiXgV4wifoXSZjjmIVIOFc3BUYFmOSKODJPAeBnNteJOUloznVTYFSAMoWO8a/raQz/vHnSM5dR+I9CsIxg36MDtsKg0yAQVx09cX/feIEXWgGwArRFHKjy3HTjU9r6ALA637OSfH2LeLNVmbTs//86yQO6Yv+TJHTIW/ZF1dj/Z5I8OsmlusLxOIMV+IMkn16ReFsj7ruP7eVRTIB27sHGXk+sKwFaC3ms/PEVySt+lGSvrnCa41wlCRP2rEomwypIrC/+kCQXay7CnxsnwLoTfU7KsSrpZdPOk/Haji7auOzgjAu+SBlq/pEkp69QufapJFc44yo6/oW5+3kmsmqZBZWB/yotA1fs2MzD9S9Ah9EjVjDerlo6W5XzfUeSC/QfLT2DjgXoJX/7JO9dgcfak9LSS4YySd6fJ2G6wUknuQrvfb4s0LBHxxHQw/UrQOJnNUqen61CPPUc64UTYU7YEwfcNk+AZn6Ge65imvpekrsNLcgunuT9Kwo6Ggm+keSVSe6ehOEebusvQEvWDZPctzwiYsggHX/oNMgcGIcneXcS5hI4JsmJZQ1vnr2Nxh1/797jx0lOTXJSCZsPJXlPCTPSMeOhn52EMH1oCeMbJ3Hl0fVP19Ou8GpJvruiaZe86MLTLqzv92lSeVDPCwnVzIS5SyBDeWySay97eEXfgefxFxZgimoeK7DW9pWSXKdUKBiSyh0mc4LfO8l+5TkjhdGTyhLYVDJeXl48TiOB83pbkqNGXp8sBRwVEOa+oMBrXqwwxuJdW7149LVV+uAzW+2H/3PM5vj85Jw4N16fGDlvruGtI9fFNTbXy7UflOTJpYBmum+M9ilmdDbG8EbF9MrFmAzwfAuHll/cZAGGeFJh3CodDO3/nPNdVyXgLlTunObJcIYGPet8CITXlLsIRxWsSmz0PBVQQIHfC9DfY1YeP7T/MeT+n5PsuooBeP0k3LkMDbXW+dAUTBPxXyS56CoGkOesgAIKbIgAU8fXyvu72M/RSa656mHDDEoPTMKz9S7Q+jwGzaAvLf0HrBCsesz1/BVQYJ0EXr8iZRArCQ6uk1/biHCO8nxvFZ+/LFqp+GZ59sm80TwXdoritrHI7yuggAKLCdBvZdG8vIvvfaf0hTnXYpe3Gt+iw9QTB7ZsYheByzGYPZEeylz/reyJvBoR1rNUQIGVF6BFtqt8frvHYUQCC1Bt1CyUu5T5+ldlSuHtBuo8n2fGKVaUem3pHc5QtLWu/a18NuIFKKDAKgowOmeePLnLz3DH//gk3BRv7MbFM+/y1wYYQF1GhuZYrCvN9I70/Lx/eXRwzo2NHV64AgqskgCPevdOcmiS45P8tLz4nfeYNI7PdL0xRLfJY/v+yRT6D07C2iRuRYDn43dM8rEBBVTfEaU5PvMRfKH0J3hKcRrsZBDGaAUU2EgBOq4xJ0STb037yeiprse071QqItPOqYv3WYjsPkk4F7cZArcsc7UPfdnhLiLNrGPQasK41meUWvfVe6pdzwhK/6WAAmsucLYkz5uj4B/Py57bccdoFoMbP4dl//2LJG9IcpM1jwNLuTxW7WPWtK/2EHDLjhjL2j+tBdTCWeyGWdaocV41CYnUTQEFFKgtsEjh3+R/f1/7ZGbsj0eqzXGX/ZNh7+S/TJHv1lKAwutOSd6VZN1mF1x2RGz2T030uCRvKp0v/zIJEzW53kHLyOnXFdhgAZr9mzxm0Z9/1pEfHayXOR8NN1/ceFFWecO1pEBlCt6nzvmsadEIuWnf+1ZZ6IY52h+R5M5JWDDDTipLisTuVoE1EKAzH8/z2+aXTHzTVcfAvZIw+qrtOY9+/3Ml37zIGoTpylwCCw+xqhdrIjOcYjRA/L2exylJeHZ2cJLHlb4G103CME43BRTYXAF6+9fKa1kwq6uNx8ptz5sleV+chLzQrWcBelWychhTPTLspG3g+v35DFkV7tgkb0/yj0kOKL17mfXwAj3HCQ+vwLoI0BLHSoh7ltURb5NkCIuR/WvFvJa8u8uNVWtP2+b5M2cNi8FR1py9y5P1WPMLnKcszsOzbisD8xXky6rw/CTJ55McmeRlZQnc+yUhA7vKpk+AMX+U9pNrLEDT92WTsFANyyA/prRqvrNUrmetW0/r3DOT0Fm6j+2EbRags/IZ5gnoertCkrck4dn9tHOjDKGiQz8FJ2nrOoRaHo+aMx0yXpWEJptpgez7/dn8qMxx8L4STk8rsyIyYcjNk/yRrQktU4Ff70OAgp21529Q8iDuOJnDg342FO6fSMJaITWeR5OG2H/XGxX8Wnkn++prY5rgfUsr5uFJDilhdftNm563rwDo4rg8JmB+gRclOblixK2VANzP7MyEGRLpwcsjh3eXpjiGH9FpkaGOJNZrlbshm+e6SFGbd4ydkzCjHIX6HZLct8Q/hrLRNPzeJHQI62vRmX9IQt+orraaFQAqMW4KdCJAIrl2kscm+dAWTUAWzLML5qH60OLD8sx0YHxj6bDDhEksuvGAsmTzrUsnHpoCL+gMXZ2kvSEchKm1d0uye5IblWe6907y0LJQF/1ZmLzl/Uk+k4SmdobRDjWuj54XHXW72r5Y0YQ1UdwU6EXg/KVAeGVJ7KMJyt9XI+OrFU7c1ZDh03fhI6X/AoXBS8vz1kcleWASei3Tl+F6Sa6Y5DJlZAR3iW7LEWC6cEaf0AGOPiTMY0EljmllaQV6SJk47Fmlpe/VZaZMKvncmROuP6tYaNWKczX3Q0sZnXC72Jjbv9a5v66LE/YYCswjcI0kj07ybwv0FK2VINxPvcylD0t6GDNKgsdNzMzIAk889z2qTGjFs0aajXkmzKMMZg2jAxgtFPslobMklQyaminkRl83LZk8GX3z4vEHzdPjL0ZjUGiOvmaNuaYT7ehnJ/1OZac5DnfRzTmwmmVznrcr58813LNcE9f1d6WQpjWGa6Zz6CvKOhdvKz4U2MeUFhzsGOa77gV3zTjK9OBdbPTTqXXed+/ihD2GAtsVoLnwj0unEDKmX1aM9LUSj/uplxFpqeWqxwFmS+1imCB9bVjZrq0XlbxZldLt5tl+XoGlCTCygDswJpPgbs4KQfsMoG0G4vcNA+PAjnGAqb672Hj80taemUfdFFhJgfMmYXpJpifmkUHNnrFtE5bfb585aajhKsaBF3SYm7Kq36JGPAZyU2BtBFgEgtX3eN752jLGfdHE4fcWz1i0026T4wB9K7ra6Jz5nAUqAQyf5LtuCqy1wCWT0GGGmjLD0mwlsHDa5MLJa19+/P+nHnJUZsubp08An7HZv4cA8pDDEGhaCRi6xJhjhpv9fIEatBnp8jNSjTVexTjwsJ6yOjoGMvKDuf0Z28/NDi9+5z16+ztRV0+B42GHK8A80wyjenAZGsaQMSsFFj6rWPh4zv3HW+ZIcFNAgRUWoKWA8dZ3LMMQj+hxmlEz9f4zdcPAMJgnDjADZpdTAq9wFuupK7B6AozxZe57JitiMhkmmbG1wMJhnsLBz6x/POlqCODq5ZyesQJrKkBrAVPS3q0su8tMc0xn6zwF65/hW6gbxk0cYP0C7/7XNJP3shRYRID1wpmilaGJdDpkAiNm32oyDX9qYRxY/ThwXJJdF8kg/I4CCmyeAJkFHQ9ZC5u52Q9L8skyh70FwuoXCIbh5oQhS2SzoqWbAgoo0FqARWToSfwXZYlU+hp8NMk3bTmw5cQ4MJg4wPA6KvA2+7fO8tyBAgrMI8ACSVdKctuyNC6tByzn+eEkX0/CYiTefWpgHKgXB35RHtsxkRgzjD6itN5Z8M+TY/kZBRToTICVvS5fVlGkRzLL3L64rM3OMq+nJjndSoKVJOPA7+LAr0vFmQnBeAzH8tB/k+QuSa6X5CKdpVwPpIACCnQgQCWBdeVZWfFeSQ4oUyVzd0NP5s8554EVhBWvIDAC5+Qk/5Xk7UmYnvfJpdWMuT2um+TiSRjB46aAAgooMCbAtKFkktwJ/WmSByR5QpIXlqlF35fk2CSnJKGZ1GZnDZYZB76f5PgyfTeF+iuTPKtUYGntuk2Sq9khbywV+6cCCijQgQDLM/P4gdENVBjul+ThSZ6e5KVJDk3yniQfT3JCku/ZZ2EjK03MT8/dOUPneK5OYf6qJCyj+8Qk+yfZO8mepUCnGX6nDuKvh1BAAQUU6Fjg/Ekum2SPkunfKcm9y9oMByZh3XIqEHR2fEeSo5PQn+HEJF8pQydd5XH5rQ8/S/Kd0iGOGTApvBkCx8RXL0/y/CRPK7NkMu8Fj5eYNZMK4ZWTXNjFaDpOWR5OAQUU2CABFnbaJcklyloO10pynTIZ015ltTQqFxRQf5eECgYjKahksI77K0qB9tYyaRMTN/H6z1LpoOLBi8mcmhePQGienvb60ZyPR06bsY9m3xyrOS4VoOZ8+NmcKz/fVK6DwplrooCmEsV1PrVcN53dcGC4KavIMbLkVsXrmsWPR0B4unb8BiUiL1UBBRRQQAEFFFBAAQUUUEABBRRQQAEFFFBAAQUUUEABBRRQQAEFFFBAAQUUUEABBaloDY8AAAS8SURBVBRQQAEFFFBAAQUUUEABBRRQQAEFFFBAAQUUUEABBRRQQAEFFFBAAQUUUEABBRRQQAEFFFBAAQUUUEABBRRQQAEFFFBAAQUUUEABBRRQQAEFFFBAAQUUUEABBRRQQAEFFFBAAQUUUEABBRRQQAEFFFBAAQUUUEABBRRQQAEFFFBAAQUUUEABBRRQQAEFFFBAAQUUUEABBRRQQAEFFFBAAQUUUEABBRRQQAEFFFBAAQUUUEABBRRQQAEFFFBAAQUUUEABBRRQQAEFFFBAAQUUUEABBRRQQAEFFFBAAQUUUEABBRRQQAEFFFBAAQUUUEABBRRQQAEFFFBAAQUUUEABBRRQQAEFFFBAAQUUUEABBRRQQAEFFFBAAQUUUEABBRRQQAEFFFBAAQUUUEABBRRQQAEFFFBAAQUUUEABBRRQQAEFFFBAAQUUUEABBRRQQAEFFFBAAQUUUEABBRRQQAEFFFBAAQUUUEABBRRQQAEFFFBAAQUUUEABBRRQQAEFFFBAAQUUUEABBRRQQAEFFFBAAQUUUEABBRRQQAEFFFBAAQUUUEABBRRQQAEFFFBAAQUUUEABBRRQQAEFFFBAAQUUUEABBRRQQAEFFFBAAQUUUEABBRRQQAEFFFBAAQUUUEABBRRQQAEFFFBAAQUUUEABBRRQQAEFFFBAAQUUUEABBRRQQAEFFFBAAQUUUEABBRRQQAEFFFBAAQUUUEABBRRQQAEFFFBAAQUUUEABBRRQQAEFFFBAAQUUUEABBRRQQAEFFFBAAQUUUEABBRRQQAEFFFBAAQUUUEABBRRQQAEFFFBAAQUUUEABBRRQQAEFFFBAAQUUUEABBRRQQAEFFFBAAQUUUEABBRRQQAEFFFBAAQUUUEABBRRQQAEFFFBAAQUUUEABBRRQQAEFFFBAAQUUUEABBRRQQAEFFFBAAQUUUEABBRRQQAEFFFBAAQUUUEABBRRQQAEFFFBAAQUUUEABBRRQQAEFFFBAAQUUUEABBRRQQAEFFFBAAQUUUEABBRRQQAEFFFBAAQUUUEABBRRQQAEFFFBAAQUUUEABBRRQQAEFFFBAAQUUUEABBRRQQAEFFFBAAQUUUEABBRRQQAEFFFBAAQUUUEABBRRQQAEFFFBAAQUUUEABBRRQQAEFFFBAAQUUUEABBRRQQAEFFFBAAQUUUEABBRRQQAEFFFBAAQUUUEABBRRQQAEFFFBAAQUUUEABBRRQQAEFFFBAAQUUUEABBRRQQAEFFFBAAQUUUEABBRRQQAEFFFBAAQUUUEABBRRQQAEFFFBAAQUUUEABBRRQQAEFFFBAAQUUUEABBRRQQAEFFFBAAQUUUEABBRRQQAEFFFBAAQUUUEABBRRQQAEFFFBAAQUUUEABBRRQQAEFFFBAAQUUUEABBRRQQAEFFFBAAQUUUEABBRRQQAEFFFBAAQUUUEABBRRQQAEFFFBAAQUUUEABBRRQQAEFFFBAAQUUUEABBRRQQAEFFFBAAQUUUEABBRRQQAEFFFBAAQUUUEABBRRQQAEFFFBAAQUUUEABBRRQQAEFFFBAAQUUUEABBRRQQAEFFFBAAQUUUEABBRRQQAEFFFBAAQUUUEABBRRQQIEdBf4/I4tvhCBN3JcAAAAASUVORK5CYII=;" parent="1" vertex="1">
          <mxGeometry x="705" y="114" width="92" height="92" as="geometry" />
        </mxCell>
        <mxCell id="xWVjlc-ErnpRMG1p6QOf-3" style="edgeStyle=orthogonalEdgeStyle;rounded=0;orthogonalLoop=1;jettySize=auto;html=1;entryX=0.997;entryY=0.425;entryDx=0;entryDy=0;entryPerimeter=0;" edge="1" parent="1" target="8yuOUE8DRb-jMOZw8tpv-9">
          <mxGeometry relative="1" as="geometry">
            <mxPoint x="1040" y="230" as="sourcePoint" />
            <mxPoint x="800" y="150" as="targetPoint" />
            <Array as="points">
              <mxPoint x="1040" y="153" />
              <mxPoint x="797" y="153" />
            </Array>
          </mxGeometry>
        </mxCell>
        <mxCell id="8yuOUE8DRb-jMOZw8tpv-10" value="" style="shape=image;verticalLabelPosition=bottom;labelBackgroundColor=default;verticalAlign=top;aspect=fixed;imageAspect=0;image=data:image/png,iVBORw0KGgoAAAANSUhEUgAAAgAAAAIACAYAAAD0eNT6AAAAAXNSR0IArs4c6QAAIABJREFUeAHt3QX8BEX9//E3qKRYIBhYgEqolCioNBYGCAYGWIgoxs8OFAsVE8QCLMDARkREFFExMMBAQFRKwKBbBNT///GWO12O27v9zPbtax6P7+P7/d7tzsw+d25nbndCIiCAAAIIIIAAAggggAACCCCAAAIIIIAAAggggAACCCCAAAIIIIAAAggggAACCCCAAAIIIIAAAggggAACCCCAAAIIIIAAAggggAACCCCAAAIIIIAAAggggAACCCCAAAIIIIAAAggggAACCCCAAAIIIIAAAggggAACCCCAAAIIIIAAAggggAACCCCAAAIIIIAAAggggAACCCCAAAIIIIAAAggggAACCCCAAAIIIIAAAggggAACCCCAAAIIIIAAAggggAACCCCAAAIIIIAAAggggAACCCCAAAIIIIAAAggggAACCCCAAAIIIIAAAggggAACCCCAAAIIIIAAAggggAACCCCAAAIIIIAAAggggAACCCCAAAIIIIAAAggggAACCCCAAAIIIIAAAggggAACCCCAAAIIIIAAAggggAACCCCAAAIIIIAAAggggAACCCCAAAIIIIAAAggggAACCCCAAAIIIIAAAggggAACCCCAAAIIIIAAAggggAACCCCAAAIIIIAAAggggAACCCCAAAIIIIAAAggggAACCCCAAAIIIIAAAggggAACCCCAAAIIIIAAAggggAACCCCAAAIIIIAAAggggAACCCCAAAIIIIAAAggggAACCCCAAAIIIIAAAggggAACCCCAAAIIIIAAAggggAACCCCAAAIIIIAAAggggAACCCCAAAIIIIAAAggggAACCCCAAAIIIIAAAggggAACCCCAAAIIIIAAAggggAACCCCAAAIIIIAAAggggAACCCCAAAIIIIAAAggggAACCCCAAAIIIIAAAggggAACCCCAAAIIIIAAAggggAACCCCAAAIIIIAAAggggAACCCCAAAIIIIAAAggggAACCCCAAAIIIIAAAggggAACCCCAAAIIIIAAAggggAACCCCAAAIIIIAAAggggAACCCCAAAIIIIAAAggggAACCCCAAAIIIIAAAggggAACCCCAAAIIIIAAAggggAACCCCAAAIIIIAAAggggAACCCCAAAIIIIAAAggggAACCCCAAAIIIIAAAggggAACCCCAAAIIIIAAAggggAACCCCAAAIIIIAAAggggAACCCCAAAIIIIAAAggggAACCCCAAAIIIIAAAggggAACCCCAAAIIIIAAAggggAACCCCAAAIIIIAAAggggAACCCCAAAIIIIAAAggggAACCCCAAAIIIIAAAggggAACCCCAAAIIIIAAAggggAACCCCAAAIIIIAAAggggAACCCCAAAIIIIAAAggggAACCCCAAAIIIIAAAggggAACCCCAAAIIIIAAAggggAACCCCAAAIIIIAAAggggAACCCCAAAIIIIAAAggggAACCCCAAAIIIIAAAggggAACCCCAAAIIIIAAAggggAACCCCAAAIIIIBAbQIPk3SwpJMlndnCz2mSviFpV0lL13aURIwAAggggAAC/xFYUtJ+kv4t6f915OcUSXfn/CCAAAIIIIBAfQJv7EilP9n4+B13Auo76cSMAAKdE1hO0mqSNpK0TUs/60haonMyZKgWgZUlXdvRBoAbBHvWctREigACCLQvsIKknSV9QpLvev6rI9ficyTt0j4POahb4LkdKXCT3/7H/18hacW6EYgfAQQQaFDgQZIOlXR1x6+/72zQhKRaEHCnv3Fl29Xf727BhSQRQACBqgXWkPTFjvW3mnfdf1TVCMTXHYEzetAA8COK1btDRk4QQACBkICfqb9S0nU9uN5ONgiODR0pG/dG4E49Kozf7I0qGUUAAQT+J7CSJF+/JivWvvz/DzoF/u9kLtJfT+xZodxxkfA5FgQQWHgBf8ny/CZ9qezz8nnbhT9TAzzAfXtWMC+QtMoAzxOHjAAC/RO4i6TTe3aNzWsA3K5//OR4nsCJPSycR3M7at5p5X0EEGhZYBlJfby+0gBoueA0lfzykm4INADeV9OkFCmdEHdrCol0EEAAgQSBAwPX1rxKt0uvcwcgoRB0eZetgwV0vZoOZttgPvyhuEbSBjXlh2gRQACBMgJ961tVpKFBA6BMiejgvnsFKl5PxnOLGo/hq4G8jAvruZLcwYaAAAIIdEXAi5idlXA9G1/Xxr99zT27xgXZPNPfOK0iv2kAdKWEVZSPYwIF4FsVpZkXjRf9SZkR68esFZBHyusIINCCwKsC19XJivcHkp4l6W4N5Ds6BJwGQAMnpakk/G3+ykBB9WJBdYeXBvKT/eB4JkMWrqj77BA/AgjME7i1pEsSrmP+pv/weZFX/D4NgIpB+xTd+sFCulUDB+dKPHJXItsI+DCNgAbOEEkggMAsgZcFr6u+hh0nqY0x9jQAZp3JBX/vxYGCer0kjxhoItxZ0kWBvGUbAR+kEdDEKSINBBCYIrCUJPdLyl6T5v39U0le/reNQAOgDfWOpPn5QEH9ecN53j6Qt8kP2H4N55XkEEAAAQs8O3jdukrSPVqkowHQIn7bSZ8XKKzvbyGzXv1vsnIv+v9Hah6x0AIHSSKAQIcFlkyY7tejsNoMNADa1G8x7XsFK9cdWsirP1DfCOYz20BwX4LbtJBvkkQAgeEJPCF4rfIQvzae+2fPDA2ArMaA/n56sLC6oLQRPOykzDzav5W0ZhsZJ00EEBiUwAnBa+o7OqBDA6ADJ6GNLPgWefbb8qy//9hGBjNp3lfSxYH8Th6Ln7O5wUNAAAEE6hDYInh9urYjC5rRAKijNPQgTn8znqwo8/7/VAeOx1MQXxbI87RjOVLSXTtwLGQBAQQWS8CLk0275uS95iHLXQg0ALpwFhrOg2+r/ytQYJ/XcP7yknMr2y3nvA9Vkdc9Qcfukm6ZlwivI4AAAgGBdSX9O3Bd+qek1QLx17kpDYA6dQNxrzCa+nEtSavWPC40uvDOTpI27MjPmwMftFkNgt9J8mIdXTku8sG5oAz0swwcHrwmHd+h684jgnlnKuBApT5rU1fyL5Hk29J5w/HcS9Tvv1zSGrMiC7739uBJn1WR8l65OxL44UcZoAz0pQzQAAhWtpObbyTpiOAteBcO37L3fptNRpjw//dpAJR6jNCXDyv5pGKhDFAGqiwDNAASKlzv4vHoBwafFeWduC9KWikxH56q8hoaADQAKAOUAcoAZSBYBmgAJFS8fq7vlZ7yKvSU1/+SuHLUxhXnIyXv7FNtWcATT8oAZaCJMkADINgAcMeeMmPYZ53UG0b9CCJZeiUNgEobYrPOD+9xUaYMUAYWqQzQAAjUtl7VLq+DX5WF4mOSfGu/SPgaDQAaAJQBygBlgDKQUAZoABSpZUfbfDcBOLVh8D1JK87J2xKSLmwwT6nHwn58a6IMUAYoA90rAzQA5lSy47ef0kJFe6akdcYZmPLbU+ryocKAMkAZoAxQBlLKAA2AKRXrtJciU+2mnIi8fTzv/eOnZUjSrjQAaABRBigDlAHKQGIZoAGQU7lmX948ETevUo++7qkmX5HN0OjvT7acr+hxsD3fUigDlAHKQHfKAA2AKRXr5Ev7dKSi/ZykZTKZ86p+fJgwoAxQBigDlIGUMkADIFOh5v3pDnkR3JMkPVWSRw24o95ykh4p6ZhgPNPS/KGklUc/kQUrds47OF5HAIGwwOsDn+UvhWNnBwTSBFgMKM1t5l7ujDetMp722tcl3WpGbHtI8nj/afsWfc2TEL0pGEdXVquaQcNbCPRGgAZAb07VoDJKA6CG0+1Z+opWznkd9rLZ2kbSpYE4i6adt92fs4nzNwIIlBagAVCakAhqEKABUANq5A7At0a3/edl496STm+oEfCFeZnhfQQQCAnQAAhxsXFDAjQAaoD+TrCifmnBPKwwWh4475t7Va+/uGB+2AwBBIoJ0AAo5sRWzQrQAKjB+53BBsA/JK1bMB+3lPSBYPzRhoHXLyAggEB1AjQAqrMkpuoEaABUZ/nfmDZJqKBPG/X+/28kc/7YTdL1CenMawxcKcmNDAICRQR8AXE/lu0l+TEVYbrAewOf1UOnR8GrCFQuQAOgctIbh/L9OvCBH1fKBwTzskUNKw368QUBgXkCd5H0FUn/mijnP5G0/rydB/i+5+QYf87n/f7wAH045HYEaADU5L5D4AOfvSA8IZif1SWdmphWNt3x328Ops/mwxO4h6TzZ5S5qyVtNjyWmUf8oxle48/e+PdbZ8bEmwhUJ0ADoDrLm8X05cCHfvzhv0TSqjeLafYLt5F0VEJa4zSzvz3ksC/BTveRtHRNGfasV45/3iqLZZK/dcFRIGXSqHrfYwuUNTcQlq064Z7Gd1tJ1xUwG38OmYSrpye6h9mmAVDjSVtJksfUjz/YRX97JsElg/m6haTIc8ZpefGEQ66Quhx8nP8n6dyMqztReuhiVZMXbSrp+Inb256t0c+5qwhrSDpEkht7Pg/XjEZ3PLSKyGuO4wEZ92llKPva7jXnpS/Re5bPrMu8vx/UlwMjn70XoAFQ8ynceqIimffhH7/vXsMp4dnBbxvj9Pz7xJQEG9xnqTl3Oi6TtHHJ/DxPkhdTyrpk/35LyfgfIckrNmbjHP/tqZrduOlycKU+zu+837/r4d2NOuwjU3r/vcY7WnUcG3H2W4AGQAPn712Bi+b4ouoe/g9OzNvDJF2YkOZ+iek1tdvbCxyTbz17voSUsF7BaZcfmxK5pLtJ8iiL8Tme9tuNgIcnxt/Ebi+fk//JY4r2aWniGJpMY6ugF51wmzw7pEUDoIEy4Ln+fxG8EPhC6pn/sqv5RbJ6T0knB9N8UiSBhrddXpI7l01WMNP+T53IqGhP7RMSj90NrGn5nXzNPem7Gh5X8BjGx+RHNakNsq4aFM2XP/d+dDS2KPLbDSwCAk0J0ABoSNpjpPNu/c66MHhSodQQffbooV1dDZGK52sJB+G+BZcXvFh76FtKpZbttzDrnPsuwO0TjqGJXdwQm3cXY/LYPjPQRwEfKViexl5+9OQVQQkINCVAA6ApaUnPCl4QfGFwx7wNEvP4wUB6Xr+gy+H9gWNxB75o2CgQv8+Lb+dHgjv+jS/0RX6vGYm84W0PCh6Lj/cdDeex7eR8F6rIec5u45E8BASaFKAB0KS2pMMSLgyeVGjWksF5h/DLQFpdn33sV4Fj+XweyIzXXx2I340yd0iMhF0D8btSuEMk8oa3XTuxY+tHE8txw4dXKjmP3knp8+NzvnmplNkZgbgADYC4Wak9PCb47GBl4IvDG4Kpem6AWb3Zs988/Pfzg/E3ubkrw8kZ5ybzn/0/pSf90YFz8tOEg/9sIP4/JMTf9C4edpk1L/r3jyV5KOEiBj/m8+qeRS2y26XctVpEQ46pWQEaAM16/ye1hxTsbZ69QHisu795FQ2PDF6I1ikacQvbuSd51mLe30UXVhofiu+uRPpn7DPeMfA7Mh+Eb7F3PXjOhWuD52V83nwH5WOSPOpiEYIr/g+VWJvDjdsHLgIEx9A7ARoALZ2yvRMunu4dXnSCII9XH19w5/32hDRLtORQJNn9A8dyccBonHZ08SY3riLhvoH8+1y582YfwpuCxzWtHHqkis+vZ7/z8EevRNn1n0dL8nwbvtVfxTTc7ixIQKANARoAbaiPJvtIuXgUvb393cDF+ciWDIomGxnO6AVqoiGyVKvnZ4jOlhiZPMeVZF96gnvVyJ8Fytm0BsDQX/NkSdHyFC3fbI9AngANgDyZBl73N8/Is21fLD0Wft6Ut76lXXTMvON8bQPHmprEHSV5WFzRiuJFCQl9OxC/n2FHgzslFs2/K4Q+BY+GmLUwUNHjHuJ2ngL6/n062eR14QRoALR8SvcNVA7ji+Sn5+Q5OqTNMwd2NXhyovFxF/l9v+CBuDe/L8RF4vY2fnQTCX608rdA/H28HexOfVcEjrGo9SJv534QntuCgECbAjQA2tSX5IlVPAY/crFzhTVrGNrLAvG5c2HqbINN0Hlt9KI2FyT0ZXDjp2j83i66WqI7bkbif3ITqDWkYReXpcixDnVbj87xnCAEBNoWoAHQ9hmQtEXwNrcvnPeakW8/By96cf3hjHi68JZviRc9Fg9Ni4Y3BuL3kq7LBRPYIxC/H3WsEoy/S5t7dEvkbkfR87pI27mR1NdGXpfKGnmpRoAGQDWOpWOJzq42q6PYXwOVjnsydzW4cEae/78g4UAinSVTxmp/KXAuTknIf9d2ccP0t4FjXqTKfd6xnCepD0s+d61MkZ/6BGgA1GcbitkTBBXtTHXWjFvd0SlnHx/KZbMb7xSsSKLT5/rRh5dfnXfhHr8fXQrYz/8vCsTvqZsXIXidhAMSOriOnRfx9xGSVlqEk9vjY/Dn3fMtPEfS+yR9StJXJXkFxqH+/CBwffLn8nY9Pv+dz3rRBW9eOuNIIusN+Nv1ijPiavutAwOF8y8zGkV5x+GpVyOVjR/VRII7x0Xi3zESeQ+2dWfUnwcNIl592PYcSdv34Fwtahb9xep5ktwAi4yM6kPZaiOPNABq/qS8e84F8xuSPP46L3iGtaIF47S8SDry+u8Dx+KlfKPhzYH4PetdtLPkSwLxezjoIn5D9MRVuwzwsYDv0nl67aWjhZLtKxHwnVB3II7M8Fn0ujnk7WgAVFI8Z0fiZ9mTt47d899LA89bFMiVetEC2uUpZ+8aOA4fr1v50RC5/XVcNHJJhweO4TcJ8fdpFz8O8R2XT0i6MOBStCx3YTsvJ+0hup4p0stLE5oX8Loh+5WYlrkL5ajLeaAB0FCZ9jA/33L2tLCeetSL+8wL/gYZ6TT3zHkRtvj+M4KVhOdjj4Rlg8PW9opEPpqO2FMsF/0w+6I1lOC7An4W60mb3CBwQ+wMSZeWWF+gqHPZ7TwSxNNNe+iuJ4Vy/l8p6cFU+q0X3+2mfHEqe77Z/6bXMBoArRfz/Ay4Q1+kwK6eH1Xr73w8cCzuXR0NWwfit+mmwQTWD8bvixcBAQTiAv6y5A60kS8/kesk2/6vXqEBEC+fje0RWYfcQwW7HCKTI82bGXHacb4tUEHPm3hpWvwvD8Tv5/+3nxYJryGAwEwBr6OQugQzFfv/KvYiFl4HpehidDNPGm/WI+BbkkVOpLfx+PSuhrsHjsPH4mE90fCjQBoeIhQNXw/Ef1I0crZHAAG5hz+LURW/5hetG/K2S1kHhWLakIB7qEemYi26qmBD2b9JMu6bkFcIp70+a1bEm0Q8+sfTL/tZ7rS4pr3m1QIjwR3A3CFsWlzTXvOYZAICCBQXcGdoN8ynfZ54rR4Xz8tC6KiAn1FHCr7HaHc1HBw4Fo+zjoZHBOK3qVdtjAR3cIuci8dGImdbBBBQZLhz5LPIttOvXYdS5rot8LpApeMJMWbNJdD2kbpSL/pB9Gxe0eDhlEXj9zjieUMvJ9N/VSB+LwzjW5kEBBAoJrBb4PNV9HPOdtOvia4r9uTZf7GC2eZWniCoaCH2/PddDasFjsPHmzKU8YRAGkcnQB0ViN8z5REQQKCYwAYVDBX147/vS/qApNdI2l2SGxV9/4l8sXHH5lnH63lVtpXkTpaEjgu4Z2ZkzHl0TvsmD98d+oo2ZLydOwxGguep91rsRdPwBSISfGflykD8XV6MKXLcbItA3QIeKRMZHTT5GfciVb6++BqwiGHjwHXnskUEGOox3S9w4v2h8DPwrgYP6Zv84Ob978ljosGt2rz4pr3+oGACkQ+h0/MkTwQEEJgt4C85kZE12c+yG+T+trvoszNGrj00AGaXt1696znHswV+1t9+5tzlFnDRFRF9jJ4sKBrmrbWQtbsioa/EawPnwnciunwuorZsj0BdAvsHPlfZz7DXE/G6AEMINACGcJanHKN7aGYL/ay/fzll/6685Ol8Z+V98r2nJ2T8F4E03K8iGo4JxO++CAQEEMgX8CO1jwY+U9lrxOmSVs6PeuHeoQGwcKe02AF55bFswZ/1t1vSXQ2+TTcr75PvecGgSHBve98BmYwn7/9XRCKX5ClJI0uOviMYP5sjMCSBNSVFOuxmP8fuE9Xlqc7rOI80AOpQ7Xic0VXzntLh4zksUDn71l40PC4Qvy8mGwYTeGgw/ocH42dzBIYgsPboW7+nns1W6kX/9tTa7usztEADYGhnXNKTgx8Sr82+TUd/vD5B0Q/5txOO4bOB+D2ropd1jVgdEIjfC5d4AaBI/GyL1yKWgR0leQn0D0k6NfAZyrtW7D3AesCHTANggCc+tXNM3oeH14s3QrDCijLQrTJw3AB6++dVczQA8mQW+HUvJMNFCAPKAGVg6GXAM4gOqdPfZLVGA2BSZMH/f1hwUpuhXyA4fipJysBilgGPa3ffgSEHGgADOfseGuP5mSMz2nHhW8wLH+eV8zr0MuCRN1sM5No/6zBpAMzSWZD3fJJP5LY/jz0oA5QBysB/pkD3NZFAJ8CFLgOeJOcLktx7fOgtfo6fMkAZoAycxm3/m9R53AG4Ccdi/OPVrzzTH7f7ueBR6VEGKAM3lgFfE5dfjEt8ZUdBA6AyynYjWkXSSyR5qVg+8BhQBigDlIEby8CvJW3V7uW5s6nTAOjsqZmfMd/if6Ekrz/Pt30u+FzwKQOUgf+VAQ939iRmi76i3/yaIn8LGgD5Np1651aS1h0V6I9J8vhVPuwYUAYoA5SB/5UBXxc/LOkhnbp6dzczNAA6dG6Wk+TFLLaUtLOk10g6WNKvJF3XUIV/nqQz+cGAMkAZ6HAZOFnS8ZK+LsnLdft6uU6HruV9yQoNgJbO1PqS3iDJi9l4ud3LG6rg874teMW710laoiUPkkUAAQQQaFaABkCD3v6G/2pJf2i5sp9sBJwraesGHUgKAQQQQKB9ARoADZ2DZ0k6v2MVvxsCn5TkNe8JCCCAAALDEqABUPP5XlbSJzpY8XtmwM1qPnaiRwABBBDorgANgBrPzR1GHfgmb7m3+f8fJT2dZ/01nnWiRgABBPohQAOgpvPk5/0/6tA3f48k8JhYLwpEQAABBBBAgAZATWXgKx2o/L3i1adZ9aqmM0y0CCCAQL8FaADUcP52arHy93C+Y0bjYm9dw7ERJQIIIIDAYgjQAKj4PK4g6aKGGwCe/cqzAz5JkvsdEBBAAIE+CNxe0qMlPVHSRpKW7EOmFyiPNAAqPpkvrbny//towZ8DJe0u6b4V55/oEEAAgboFfHfyAEnXT1wvz5a0Q92JE/9/BWgA/Jei/B9edMLT6Jbt5X+VJK9bfaykQyS9XdJTJa3FwhblTxIxIIBAqwJeknfWqqX/Hi1y1momB5I4DYAKT7RvYUUrfz8u2FvStpLWluRHCAQEEEBgUQX2LXCd9J0B7m7WXwJoAFRo/KoCBTvbQPBiFjyzr/AEEBUCCHRawMOjPTopex3M+3v/Th/JYmSOBkCF5/GIggXbBf5vklasMG2iQgABBLou8ODANfIXXT+YBcgfDYAKT+JJgcLtlQAJCCCAwJAEHhe4Rv5+SDAtHesmgfNxaUt57E2yfwpgPqQ3R0VGEUAAgWoEnhG4RnIHoBrzWbE8PnA+vJgdYYbAxQHMDWbEw1sIIIDAIgq8PnCNPG4RATp2TJF+a6d2LO+dy46H7uV1aJl83csDExBAAIEhCXw2cI08dEgwLR3rDwPn48iW8tibZN1inazo8/737S1mverNqSWjCCBQgYBvI+ddEydf37OC9IgiX+BhgXPhc/Ou/Kh4xwIfCIK+BzYEEEBgIAIPDF4fmRGwvoLhmRhPDp6Px9SXncWIOdKhYtza/Zqk1Rbj8DkKBBBAIFfgQ4EKx7MBrpIbE2+UEfBkc0cHzoXrKk9Bz+Jyc9RvI+naIKxxvYKflw/edE78vI0AAgj0UWBlSdcEro2/7eNB9iDPW0o6JXAexl9UD+vBsXUiiwcl4I6R/ftESR4qs1QnjoZMIIAAAuUFvPBP9jo37+8yj0d958DPt7fh5z8GXkdmL0nudzbPPe/9zcsXgWHEsKYk377Kgyz6+rmS9pC09DDYOEoEEFhQAd/Z/FfwmrhegsU6ko5JSKvoNXmo23mkACEg8NFgYZ9VsP4syUsMLxtIn00RQACBLgj42/h5weuhO6dFgydWuzKYzqzrLu/d+CXWDTcvckcICLiThde1rrIQee2Al/BoIHAW2BQBBNoUcJ+oyPTo4+vlc4OZ9vLC/qI03p/f1VnsFzwXbD4S8KIXV9VQKM+U5Gc6SyCNAAIIdFTgzpJ+mXD983Tqtwoe064J6dBImN9IcH80HkEHC2N2c3dC+UdNhdMnZ+tsYvyNAAIIdEDA16W/JF73ot/+fbieMZAKvVqDcyTdtQNlqfdZ8LAL376vq4B+VdI9eq9U7AB8q29tSRtK2iLYw9fb35s7J8Wg2QqBBIG7SzqkRCfoExJnRz28xutrXdftLsfrx9f3STj/7JIjcBdJ362xkHp8rZcXXqTbNctIeqSkfSR9R9JFFfmdJcnrMPAIJaew8jICAYFbju5EuuK/rsRn1Pum9Px3Vv2cussVap/y9nNJrq8INQg8VtKvayysfxxVmjVkvZEobyHJRl8IThqS8gHztM19D774ehZJ32V60qhvyG6S+MGgzjLwMknvk/StCnveO87UsFmN19SUa0sf9/FkdO+lk3lqESy+nxcAciV3bE2F1nMQfLhnwwZ95+KFktzBsckPzxOLn7ZObOkGkh9leFEO3y719JxNepEW3nWUAd/CL3tHzo9C68jbEOJ0XbR+J65wA8vE/SV9PHH64HkF09M9rt4Dz6dI8m35ecdTx/u+3dWHcDdJ7y7RsaoOO+Jsp8wumrsbsu7bUzakzG+/aJaR47lC0qckbVwWnv3LC3iyDE99eXXFFaGfm3tKzC4G9zA9quLjjXwAvK3vlnR5gYsVJR0o6fqWnaKubE/joEgZ8JcUl/EOVzP7AAAgAElEQVSqgu8i+FGYF1j73eiOou8qDv3HFj+V5Pn83zi6i7hI/cWqKj+tx7OSpDdLuqzCC76HIXZtGcdHS7qkwmMscrHJ2yYy1MWNKd+x8bcWT4/5QUn3q6HU+EK2i6QLOmKUZ8frVPSpZeBnkny9IyCAwITAHUbPeat6xut4Hj6RRlv/vq5Dc3X7m7U70s0LnpjE38SnXew8Veae8yIIvO+LYp0jRqYdA69NP7e41OPyJUnLBT4TbIrAIAX87dQVj3tolr0YeVbCB7So6G+1XRuuU3TO8SLrmL+gAts1JP2+gnNdtqywf/nPG4Y3N/TdSK9rUrbDXwUfNaJAoD8Cvs3sITdlLyqeZtP9DdoI+1aQ/7LHP7n/ZwpAeIWxIiuZ+bGNOyKlBg/lu7SDRpNm/F/+czhEw++NJvFK/XywHwKDF3hCBYsMHd1CC/z1Ha3Yiqw5/qZA3ndILKHuW1DV454hVi4cc3cbJaezdkniVYHdEJgi4GWB31py6KBXFWwquANikW/Q0Yu4vy1P+4n0mHeP2HkhMs/4q+ZFNuV9T7lZZafPqCPbd7fy7Ou58eiaH0naKXFq3ykfE15CAIGswJqSTg18O81eTDzccNVsZDX97T4MVdzW/rGkt4ymHF1ZkifEyQufD5i4ITUvfCQQ3+7zIpt43x2hfhuIP3sO+ZuKu0tlwA1vj4zxlOR9mH9k4qPIvwj0T8Bj2CMVXvaC4f3qDO7o48cN2TQjf7vDkGc09DP4SIhU2O7cNy946eWi+Y4OCdw/EHfRPORtd54kryC5qD9ewCTv2PNe/80Ce9R1nl3Jf3M0Xff7JbnR6/4rXZ5PY95nnPcR6LWAn2XnXeRmvf7AGo/at/9mpT3rPXcYWisxb3sH0nXHynnBE2YUmanwmHkRTbz/kJKPRv4cnDiq7gbfxOE1/u8XA+fdZa8vs0A2DkmCCCDQLwF/2/a0jrMq1WnvecasOoJX8kv5Rubhjh4mVCZ4UZFpxzrtNU+0U2RIkhtKnjpzWhx+zaMrIhMKOU1PJpQX36zXneddR4t2ROY/94qRZUYplDknde/rOy/RfiZdmxyrbiPiRwCBBRbwhDa+NTer8ph8z511Ur9pz6L0wj6Tac373/MUbDsr0oLvbRNMe92C8a49ZYIeN1g8veadCsYx3syLQc3zmPb+kRNTp7ohMG27vNfKNq7G+e/ab779d+2MkB8EEGhc4M4Jne68rGeVwQ2R6Kp+rkirqPx9HLcbzfGfVwlOvu7OhZHgb/qPHD33TJ3H/PvBitt5dt8GrySZDc6LG3GTx5T3/zmSPKvhIgW+/S/S2eRYEECglMBzAhWCK4oLK64UfGs1rwLKe32PUkd8850js+mdX3A64JunkvaKh/3lOeS9/ukZjyo83Cpvv2mvL9pdAL79p5VD9kIAgQUU8PPlnwQrha0qdIhekKOd54pkNTISwJXkbkUirWgb33GYVjHnveYV09ynIi88Ixjf5QmPLPLSbvt1vv23fQZIHwEEOiewY7BS8HCeKoI7mV0bSNuz39UxZniLQB5c8bpj3W2rACgQR2TuBt/e32ROnG4ceNnnvAbEtNfd+bNI58c5Sbf+drSxSc//1k8ZGUAAgboFPFGOn/dOu/hPe83joasIkTHzzoeX060j+Fm5h8lNO9a816ruCzHtuO4bzNMR0yKZ8tq7g/HaIGXWwilJt/YS3/5boydhBBDouoCnuc2r7CZfdye8Kiby+EogzbpGIIzPyzsDebGHDepeMtlLIU/az/r/UeODmfP7jnOGKU5L4wZJj54Tb5ff5tt/l88OeUMAgVYFPNHMtAt/3mublszt8pI81jwv/snXPdlPncFD8yKPI5w/30q/e42Z8i3oSYe8//1YYtaUx5PZTFlwyT5FGxmT6bX5P9/+29QnbQQQ6LyAh3t5bH1eBTP5ukcPlAlPDqTltKPz5qfkzVMJTx7nvP9Pnhhrn5LutH3csIgM2TtoWiQzXvO6Ah7RMO/4Jt93I2D7GfF28S2+/XfxrJAnBBDolMB3AxVCkYVxZh1c5KLs2+2rzIqsove84FGkETSuHE+qoRHgFRjH8Rf5nXJ7PnX6ZTdM3tXwcMjUU8y3/1Q59kMAgUEJHBKodD5WQsbfPr3CYJGKzdscVyKt6K6vCeQrm/8zKp4lMTL5j4fqLRU90NH2njMgexyRv38g6d6J6Ta1W6Sh6WOn539TZ4Z0EECgUwLvDVQGntI2NUSHHVY98c+sfLsijQy9y1aYl42WIJ4Vf5H3VpLkTnfZuGf9/ZkikeZs486cfwikNZkPL+t6oCTnuWvBK0My53/Xzgr5QQCBTgq8NlARfL3EEbjxMFmR5P3vC7inLG4yrCfJywvn5WnW636EcM+SmY3O2e8GVZmwcbDBMe34L5b0puAiR2XyXGRfvv0XUWIbBBBAQNKbA5Weh/ClhGUlXRlI5/iURCrYJ/oMPlspfrJk+kcFfDw5kkdUlA3RRkf2eLN/+87F4aP1D9qcPIhn/2VLBPsjgMCgBCK94A9NlHlCoHJzxfLixHTK7ubKy8eYrdyK/u1HAanhNsG7D65sqwru2Fn0GIts50cpHl7aRuDbfxvqpIkAAr0ViFw0U2fl8/PqIpWHt/Htf69g11ZYWtIPA/nNHpcn20kJ0dkRd0lJZMY+0QmRssc87W8PG9xyRnp1vMW3/zpUiRMBBBZawFP8TruIT3stZWpYV6hXBNLwynVtBy8XfGIgz7byMLnUmRIjjTB3wLt9DUCeFTIyB8G08pF97dw5CxRVfQgRQ+eTnv9VnwHiQwCBXgm4F3ekx7Qn8omGxwUr0v+LJlDT9p4lMGLzq8R8uH9EZB6CbyemU2Q3rxqY2hEyW/mP/35ikUQr2IZv/xUgEgUCCAxLIDo0b60EnsgzdX8DrXOa3Uj2tw02XDzNbkp4fDCdF6QkEthnI0lnBfM0rvAnf3vioCYC3/6bUCYNBBBYKIEDAhd638b3CnqR4KmGLw2k8ZNI5DVvG5kgyRVf6uQ4Bwd8mhoe6UcgkX4bkxX/+P/9aj5Hjp5v/w0gkwQCCCyWwC0lXRiofFJuPT8mEL8rjZd3hNj9FjzT3rgim/fb0wKnBJ+DSwLp/DglkRL7eKrhswP5m3R6fom0i+7Kt/+iUmyHAAIIjAQeEbywpzyb/1QgDd/+v0dHzs52gXy70nt1Yr63CabzisR0yuy2jCR3/ozcybGJV31MHRVRNL/rBvtpOF9ulBIQQACBQQt8Ilj5RG9x+/Z/5Nvtzzp0Nj4btFk9Me+RORhcea2WmE4Vu3nkwZ6S/lrQxpMq1Rk8Z4PXJbBL0R96/td5RogbAQR6IeC57yPf6Lz8bTT49nHRC7O3SxliGM1Tke39jTcybPGnRSKdso37U/w5YJQ6ymBK0qVe8uORZ0nybI3Thg16FEETj3Kicye4jPHtv9SpZ2cEEFgEgccGKh5fOP3NLxo+Hkwj9Vt0NF/zto+OjEit7DYJ+uw1L+MtvO9z5scfn5PkuyYeCdHEYxzfjTg/6Me3/xYKCEkigED3BKI9vKO3/6MdDD3pTldCpFNZmX4L7wlWYF7ljnDjSJTIugnju1B8+6f0IIDA4AWiC/OkVM7RDoZekbALYTlJVwcq5jKzFp4RSMdL9xJuFHhbwG1c+XepfwnnEQEEEGhNYIfgBTTl2fxBwTTWaE3jpgk/JZjv1EWLHhBMZ5+bZnOw/+2c0+9gXNHn/d58sGIcOAIIIJAR+EKg8km5xX0LSRcE0uhK5zYTfTWQb0/Kc5eMa+TPyBLMrtQeHIl8Qbf1nAKRqZnHjYEjF9SDw0IAAQRCAl5D3uOzxxfHeb9TZubbOhC/00/pYBg66IIbryDp74G8f69gvNM2iyzAdJ4kD3kbcvBdqGkjDuaVX5f1ew0ZjmNHAAEExgI7BSo4X1xfOt4x8PujwTTWDMRd56ZeCGdehZJ9P3VOfj/uyMYz7+/UJZjrtGoqbvf2/3LQK+v5yqYySjoIIIBA1wUOD1xMU25xe2z7XwJp+JtwV8LXA/n+p6RVEjPub7PZSmre31slptP33baQ5CWF5/nkvX+cJD+OIiCAAAKDF7iNpGsDF9SUW9y+aOddkKe93pWx7V78JrIM7ndKlCZPHDTNYtprF0vykMohhbUleShmyi3/saHXuEjtnzEka44VAQQGIrBLoOLxhTTlFveHgmn4Yt+F4JntxpVHkd+7Jmb6rsGK7ZOJ6fRtN985ck99TyiU0tEve87ckNusbwDkFwEEEKhTIDJ5yg0JC7lEp7Y9pc6DDcZ9dKABkGIzzs4egXRcqXnGxkUNnnPhYZLeLulPQZdshZ/923cN3NAlIIAAAgiMBFaUdH3gIntMgtymgfh90fZQuC4EdzS7LpB3NxZSw7GBdK6U5HUJosHrPLhifVKHfnaT9BpJ75J0sKRfS3JDKlt5V/F3SqfVqC/bI4AAAr0SeF7wYvvchKP7QDCN+yWkUccuURs/LkgJboRFKr3PJyTiOwwXBc9DFRVv23H4m3/qmgwJzOyCAAII9Ecg8s3T34b9rTgSPE490mP795HIa97WHfqKVmC2uUNifqL9DDwrYSREG2BFj7nr2/nO1jMjUGyLAAIIDEXAw9U8bK3ohTxl5rSHBOJ3PjyfexfCHYPfyj1UMDUcETDyaA1PTFQ0eKGboud3kbbzKImHF0ViOwQQQGBoAtGOZ54QJxreH6yA1o0mUNP2HukQqRBTbJz1WweHYEYbYZG7GJHj7fK2XuDn7jWVC6JFAAEEFkLg+EAl52+eni8gEnz7/5xAGl1a2e77gXzb5rYRmMy27pAXqUyfndm3yJ+RFQwj+ejitr7l/yZJtyoCwzYIIIDAUAVWDY6r/koC1MbBys3DvroQ7hR8NOKFglLDYQEjdxRcKZCQh19GHvF0sVIvmic3ZtcL2LApAgggMFiBlwUqHl+En5wg9Z5gGhskpFHHLi8J5jvaKW+c56UlXRFIy1PYRoPvqhStRPu43e8kPTGKwvYIIIDAkAUi0876NrInZ4mGMwOVz1kdWtnuR4F8e1U5P8dPCdEOei9KSOStgWPpUwPg56O5DHyXg4AAAgggUFDAy6BG5lP3bepo2ChY8ewTTaCm7aOPRjw3fWr4eMDI58t5iwb3TTgjkE6XGwF/k/RhSetHEdgeAQQQQOBGAc+8FrnQb58A5wo9ksYDE9KoYxdPGhPJ946JmfBqdF6YpmhavmOTGlaX5OmVi6bVle3cqe/Hkt45Wg+AFfxSSwD7IYAAAiOBXwYqg8sTp539YyCNszt0+99DyIpWgFdJWjaxVEVXR3SjrUxwz3hPiuM7Fj+RdGJHfk6Q5KGK35B00Gga6J1H3/LdR4KAAAIIIFCRwH0DFZwrQs/PHg3uzFe0EvV27izYheCx45FHI58tken9g0b3KZEWuyKAAAIIIKC9ghXPoxPM3hFM48EJadSxy6uD+d4uMRPR6ZFPTkyH3RBAAAEEEPivQORZ8KWSvIJcNJweqEjP69Dt/5MC+fbwvZQV+WzpBk/kDklXVkeMlgO2RwABBBDoiMD9gxWPn8lGg6fyjVRuniq4C8Ed5SL5PqREpqMdJLsyPXKJQ2ZXBBBAAIE2BfYOVnJbJ2TWi/lEKlIvFtSFsGcw39uWyHTkDonnRyAggAACCCBQSiAyK5yHqN0yIbXTAhXp+ZK6MpHLbwL5Tn00Ys77BdJxQ6orHSQTigK7IIAAAgh0QWDDYMXzoYRMRys3r1PfhRAdGeEJfFJDtBNmV+6QpB4v+yGAAAIItCzw7mADYNOE/LqzWuT2f0oaCdmau4tXkIvk+xFzY8zf4FeBtP7aoTsk+UfEOwgggAACnRXwsDNPtlO0kvtzYsUTGWHgyq0rM7udGrC5KPHRiAvHPYPzDHjaWwICCCCAAALJAr6NXLTy93bvS0gpehs95RFDQrbm7hIdGXHA3BjzN3hF8Dxskx8V7yCAAAIIIDBfwM/aIw2AB82P8mZbRJ9teyrcLoToqIUtS2Q6ssrgZZI8fS8BAQQQQACBJAH3sndv+6INgNRleSO96L2qW1du//8+YFMm36tI+lcgrZQpmJMKCDshgAACCCymQHTRGa+8Fg33DlRsboiUuY0ezdus7dcL5rvMM/ndg2mlTjM863h5DwEEEEBgQAIfDVY8rhSj4XnBNLrybNuNnaJ3RrzdZlGYzPbHBNK6RtJymX35EwEEEEAAgZCAJ/K5IFDxeIa6lPCGQBpletGn5C1vH4+MODOQ79SREU7/dpKuC6T1pbxM8zoCCCCAAAJFBDxePfIN9y1FIp2yza6BdA6csn8bL7mjY8Rm3xKZ3CWY1tNKpMWuCCCAAAII6BPBimedRLO7Bzq4dWXyH0+xG2kAlJmR7/BAWteP7hgkngp2QwABBBAYuoCHkF0SqHjKrjnvjn3zKtSjO3JSfPv/TwXyOz4eb+t9UoKf5V8dSOuolETYBwEEEEAAgbHAYwOVjis6r4ZXJiwj6Vsz0jxJ0h3LJFDhvpvMyOe40s/+fm+JtHcMpuXHKQQEEEAAAQSSBT4drHg8lK9s8JwDz5fk+e7/OZr29neSXitp6bKRV7j/fkGbjUqk/ZlAWjZbuURa7IoAAgggMHABfxu/IlDxnFiTVxeHskUnRvJIgdTb/34M46WDs3cTZv39/ZrOA9EigAACCAxEYIdApeMK6VUDcfFhbh60eUcJm0cF03ppibTYFQEEEEAAAX0hUPH8e7RK3VDYPJvfrG/hk++lTIw0tvSQx8n48v73efBoCgICCCCAAAJJAtFe5z9JSqWfO3n9Ac/nn1cJT77udQJSgx81eMnjyTjz/v9FakLshwACCCCAgAWeGqh0XBkN6bbz1kGbt5YoUp42OK+yn/b660ukxa4IIIAAAgjoa4GKx6vT3XVAZgcFbFxJp06MZFLPHDitos97bc0BnQcOFQEEEECgYoHbSLo2UPEMqde510W4MGDj4YtlgpdVzqvsJ18/tUxC7IsAAggggMAzA5WOK6EXDIjskUGbvUrYbBhM620l0mJXBBBAAAEE9M1AxTO0SWc+GbBx42itEuVp72BaG5RIi10RQAABBAYucPvgkrPfHpBXdF2EX5e0OS3QADinxERDJbPJ7ggggAACiyDwvECl42+4z12Egy54DNF1EV5XMN5pm90neB7ePy0SXkMAAQQQQKCowLGBisdLzt6haMQLsN2hARs3jtYoccwezuc4iv50ZXnkEofMrggggAACbQl4lb0bApXOkW1ltIV0vQjR5QGbsusieEKfopX/BZI8OREBAQQQQACBJIE9ApWOK6dnJKXSz522D9qUWRdh1dEKiEUbAJ4qmIAAAggggECywPGBSs7zBNw2OaX+7XhYwKbsugieVbFo5e/tvFgQAQEEEEAAgSSBu0jyjH5FK56vJKXSz528LsJVAZsTSh6mJ1Yqeh78WGKpkumxOwIIIIDAgAVeFqh0XDk9uYSVO6z5G/Xpks6QdJSknTo8jO1JQRtbpoaVgv0wPp2aEPshgAACCCBggZ8GKrlrJC2fwLaEJA9X8y3yad9wj0mMNyEroV2+lJPfacdQdjne6DDMHUJHwsYIIIAAAghkBLx+fF6lPK2S87f3lPDKAhXpF1MirnEfN3SuLpDvsdMPS+YlMgvj3zvaYCpJwO4IIIAAAk0JvDZQwbmic4/4aPACQ1cUTGfjaOQ1bh9dFvlFJfKygqR/FDTyefhqibTYFQEEEEAAAf0qUOm4El82wSyywNA+CfHXtUt0WWR3pkwNTwucBzcAdk5NiP0QQAABBBCITjl7SCKZJw0a3yaf9zv1EUNi1nJ3iy6LfFxuTMXeiPQ18CyMXreBgAACCCCAQJKAl6udVyFn3982IZXore2PJqRRxy67BG12L5GJZSRdGUjPHSYJCCCAAAIIJAucEqh0Lk0cc75VIA03Nrpya/sbgXyXXRZ5u0BaNirT2EguLOyIAAIIILAYAvcPVjofSzxsD1XL3kWY9XdXbm3fruFlkQ8OGHnCpjsnngt2QwABBBBAQHsHKh1X2tskmm0QSOfoxDSq3u05gTzbpsyyyLeSdEkgvbJDDau2Ij4EEEAAgZ4J/CFQ6Vwo6ZaJx7ekpLMKpvWUxDSq3s3P2Gfdqci+57sWK5bIwMMDaTndl5dIi10RQAABBAYusGGw0vlwSa8dC6T3k44saxudjteT95QJHylgk21wrFYmMfZFAAEEEBi2wLuDlc5mFXB5lbsbctL9uaSVK0ijiih2y8ljthLO/u05DlKD7478OZDeL1MTYj8EEEAAAQQ8J//ZgUrnL5JcUVURHiDp45JOlXSmpO9IcoWb+nihijxNxvHdgM11JcfjPySQlhsdb5zMLP8jgAACCCBQVGCTYKWzb9GIF2C7O864S5H91j/++4iSx/ye4LlYp2R67I4AAgggMGCB/YKVTpfm5q/7tO0RtHl6yQx5OeRxY2Leb3faJCCAAAIIIJAk4Fv55wcqnT9J8iODoYQfBGyuleTpglPDuoG03Dh4Z2pC7IcAAggggMDmwUqnSwvz1H32PLmOZ/Sb9018/P5XSmbozYG0nOaDSqbH7ggggAACAxaIDjlbf0BWHqUwrtyL/H5ySZuTA+n5rs2Q7sSUpGV3BBBAAIGswC0kXRCodPx8ekjB8xAUqfi9zTWSli+Bs0YgLae3f4m02BUBBBBAYOAC0Rnn3jogr7tJ+negUv5CSZtXB9JyA2DLkumxOwIIIIDAgAU8/r7oN1xvN6QhZ68M2niBozLhhEB6F3dsnoQyx82+CCCAAAINC0QXnDmt4fy1nZxnIizaOLpS0rIlMnzX4N0GN9wICCCAAAIIJAk8NlDBuSJ8Q1Iq/dzpXsEK+TMlD/NFwXPxmJLpsTsCCCCAwIAFPh2sdO5TwsqL1Xj44Pck+Zv1pyQ9okR8de/6mqDNdiUzFJlq+CpJy5RMj90RQAABBAYq4Ark8kAld1IJp90leYKcabfTv9zRyswL7EzL77TX7Lh0CR8vG5y3INK09A4rkRa7IoAAAggMXMAd1qZVLnmvuYd6SvCSv/N60n82JeIa97l30OaQknl5djC9snMNlMwuuyOAAAII9FnAQ9byKvvJ112B3zPhYL2a37kF03loQvx17bJnwTyPnbYtmZGvB9L7h6QVSqbH7ggggAACAxVYTtLVgUrHw9NSwlaBND6QkkBN+0Rm47tE0lIl8nHrGY9Hxg2M7G83FggIIIAAAggkCewUqJhd+fxfUirS2wPpHJWYRtW7rRXIs23KDsfz7fxsBT/vbz8uICCAAAIIIJAkcHig0vmXJI9RTwnHBNL5YkoCNewTXYyn7EgGd+ibV+mP3/eiRCvVcMxEiQACCCAwAAEvVZvXI39c0WR/H1/C5MxA5eZhd10Inuwoe/yz/r6w5Gx8fnRwRSA9DxUkIIAAAgggkCSwS6DCceX3wqRUbtwpUrltXSKdqnZ9YNDmgJIJR5dh3qNkeuyOAAIIIDBgAT9rn/WtNvuebzmvUsIqcqdhoxLpVLWrZ/PLHv+8v8suxrN3ID2PxFi1qgMlHgQQQACBYQncQdJ1gUrn2JI87iE/rxIdv192Jr2SWdXGktzfYZyfeb//KslLKZcJPw2k520JCCCAAAIIJAnsGqhwXAF6+zLhlEB6B5ZJqOS+d5T0x0BebfPBkmneXpLvsMxraIzff2PJ9NgdAQQQQGDAAt8OVDjXS/IUtWXClwLpeYKbNcoklrivH3H8IpDPcYX8gMT0xrt58qBxXEV+P3i8I78RQAABBBCICPhbbmS++SrG5b8qWMmdKsn5bCo8UtI5wTy6svaCRmWDp1YuUvF7m0sreNxQNr/sjwACCCDQU4EXBCocVzrPrOA41wmm6XT/ImnnGhcI8jS6XgchcjdksqLevgIbr4Y4GW/e/563gYAAAggggECSgMfz51Uwk6/7dvxtk1K5+U6RaXWz+bhS0omSvlPRj4//9OBz92x+xn//WNKSNz/M8CteEnkc57zfnpyIgAACCCCAQFjAM/lFerhX+Y3zuYGKbl5F2Pb7HkHhuxpVhKsCLk+qIkHiQAABBBAYnsCLApWNK1mvFVBV8Gx3ZwfTb7uiz0v/rRWhLB/08PoEBAQQQAABBMIC3whUONdI8gp1VYZHB9LPq3zbft2dIr28cRXhLkGP21WRKHEggAACCAxLwN/AI7ebP18TzyeDlV7bFX42fT+v97f2qsLaAQvPFVBFn4Oq8k48CCCAAAI9EdgqUNm40nMP+TrCMpJOCOYlWwm39bcr/5UrBvGsg0WP5+KK0yY6BBBAAIGBCETG4rv3f5XfdCeJfSs7Mv1t0Uqyru2+LGm5yYOo4P/NAg0ArzhIQAABBBBAICzwsUBlU3bu/yKZ8/DCSJ+Euir3WfG6H4SXJ16iyAElbLNB4Jw4LwQEEEAAAQTCAj8IVDZNjTd3xfoKSVcH8jarwq7yvSMk3TOsHNth9cBxexVA+gDEfNkaAQQQQEDSeYHK5qkNi91NkmfEi6xQWGVlP47L6X9O0kMbOn73KRinXeT3nRrKF8kggAACCCyQgOeRL1LJeJu2FpxxBee+Cj8KrldQ9Limbfc3SX7G/2JJXhCoybC0JH+zn5avaa9t2WTmSAsBBBBAYDEE/h6oaKqa5a6MnEcL+Bm5RyN4FsHdKvpxXNuNvuWvViaDFe0bmRzJ6zgQEEAAAQQQCAlEpgC+dyhmNi4jcGSgYXZwmYTYFwEEEEBgmAIe2jfttvK01/zNm9CMwD6B8+LHFXQEbOa8kAoCCCCwMALnBioaT9lLaEbASx5Pa4TlvfbAZrJFKggggAACiyLgJXXzKpXJ190hjtCMwKrBjoDvbyZbpIIAAgggsCgCkUl3Dl2Ug+7Jcfw60Di7rIZFmnrCRDYRQAABBFIE3hGoZM5KSYB9kgX2Dpwb361hNEAyNVW4ox8AAAdXSURBVDsigAACwxPwcLrJW/2z/udZc3NlZJPguTm/5rUamjtyUkIAAQQQqF3As+3NqvAn33tf7TkigbGAp0Q+PXh+3jbemd8IIIAAAgjMEzgzUMlcIcmr9hGaEdgjcG7cWLu2gbUKmjlyUkEAAQQQqF3gXcFKZq/ac0QCY4EVJF0ePD+HjXfmNwIIIIAAArMENgxWMF6CtgvT5c46pkV6b9/g+fE6Al2YtnmRzgHHggACCCyswB+DlcyxzD7XWFnwYkh+9DLZH2PW//s1ljsSQgABBBDotcALgxWMK5939vqI+5X5VwfPj2d4JCCAAAIIIDBXYFlJnlN+1rfKyfd8q/k5c2NmgyoEvERw9C7NvapImDgQQAABBBZf4LXBBoAbBF5N8PmLT9OJI9w+eH4e04lckwkEEEAAgc4LLCfJs/1NftOf97/vBHh+gFt1/gj7nUHPCxC5C7Bbvw+X3COAAAIINCnwqIQGwLiBcIKk+zeZ2QGm9Z3A+XG/DgICCCCAAAKFBT4XqGTGlf/49w2SPijJMwwSqhVYStKFgXPz7GqTJzYEEEAAgUUXWFFSZHbAceWf/e2GwOclbSfJHQwJ5QXeG6j8fS62LJ8kMSCAAAIIDE3At/KvClY42QZA9m9PHPR9SftL8m3pp0naVtI2/BQyeKakbwXPhftlrDy0QsvxIoAAAghUI7CjJFck2cqcv/vhcVI1RYBYEEAAAQSGKvDc0VA/Kv5+VPzj8/T6oRZYjhsBBBBAoDqBnST5mf64cuF3ty38yGWl6k4/MSGAAAIIDFlghwr7BNCAqLcBwRTNQ/6kcuwIIIBADQJrSTqFOwGdvhPiiYIYdVFD4SdKBBBAYOgCy0v6BJ0DO9kI8KiN9YZeQDl+BBBAAIF6BR4q6ZfcDehMQ+Dvo6GV9Z51YkcAAQQQQEDSLSR5vvnI/PQ8/6/++f9FkjalRCKAAAIIINC0wJKjGf++x6OBxu8IHCnpTk2fcNJDAAEEEEBgUsBrAOwh6duSruMRQS0Ngn9KOkbS5pP4/I8AAggggEAXBJaRtKEkL0qzr6QvS/JqdidKOmO03oDXHOBntsFvJf1A0kGSdpV05y6cXPKAAAIIIIAAAggggAACCCCAAAIIIIAAAggggAACCCCAAAIIIIAAAggggAACCCCAAAIIIIAAAggggAACCCCAAAIIIIAAAggggAACCCCAAAIIIIAAAggggAACCCCAAAIIIIAAAggggAACCCCAAAIIIIAAAggggAACCCCAAAIIIIAAAggggAACCCCAAAIIIIAAAggggAACCCCAAAIIIIAAAggggAACCCCAAAIIIIAAAggggAACCCCAAAIIIIAAAggggAACCCCAAAIIIIAAAggggAACCCCAAAIIIIAAAggggAACCCCAAAIIIIAAAggggAACCCCAAAIIIIAAAggggAACCCCAAAIIIIAAAggggAACCCCAAAIIIIAAAggggAACCCCAAAIIIIAAAggggAACCCCAAAIIIIAAAggggAACCCCAAAIIIIAAAggggAACCCCAAAIIIIAAAggggAACCCCAAAIIIIAAAggggAACCCCAAAIIIIAAAggggAACCCCAAAIIIIAAAggggAACCCCAAAIIIIAAAggggAACCCCAAAIIIIAAAggggAACCCCAAAIIIIAAAggggAACCCCAAAIIIIAAAggggAACCCCAAAIIIIAAAggggAACCCCAAAIIIIAAAggggAACCCCAAAIIIIAAAggggAACCCCAAAIIIIAAAggggAACCCCAAAIIIIAAAggggAACCCCAAAIIIIAAAggggAACCCCAAAIIIIAAAggggAACCCCAAAIIIIAAAggggAACCCCAAAIIIIAAAggggAACCCCAAAIIIIAAAggggAACCCCAAAIIIIAAAggggAACCCCAAAIIIIAAAggggAACCCCAAAIIIIAAAggggAACCCCAAAIIIIAAAggggAACCCCAAAIIIIAAAggggAACCCCAAAIIIIAAAggggAACCCCAAAIIIIAAAggggAACCCCAAAIIIIAAAggggAACCCCAAAIIIIAAAggggAACCCCAAAIIIIAAAggggAACCCCAAAIIIIAAAggggAACCCCAAAIIIIAAAggggAACCCCAAAIIIIAAAggggAACCCCAAAIIIIAAAggggAACCCCAAAIIIIAAAggggAACCCCAAAIIIIAAAggggAACCCCAAAIIIIAAAggggAACCCCAAAIIIIAAAggggAACCCCAAAIIIIAAAggggAACCCCAAAIIIIAAAggggAACCCCAAAIIIIAAAggggAACCCCAAAIIIIAAAggggAACCCCAAAIIIIAAAggggAACCCCAAAIIIIAAAggggAACCCCAAAIIIIAAAggggAACCCCAAAIIIIAAAggggAACCCCAAAIIIIAAAggggAACCCCAAAIIIIAAAggggAACCCCAAAIIIIAAAggggAACCCCAAAIIIIAAAggggAACQYH/DztYHKmCtDUnAAAAAElFTkSuQmCC;" parent="1" vertex="1">
          <mxGeometry x="911" y="194" width="92" height="92" as="geometry" />
        </mxCell>
        <mxCell id="8yuOUE8DRb-jMOZw8tpv-30" style="edgeStyle=orthogonalEdgeStyle;rounded=0;orthogonalLoop=1;jettySize=auto;html=1;entryX=0;entryY=0.5;entryDx=0;entryDy=0;" parent="1" source="8yuOUE8DRb-jMOZw8tpv-11" target="8yuOUE8DRb-jMOZw8tpv-10" edge="1">
          <mxGeometry relative="1" as="geometry">
            <Array as="points">
              <mxPoint x="840" y="301" />
              <mxPoint x="840" y="240" />
              <mxPoint x="890" y="240" />
            </Array>
          </mxGeometry>
        </mxCell>
        <mxCell id="8yuOUE8DRb-jMOZw8tpv-11" value="" style="shape=image;verticalLabelPosition=bottom;labelBackgroundColor=default;verticalAlign=top;aspect=fixed;imageAspect=0;image=data:image/png,iVBORw0KGgoAAAANSUhEUgAAAgAAAAIACAYAAAD0eNT6AAAAAXNSR0IArs4c6QAAIABJREFUeAHt3Qmw9UdZ5/EnIYGwGNAgMCACLoFCZBAQkcGlKESIRGQZRMYFBGEQEcRhEZUBXNgLGdQMqCWIqAQcNkchyKIg4AIii7KNoLLIlggEQlanWnLzLnnfk3NP9zndz78/pyp1E7j/pb/96+f53r7n/k+EFwJfInCtiPixiHhJRLwvIj4TEf8+8D8P7zxxzx6Yzcjzto17+9XOWXjk4Fkoa7ms6bK2yxq/ZmdeLo8AAoMQuGVEvCoiLhy8iB3eON7emd9tk/E6nN+S/vtbOmfhncmyUNb6KyPiFp25uTwCCHQicPWI+IOIuChZ8Tq4cd20E7u9y743MbuDOWb+9/KT7TF7E9Lh680TZ6Cs/RdExFd04OaSCCDQicDJEfGexIVrr2E9tRO/vcs+bgEM91hm/fqze5PR6eszFpCBD0TEN3Ti57IIILBDAt+a4Pf76zajj0bE5XbI7vBLXT/5Dsq6nEf9vvIT7A0On5Qd/vdxEfHxBQhAmd/yPoFSG7wQQGChBL46Iv51IQVrryl9d+e5euPCeO5xzfD1tZ3n/s4Lm/tSG67bmanLI4DAFghcPiL+dmEFqzSp8jvMnq8HLpBphuZf7vG+PSc+Il64wLl/a0Qc35mryyOAQGMCD11gsSpN4AsRcdXGrPZzunLtcg9ZmuZS7tO8by9zD97PAvC9CCAwNoGrLHDr/+BG1vsnwdMJwM4F6Hc7L7kHLHjOPxERJ3bm6/IIINCIwEMWXKyKCPT+XfCpC+d7sGyN8u+93/vxhoXPuV2ARsXXaRDoTaA0yFEK9zbuo7wbvLwjv9ervBt8aW+u3MY8tTrnR/z1x9bX86t7LSbXRQCBdgTKQz7OX7gAlMbymHbINjrTMydg3KqB157nKRvNULuDZnj+w3kR8eXtkDkTAgj0IHDHSRpTeSpfz1d5pHJtY3P8egx7PgGyPHWwPDhnhrn6rp4LyrURQKCewI9PUqxKQb5VPa6qM2R7JnzGJva2qhmqP/i/TLSe/ns9LmdAAIGeBMrWeMZCv8k9P6sn6Ih49ESsN5mfFsf8VOc5nulTIH+mM2uXRwCBSgIz/L5yr7F8OiLKA496va4TEReQgK0JZ3kvS/nY6l6vEyLirInmt9QOLwQQSExgJgEoInCXznP1pxM1iD3x2tXXP+o8t/ecbG4JQOfAuTwCtQRmE4AX1wKrPP5HJmsSu2r+5TrfXzk3tYe/YrK5JQC1iXE8Ap0JzCYA50bESR2ZXzkiPjdZo9iFBJRPq7tix3m9RkSUP43bxVhHuQYB6Bg4l0agBYHZBKAUzwe1AFdxjudP1ih20bCeUzEfLQ592IRzSgBaJMc5EOhIYEYBeFNH3uXSd5iwWWxbAr6t85yWT8nb9hhHOz8B6Bw6l0eglsCMAlAK6Q1rwVUcf2xE/MuEDWNbDeyDEVEewNPrdeNJ55IA9Eqc6yLQiMCsAvD4Rvw2Pc2TJ20a25CA3o1o1rnszX3Ttec4BBC4mMCsAvAhPzUuZsv65I6reebdHALQMXgujUALArMKQPlJ9NtbAKw4R3ls7TZ+Ip7pnG+s4N/i0Jnfz0EAWiTIORDoSGBmAfiNjtzLpctja2dq1tsY6wM7z+HMf9FBADqHz+URqCUwswD42/HcAuKZDn3njwDUVl/HI9CZwMwCUH4i7f30uPL42m38ZDzDOU/vvHbuM/ncEYDOAXR5BGoJzC4AvZ8fXwRkhma9jTGeWhv+yuNfM/ncEYDKADkcgd4EZhcAnyCXU0A+ERHHd1w8PtkxggB0DKBLI9CCwOwCUH4yLY9x7fkqb0bcxk/ISz7nr/ScsIh4jDkjAJ0z6PIIVBMgABHlMa49X+XPEZfcrLcxtlv0nLCIeJc5IwCdM+jyCFQTIABfar7fWE1y8xOUx9j+Pw1lbQl69+aomxx5K3P1H3PlVwBN4uQkCPQjQAC+JADlca49X+XRxNv4SXmJ53xUz4mKiGeZKwLQOYMuj0ATAgTgS433IxFxuSZENzvJ10XERRrLZUrQhRFx3c0QNzmqvPHwk+aJADRJk5Mg0JkAATjwk/d3dZ6L8jHFS/yJveWYzug8R99nji7JqF8BdA6jyyNQS4AAHGi6v1MLs/L4B2kulzSXo0nDD1Uyrj38D83RJXNEAGrT5HgEOhMgAAcE4OyI+LKO8/HlEfFFDeaSBnO4BJT5uYr5OSqfw3lt+78JQMcwujQCLQgQgAMCUArmj7SAWnGOFxOAoza451VwbXGoHZpD1woBaJEq50CgIwECcGhR+9OOc1EufRcCcFQBuH3nufEejUPXCgHoHEiXR6CWAAE4tKh5l/mhPLa9jbzu+T/srzSOKkbrMmz9fQSgtvo6HoHOBAjApRveozvPib8zv/ScPLHznDzBzsylBIQAdA6lyyNQS4AAXLrZ/H0t1MrjPWnu0nNyk0qmNYd7UuOl56PsJhCAmlQ5FoEBCBCAIxe3W3aem3/wE+clP3H+dee5+A5zcclcHPxrBALQOZguj0AtAQJwZAF4Zi3YyuN92tyBefnJSpa1h/8mASAAtSFyPAIjEiAABxrNwT/d9P68+a+OiPKGxIPvacZ/Pz8irtlx4ZwQEWeZhyPm0A5Ax2C6NAItCBCAozfZU1sArjjHazWeeFkFvxaH/oA5OGLzLzJKAFokzDkQ6EiAABxdAE7vOC/l0vfVfOIenefgj80BAeicQZdHYGsECMDRBeDciDhpa+Qv+8Tlsbefm7gBnRkRV7hsTFv7jvKrh/IriBl/9bLOmO0AbC16TozAbggQgNUF/oG7mYajXuUFEzeg045KZTf/x09PzJ4A7CZjroJAVwIEYLUAvLHr7ETcceImdJvO7N8+MXsC0Dl8Lo/ALggQgNUCUArhybuYiKNc49iIKI/BXacgL+l73h8R5QE8vV7lwUNL4rmNsfgVQK90ui4CjQgQgMsu9L0L3VMnbEaPbZTvTU/ztAmZ71cSeq+LTefWcQggcDEBAnDZAvDBzj+NfsNkzeiiiPiajiv0chHx0cmY77f5l+8nAB1D6tIItCBAAC5bAEqxu20L2BXnmOn30X9WwanFoXfS/Nf69QcBaJE250CgIwECsJ4APLvjHJVLz/SO9Pt3Zv17BIAAdM6gyyOwEwIEYD0B+LeIuOJOZuTIF5nlb9LPiYirHRnBTv7XEyPi8wSAAOwkbS6CQGcCBGA9ASi/BvivnedqhqfS/X5nxvfT/Ndq/t4D0DmoLo9ACwIEYH0BeHkL4BXnmOG59KdU8Glx6OsJAAFoESTnQCADAQKwvgCM8Ml05VcR5aevJf7z8Yg4ruOiuZ5PYNxXrkrt8EIAgcQECMD+mulDO8/1by20+ReheXpntj+/YLbbEEYC0DmwLo9ALQECsD8B+Jta4JXHf+eCm9TNKtnUHv6eBbMlALXpcDwCCyRAAPYnAKWQlsfE9nqVx+P+4wIb1bt6Ab34ut+6QKbbaPoHn9MOQOfQujwCtQQIwP4F4Im10CuP/4UFNqv/Ucmk9vBfXyDTg5v1Nv6dANSmzvEIdCZAAPYvAOXDecrjYnu9vj4iyuNyt1HUe5zzwoi4Ti+YEXH5iPjUgnjuag4JQMfQujQCLQgQgM0a6e1bwK84x1sW1LD+pIJDi0PvviCWu2r+5ToEoEX6nAOBjgQIwGYC8LyOc1Yu/eAFNa17d2b50gWxJACdw+TyCGQiQAA2E4CzI+IqHSf6KyLiiwtoXJ+JiCt15HhSRJy7AI67bPx717ID0DG4Lo1ACwIEYDMBKEXwh1pMQMU5XrKAxlWea9Dz9ZAFMNxryLv+SgB6Jte1EWhAgABsLgBnNOBfc4q7LaB5leca9Hz91QIY7rrx712PAPRMrmsj0IAAAdhcAMq716/bYA42PUV59/onEzewD0XEsZsOvsFxJydmt9eEe34lAA1C6BQI9CRAADYXgFJ8H9lz8iLi1xI3sfI8g56vX07Mrmfj37s2AeiZXtdGoAEBAlAnAO9uMAc1p7h14iZ2o5qBVx5bdh7+OTG7vSbc8ysBqAyhwxHoTYAA1AlAKcA37zyJGZ9h/+bOzG6n+Vc/SIoAdA6xyyNQS4AA1AvAM2onofL4jJ9i9+OVY649/LcJAAGoDZHjEchOgADUC0D5HPvjOwYh2+fYl7+7v3pHXuW5A58lAASgYwZdGoEhCBCAegEovwa4c+fZfH2ihvZ/OrP6wUSsev6O/7Ku7VcAnYPs8gjUEiAAbQTghbUTUXn8/RI1tbtWjrX28FclYnVZTbjn/08AapPoeAQ6EyAAbQTgnIi4Wse5PDEiPp+gsX06Iq7QkdO1I+KCBJx6NvZ1r00AOgbZpRFoQYAAtBGAUjR/rMWEVJzj9xM0tl+tGF+LQ8tzG9ZtcL5vNSsC0CKRzoFARwIEYHWR208T+POO81gufUqC5vYtnRm9IwGj/WSu5/cSgM5hdnkEagkQgHYCcFFEfG3thFQcf1xEfGzgBve+iDimYny1h5bnNfRsmEu7NgGoTaTjEehMgAC0bQqP7TyfTx+4yf1sZzbleQ1La8I9x0MAOgfa5RGoJUAA2jaF93f+Kfdmgza5sjtyg9qwVhw/+u5Iz0a+6bUJQEUgHYrACAQIQFsBKMX0Np0n9u8GlIDXdmZSntOwaaNz3JHZEYDOoXZ5BGoJEIAjF7eaon9a7aRUHv+IAZvdfSvHVHt4eU5DzZw69tL8CEBtKh2PQGcCBODSha222J/pb90PabZfiIirdsx5uXa5h9p5dfyhDAlAx1C7NAItCBCAQ4taqyJ/9xaTU3GOVw7U8H63YhwtDn3AQCxa5WuE8xCAFul0DgQ6EiAA2xGAl3ac03Lp/zZQ0/vuzizeMBCLERp3q3sgAJ2D7fII1BIgANsRgPMi4itrJ6fi+FE+8e4jEXG5inHUHnr9iCh/gdCq6TnPAZYEoDadjkegMwECcKCgtS7uD+k8tyN85v1TOjOQ7+3lmwB0DrfLI1BLQIHcXoH8q9rJqTz+dgP85HvTyjHUHv7eARi0FstRzkcAatPpeAQ6EyAA2xOAUqi/oeP8lsfufrBjA3xbx7GXS9+249hHadLbvA8C0DngLo9ALQECsF0B+KXaCao8/pc7NsGfqrz32sOf3XHs22y8o5ybANQm1PEIdCZAALYrAB/u/Ca4kzs1wfMj4lods31CRJzVaeyjNOht3wcB6Bhwl0agBQECsF0BKEW4/C6+56u8F2HbzeDw8/9RzwFHxD07jPlwBkv/bwLQOeQuj0AtAQKw/eZY3o3f81X+GmHXzej7ew44Il7RYcy7Ztz7egSgc8hdHoFaAgRg+83x7Ii4Su1EVRx/UkScu8OG+JmIuGLF/dYeeo2IKM9h6N0gl359AlCbVMcj0JkAAdhNoyhP5uv5etkOG+Jzeg40Ih62w7EuvcmvGh8B6Bx0l0eglgAB2I0AlGfz93zdY4dN8dt6DjQi3rrDsa5qkEv//whA56C7PAK1BAjAbgTgwoj4qtrJqjj+8hHxqR00xvLcgfL8gV6vG+9gjEtv7OuOjwD0SrnrItCIAAHYjQCUovqIRnO26WlO20Fz7N0UnryDMa7bIJf+fb3netN14DgEELiYAAHYnQC8q3PqbrOD5lieO9DrdWxE/MsOxrj0xr7u+AhAr6S7LgKNCBCA3QlAKaw3azRvm55mm8/Gf+OmN9XouDto/jv9ywcC0Ci4ToNALwIEYLcC8PReE33xdf/nFpvkAzuP7flbHNu6PxXP9H0EoHPgXR6BWgIEYLcC8PGIOK520iqOv35EXLSFRlmeM1CeN9DrdeWI+NwWxjVTQ9/vWAlAr7S7LgKNCBCA3QpAKbKnNJq7TU/z51tolKdvejONjrvPFsa034Y42/cTgEbhdRoEehEgALsXgN/vNdkXX/fHttAsT+08ptdsYUyzNfT9jpcAdA69yyNQS4AA7F4AzomIq9VOXMXxJ0bEFxo2zE9ExPEV91N76HUi4oKG49lvI5z1+wlAbXIdj0BnAgRg9wJQGsb9Os/7Cxs2zF/pPJbHNBzLrM18k3ETgM7Bd3kEagkQgD4C8Praias8/s4Nm+YtKu+l9vDyfIVNGphj6rgRgNrkOh6BzgQIQF0R3LSJlHfif03HuS9/ifCxBo3z3R3HUC79zQ3GsOkczn4cAegcfpdHoJYAAegjAKV5/Fzt5FUe/4wGzfNRlfdQe/j/ajCG2Rv5puMnALXpdTwCnQkQgH4C8L7OH5xz88rmWT7g6Lod81veeFjegLhpA3NcHTsC0DH8Lo1ACwK/oIB2bSC3bjGJFed4R8X8v7riui0OvUvFvWv+dc2/8Cu1wwsBBBITeKoi2lUAfq1zdsoW/qbN8Ic73/uLK+590zE77kBentJ5/l0eAQQqCTxLEd24AbZoBp+OiCtUzmHN4dfe8G/oz46Iq9RcuPLYL4+IL8pu1+yW9194IYBAYgK/oYh2LaJFIu7WOT9nbJCB53W+5wdtcM8thM05DuwAPKdzBlweAQQqCfgEtQMFrVdxf0nlHNYe/kMbNNPb11608vg3bXDPveZ3qdf9nco5dDgCCHQm8CKFtPsOQPkkvat3zMF+P0nvwxFxuY73+3Vb+kTDpTbqbY2rPE3SCwEEEhN4BQHoLgClQD+4c4bKlv66jeKJne/1Cfu413XH5PvWn/89Vi/rnAOXRwCBSgJ/qpiu3fj2Ct82vv5l5TzWHl629Ncd101qL1Zx/DER8cF93Ou6Y/J968//HqtSO7wQQCAxgXcqpms3vr3Ct62vN+qYo2Mj4p/XyMJfd7zHcunvWOMetzU/znuoJPxd5yy4PAIIVBL4pII6jAD8YuVc1h7+pDWy8JO1F6k8/jfXuEeN+tBGvS0eH6+cS4cjgEBHAuVRquVxrtsqEM67P7Yfiojyk3iv140vIwvnR8Q1e91cRJwQEWddxj3K3P4yV8Or1I7yoVJeCCCQkMBXKabDyc93ds7R36zIRO83ff3AinuraWSO3VwayoOkvBBAICGBWyqowwnAb3XO0UNXZOIene/tj1fcmya+eROvYVc+UMoLAQQSEvgeBXU4AfhMRFypY5a+MiLOO0Iuzuz8yOLyq4fyK4iaZuXY9vzu1DGrLo0AAhUEflRBHbKh3LtiTlsceqRnQ5zW4sQV53i4rA6Z1ftWzKlDEUCgIwEfBdz+J6IWP2WWre6er3seodnepucNRcTbj3BPLVg7R90aeHznXLg8AghsSMBjgOuK37aaxwUR8Z82nNMWhx3+bvv3R0R5AE+vV3nw0LZYO28dW48D7rUqXBeBSgIeAlRX/LbZPH66cm5rD3/2QU33sbUnqzz+aQfdyzaZO/f+14OHAVWG2+EI9CBQPszF56nvv+DtqkkUOev5uu3FTfeiiPiajjdScvpRAjDsDsg5nT8YqmM0XRqBvAS+XlEdtqjuScZNO8arbPl/ICL+rOM9lEuXd5nv8fB1TBY9BbFzPF0egZwETlVYh28sT+0crcdFxP0738PvyenwOT2lc0ZcHgEE9kngEQrr8IX1Xzs/avUGEXHVfeaq5befGBGfl9Phc1r+RNMLAQQSEdjP57/beu239XrHRJlqfaueU9Evd/tZ87/deuKdDwEEtkvgfX6yGv4nq1KEX7DdGAx99tfLaIqM/sPQKXJzCCBwCIGTIqK8u3s/lu97+/D6Qudt+EOCs8P/uJ5PqkyzPkstKTXFCwEEEhDwGQB9mvmmEjXj41Z/nqCmEYCSa58JkKDwu0UECgGPAM4lAK+dMLbvIQCpBMAjgSdcpIack8CrFddUxbVssZZ35M/y+lb5TJXPsgNwxizhNE4EMhM4NiL+TYFNV2B/NnPo9nnvvy6f6fJZPsa61BYvBBAYmMB/VlzTFdfyE1bZEp/hdYWI+LSMpsxoqS1eCCAwMIFHKa4pi2uRgFsNnKtWt3Z3+Uybz0e2CoHzIIDAdgj42+pcbwAsjX/vn2dtJxJDnfWlB413b9y+HsjAyCxeN1SS3AwCCBxCoDxa9TwF9pKGOnIxPdK9la3xskW+1Ff5W/Jz5TNtPktt6fno6KWuC+NCoAmBeyiuaYvrnhB8X5MkjHmSn5DP9Pm865jRclcIIPBbCmz6AvuHC47xX8pn+nw+Z8H5NDQE0hIon+/+YQU2fYEtW+RLfOzqybKZPptll+pfIqLUGi8EEBiIwC0U2EUU2FJkHzRQrlrdyi/J52Ly+U2tQuE8CCDQhsDTFNjFFNg3tYnEMGcpD5D5J/lcTD6fPEyy3AgCCPzHE7rK1tzeG8l8zc/ihgvK9e1kc1Frs/yq0VMBF7RADSU3AQU2f8M/XNqekDuSh9z9bxOARQlAyep3HDLD/gMBBLoR+E0FdnEF9kMLebPVlSLis/K5uHz6a4Bu5d6FEThAoDw45iwFdnEFtvyU9e0Hpjntv/2gbC4ym2cu/KFVaRecG5+LwN0U2EUW2CIAv7GAKL9KPhebzyU/tGoBS88QZiDg2erL+/3/3vsBysc6XzFxiK8dERcQgMUKwEsSZ9OtI5CewPUU2MUW1z0JuFfilJZPj9sbh6/LY1Hk7gaJ8+nWEUhN4CkK7OIbzP9NnNB3yOfi8/mkxPl06wikJVC2hj+lwC6+wJ4fEddKmNKby+bis1l2dcqbActfenghgMAOCdxfgZ2iwJYi+1M7zFWrSz1DPqfJ54+2Co3zIIDAegTersBOU2Dftl4khvmu4yLiY/I5TT7/dpjkuREEJiBQ/j7cm6rmYnDTRLm+s3xOtz5vmyifbhWB1AReocBOV2DLGz6zvF4on9Pl8+VZwuk+EchMoLy56iIFdroC+5GIuFyC4F41Ir4gn9Pls+xIfnOCfLpFBFIT8NP/XFv/B/+q5w4JkvsAzX/K5l9yahcgwQJ1i3kJ+Ol/3uZfCuzzE0T3DQRgWgGwC5BggbrFvAT89D+3AHw+Ir5s4Phe36+npm7+dgEGXpxuLTcBP/3P3fxLcS3//MjAMX6cn/6nFwC7AAMvULeWl0B5JOxeE/B1XhavGTTCx0TEB2TUGo2IzI+vHnR5ua2ZCdxeYVVYL87AhRFx3QEXQ/k7cGKKwV4G7jRgRt0SAukIlKeqvUtx1VwOysDPDJjiZx90f3tNwNd5heAfIuL4AXPqlhBIReDhCqvmf1gG/n6wBJ8QEWcddo+a/7zNf2/uHzZYTt0OAqkIXENh1fyP0lhvOVCS73mUe9xrBL7OKQOfSfpJlgMtLbcyM4HnKKwE4CgZeOZAC8Ofp87Z4NcRu/89UE7dCgJpCJQ/+7vgKMV/nYXne5ZdlD8xyO9Yyy7VeXJKVI+SgVLDvilN1XWjCAxAoLzx72+OsqA09mU39v3M7/cOkNXye9793LPvnY9X+bhgbwgcYLG6hRwEHquoaiprZOBFA8T5rWvcp6Y/X9M/fM5/boCsugUEhidw44j4oqJKANbIwLkRcVLHRJesHl7o/TcmR8pAyeo3dsyqSyMwPIGy9f/Xiqqmso8MPLBjqp+8j/s8UlPwv80lC2/zq4COq9WlhydQtskURQz2k4E3dkr1sRHxYXm1XveZgcd0yqvLIjA0gZvY+ldM91lMiyiUv7Xu8Tpxg3vdj9j43mWKcPn1Zql1XgggcDGBK0bE2xVUArBBBgjAMhvlkgWoPNr8Sqo/Agh8icBzNyj8Sy4QxrZ+UyMA67OSq3FYvUDxRwCBiPtr/n7yr8gAARinqRGM/c3Fj2oACMxMoPxZzOcrir+Cs7+Cs0ReBEAGsub6HE8JnLn9zT32q0RE+cjMrIvXfY8xdwRgjHmwHjabh/dFRHlDqRcC0xA4JiJO1/zJT4MMEIDNGo+GPQ63P4iIUhO9EJiCwOMbFH4FbJwC1nMuCIAc9Mxfq2s/borKb5DTE7hXRFxEAPz03ygDBIAAtGrCPc9TauIPT98dAFg0gW/zsB+Nv1Hj3yvWBIAA7GUh+9fysdK3W3QHMLhpCXxtRJTPcM++SN3/WHNIAMaaD+ujbj4+HRE3nLZLGPgiCZRPbHuv5k9+tpABAlDXcDTs8fj9Y0RcY5GdwKCmI/BlEfHmLRR+hWu8wtVjTgiAHPTI3bav+ZaIKLXTC4G0BMrzrl+n+fvJf4sZIAAEYNvNuNf5/yIiyvNSvBBIR6B8wM9rtlj4ey1K1x2r4RCAsebD+mg7H2+IiCunq/5ueGoCl4+IP9L8/eS/gwwQgLYNRwMfj+cZEXHC1B3F4NMQOD4iXr6Dwq9QjVeoeswJAZCDHrnb9TX/JCKukKYLuNEpCRRLfanm7yf/HWaAABCAXTfjXtd7CQmYsq+mGHR5s0rZquq1OFx3TvYEYM55n3W9lzdVXzVFR3CT0xC4VkS8TfMnPx0yQAAIwGwy8M6IuM403cVAhyZwg4goH2k52yI03jHmnACMMQ/Ww27noTws6OShO4ObWzyBW0TExzV/8tMxAwRgt41Hox+H979GxM0X32UMcEgCp0TEZzsWfoVonELUcy4IgBz0zF/va5f832nIDuGmFkngmIh4VERcqPn7yX+ADBAAAtC7Cfe+fvko4SdFxLGL7DgGNQyB8k7/Fw1Q9HsvONcfp+kQgHHmwrroOxfl+SsnDtMt3MiiCHxdRJR3n1rkGIyUAQIgjyPlsfe9vCcibrSozmMw3QncMSLO1PzJz4AZIAAEoHfTHe36ZU18b/eu4QbSEzguIh4XERcMWPhHW3Tup08jIgB9uMv72NzL+wKeGRHlc1m8ENg3gbKN9FaN30/9g2eAAIzdiIhC3/l5R0R8476rvwOmJvDDEXH24IVfYelbWEbhTwDkYJQsjnof50TEQyOi/AWXFwJHJXANn+TnJ/5k4kcACMCojXe0+3pVRFz7qNXf/zE1gfIwCU/1U0xHK1qXdT8EQGYvKyP+/wMZKTW+vKnbC4FLCDw+IsqbRiwUDLJlgADIbLbM9r7fUuvLm7u9EIhnaPzEJ3EGCAAB6N1Qs17/6frf3ARIbGFxAAAV70lEQVQelrjwZ1107rttwyIAbXnK51w8f2LuFjjv6Msn+Z1PAPz0nzwDBGCuhkVQ2s73eRFxs3nb4JwjL38O8lfJC79C0LYQZOVJAOQga3ZHue+3+BPBuUSgPCZylPC5D3NRkwECID81+XHsl/Jz57la4NyjfS0BIEALyQABIACaeH0GXj13S5xn9Nf0bH/NfyHNvxR+AlBf/DVQDMvnvZQHwXktnMC9F1T8FS6FiwDIgDrQJgP3WnjvM7yIeCoBsAOwoAwQgDbFXxPF8Uk65PIJvGhBxV/RUrQIgAyoA20y8MLltz8jLB8IYcFgsJQMEABZXkqWe4+j9AavhRN4HQEgQAvKAAEgAL0b51KuX3qD18IJEAAFcykFq4yDAMjzkvLccywEYOHNvwyPACiYPYtM62sTAHlunalZz0cACIDt8QVtj89QyAgAAZgh57sYIwEgAASAAKTKAAEgALtojjNcgwAQgFTFf4ZFaYyrGxwBWM1HfvBZNwMEgAAQADsAqTJAADS4dRuc71udFQJAAFIVfwt69YKegQ8BkIEZcr6LMRIAAkAA7ACkygABIAC7aI4zXIMAEIBUxX+GRWmMqxscAVjNR37wWTcDBIAAEAA7AKkyQAA0uHUbnO9bnRUCQABSFX8LevWCnoEPAZCBGXK+izESAAJAAOwApMoAASAAu2iOM1yDABCAVMV/hkVpjKsbHAFYzUd+8Fk3AwSAABAAOwCpMkAANLh1G5zvW50VAkAAUhV/C3r1gp6BDwGQgRlyvosxEgACQADsAKTKAAEgALtojjNcgwAQgFTFf4ZFaYyrGxwBWM1HfvBZNwMEgAAQADsAqTJAADS4dRuc71udFQJAAFIVfwt69YKegQ8BkIEZcr6LMRIAAkAA7ACkygABIAC7aI4zXIMAEIBUxX+GRWmMqxscAVjNR37wWTcDBIAAEAA7AKkyQAA0uHUbnO9bnRUCQABSFX8LevWCnoEPAZCBGXK+izESAAJAAOwApMoAASAAu2iOM1yDABCAVMV/hkVpjKsbHAFYzUd+8Fk3AwSAABAAOwCpMkAANLh1G5zvW50VAkAAUhV/C3r1gp6BDwGQgRlyvosxEgACQADsAKTKAAEgALtojjNcgwAQgFTFf4ZFaYyrGxwBWM1HfvBZNwMEgAAQADsAqTJAADS4dRuc71udFQJAAFIVfwt69YKegQ8BkIEZcr6LMRIAAkAA7ACkygABIAC7aI4zXIMAEIBUxX+GRWmMqxscAVjNR37wWTcDBIAAEAA7AKkyQAA0uHUbnO9bnRUCQABSFX8LevWCnoEPAZCBGXK+izESAAJAAOwApMoAASAAu2iOM1yDABCAVMV/hkVpjKsbHAFYzUd+8Fk3AwSAABAAOwCpMkAANLh1G5zvW50VAkAAUhV/C3r1gp6BDwGQgRlyvosxEgACQADsAKTKAAEgALtojjNcgwAQgFTFf4ZFaYyrGxwBWM1HfvBZNwMEgAAQADsAqTJAADS4dRuc71udFQJAAFIVfwt69YKegQ8BkIEZcr6LMRIAAkAA7ACkygABIAC7aI4zXIMAEIBUxX+GRWmMqxscAVjNR37wWTcDBIAAEAA7AKkyQAA0uHUbnO9bnRUCQABSFX8LevWCnoEPAZCBGXK+izESAAJAAOwApMoAASAAu2iOM1yDABCAVMV/hkVpjKsbHAFYzUd+8Fk3AwSAABAAOwCpMkAANLh1G5zvW50VAkAAUhV/C3r1gp6BDwGQgRlyvosxEgACQADsAKTKAAEgALtojjNcgwAQgFTFf4ZFaYyrGxwBWM1HfvBZNwMEgAAQADsAqTJAADS4dRuc71udFQJAAFIVfwt69YKegQ8BkIEZcr6LMRIAAkAA7ACkygABIAC7aI4zXIMAEIBUxX+GRWmMqxscAVjNR37wWTcDBIAAEAA7AKkyQAA0uHUbnO9bnRUCQABSFX8LevWCnoEPAZCBGXK+izESAAJAAOwApMoAASAAu2iOM1yDABCAVMV/hkVpjKsbHAFYzUd+8Fk3AwSAABAAOwCpMkAANLh1G5zvW50VAkAAUhV/C3r1gp6BDwGQgRlyvosxEgACQADsAKTKAAEgALtojjNcgwAQgFTFf4ZFaYyrGxwBWM1HfvBZNwMEYAIBODUiHuAfDBaSgft0WrOXXwg/tUA93MtA6Q1eCCCAAAIIIIAAAggggAACCCCAAAIIIIAAAggggAACCCCAAAIIIIAAAggggAACCCCAAAIIIIAAAggggAACCCCAAAIIIIAAAggggAACCCCAAAIIIIAAAggggAACCCCAAAIIIIAAAggggAACCCCAAAIIIIAAAggggAACCCCAAAIIIIAAAggggAACCCCAAAIIIIAAAggggAACCCCAAAIIIIAAAggggAACCCCAAAIIIIAAAggggAACCCCAAAIIIIAAAggggAACCCCAAAIIIIAAAggggAACCCCAAAIIIIAAAggggAACCCCAAAIIIIAAAggggAACCCCAAAIIIIAAAggggAACCCCAAAIIIIAAAggggAACCCCAAAIIIIAAAggggAACCCCAwP4IPDoinusfDBaSgdP2F/9m333CQvipBerhXgZKb/BaOIHXR8S/+weDhWTgs53W64kL4acWqId7GSi9wWvhBAiABb+34JfwlQDI8xJyPMIYCMDCm38ZHgFQMEcoNq3ugQDIc6sszX4eAkAAbI3b2k2VAQJAAGZv3K3GTwAIQKri3yr4zpO3iRCAvHNn3Y01dwSAABAAOwCpMkAAxmoimnre+SAABCBV8Vds8habVnNHAGSgVZZmPw8BIAAEwA5AqgwQAAIwe+NuNX4CQABSFf9WwXeevE2EAOSdO+turLkjAASAANgBSJUBAjBWE9HU884HASAAqYq/YpO32LSaOwIgA62yNPt5CAABIAB2AFJlgAAQgNkbd6vxEwACkKr4twq+8+RtIgQg79xZd2PNHQEgAATADkCqDBCAsZqIpp53PggAAUhV/BWbvMWm1dwRABlolaXZz0MACAABsAOQKgMEgADM3rhbjZ8AEIBUxb9V8J0nbxMhAHnnzroba+4IAAEgAHYAUmWAAIzVRDT1vPNBAAhAquKv2OQtNq3mjgDIQKsszX4eAkAACIAdgFQZIAAEYPbG3Wr8BIAApCr+rYLvPHmbCAHIO3fW3VhzRwAIAAGwA5AqAwRgrCaiqeedDwJAAFIVf8Umb7FpNXcEQAZaZWn28xAAAkAA7ACkygABIACzN+5W4ycABCBV8W8VfOfJ20QIQN65s+7GmjsCQAAIgB2AVBkgAGM1EU0973wQAAKQqvgrNnmLTau5IwAy0CpLs5+HABAAAmAHIFUGCAABmL1xtxo/ASAAqYp/q+A7T94mQgDyzp11N9bcEQACQADsAKTKAAEYq4lo6nnngwAQgFTFX7HJW2xazR0BkIFWWZr9PASAABAAOwCpMkAACMDsjbvV+AkAAUhV/FsF33nyNhECkHfurLux5o4AEAACYAcgVQYIwFhNRFPPOx8EgACkKv6KTd5i02ruCIAMtMrS7OchAASAANgBSJUBAkAAZm/crcZPAAhAquLfKvjOk7eJEIC8c2fdjTV3BIAAEAA7AKkyQADGaiKaet75IAAEIFXxV2zyFptWc0cAZKBVlmY/DwEgAATADkCqDBAAAjB74241fgJAAFIV/1bBd568TYQA5J07626suSMABIAA2AFIlQECMFYT0dTzzgcBIACpir9ik7fYtJo7AiADrbI0+3kIAAEgAHYAUmWAABCA2Rt3q/ETAAKQqvi3Cr7z5G0iBCDv3Fl3Y80dASAABMAOQKoMEICxmoimnnc+CAABSFX8FZu8xabV3BEAGWiVpdnPQwAIAAGwA5AqAwSAAMzeuFuNnwAQgFTFv1XwnSdvEyEAeefOuhtr7ggAASAAdgBSZYAAjNVENPW880EACECq4q/Y5C02reaOAMhAqyzNfh4CQAAIgB2AVBkgAARg9sbdavwEgACkKv6tgu88eZsIAcg7d9bdWHNHAAgAAbADkCoDBGCsJqKp550PAkAAUhV/xSZvsWk1dwRABlplafbzEAACQADsAKTKAAEgALM37lbjJwAEIFXxbxV858nbRAhA3rmz7saaOwJAAAiAHYBUGSAAYzURTT3vfBAAApCq+Cs2eYtNq7kjADLQKkuzn4cAEAACYAcgVQYIAAGYvXG3Gj8BIACpin+r4DtP3iZCAPLOnXU31twRAAJAAOwApMoAARiriWjqeeeDABCAVMVfsclbbFrNHQGQgVZZmv08BIAAEAA7AKkyQAAIwOyNu9X4CQABSFX8WwXfefI2EQKQd+6su7HmjgAQAAJgByBVBgjAWE1EU887HwSAAKQq/opN3mLTau4IgAy0ytLs5yEABIAA2AFIlQECQABmb9ytxk8AJhCAR0fEc/2DwUIycFqnNXvCQvipBerhXgZKb/BCAAEEEEAAAQQQQAABBBBAAAEEEEAAAQQQQAABBBBAAAEEEEAAAQQQQAABBBBAAAEEEEAAAQQQQAABBBBAAAEEEEAAAQQQQAABBBBAAAEEEEAAAQQQQAABBBBAAAEEEEAAAQQQQAABBBBAAAEEEEAAAQQQQAABBBBAAAEEEEAAAQQQQAABBBBAAAEEEEAAAQQQQAABBBBAAAEEEEAAAQQQQAABBBBAAAEEEEAAAQQQQAABBBBAAAEEEEAAAQQQQAABBBBAAAEEEEAAAQQQQAABBBBAAAEEEEAAAQQQQAABBBBAAAEEEEAAAQQQQAABBBBAAAEEEEAAAQQQQAABBBBAAAEEEEAAAQQQQAABBBBAAAEEEEAAAQQQQAABBBBAAAEE9kfg1Ih4gH8wWEgG7rO/+Df77ssvhJ9aoB7uZaD0Bq+FE3hdRPy7fzBYSAY+02m9nrgQfmqBeriXgdIbvBZOgABY8HsLfglfCYA8LyHHI4yBACy8+ZfhEQAFc4Ri0+oeCIA8t8rS7OchAATA1rit3VQZIAAEYPbG3Wr8BIAApCr+rYLvPHmbCAHIO3fW3VhzRwAIAAGwA5AqAwRgrCaiqeedDwJAAFIVf8Umb7FpNXcEQAZaZWn28xAAAkAA7ACkygABIACzN+5W4ycABCBV8W8VfOfJ20QIQN65s+7GmjsCQAAIgB2AVBkgAGM1EU0973wQAAKQqvgrNnmLTau5IwAy0CpLs5+HABAAAmAHIFUGCAABmL1xtxo/ASAAqYp/q+A7T94mQgDyzp11N9bcEQACQADsAKTKAAEYq4lo6nnngwAQgFTFX7HJW2xazR0BkIFWWZr9PASAABAAOwCpMkAACMDsjbvV+AkAAUhV/FsF33nyNhECkHfurLux5o4AEAACYAcgVQYIwFhNRFPPOx8EgACkKv6KTd5i02ruCIAMtMrS7OchAASAANgBSJUBAkAAZm/crcZPAAhAquLfKvjOk7eJEIC8c2fdjTV3BIAAEAA7AKkyQADGaiKaet75IAAEIFXxV2zyFptWc0cAZKBVlmY/DwEgAATADkCqDBAAAjB74241fgJAAFIV/1bBd568TYQA5J07626suSMABIAA2AFIlQECMFYT0dTzzgcBIACpir9ik7fYtJo7AiADrbI0+3kIAAEgAHYAUmWAABCA2Rt3q/ETAAKQqvi3Cr7z5G0iBCDv3Fl3Y80dASAABMAOQKoMEICxmoimnnc+CAABSFX8FZu8xabV3BEAGWiVpdnPQwAIAAGwA5AqAwSAAMzeuFuNnwAQgFTFv1XwnSdvEyEAeefOuhtr7ggAASAAdgBSZYAAjNVENPW880EACECq4q/Y5C02reaOAMhAqyzNfh4CQAAIgB2AVBkgAARg9sbdavwEgACkKv6tgu88eZsIAcg7d9bdWHNHAAgAAbADkCoDBGCsJqKp550PAkAAUhV/xSZvsWk1dwRABlplafbzEAACQADsAKTKAAEgALM37lbjJwAEIFXxbxV858nbRAhA3rmz7saaOwJAAAiAHYBUGSAAYzURTT3vfBAAApCq+Cs2eYtNq7kjADLQKkuzn4cAEAACYAcgVQYIAAGYvXG3Gj8BIACpin+r4DtP3iZCAPLOnXU31twRAAJAAOwApMoAARiriWjqeeeDABCAVMVfsclbbFrNHQGQgVZZmv08BIAAEAA7AKkyQAAIwOyNu9X4CQABSFX8WwXfefI2EQKQd+6su7HmjgAQAAJgByBVBgjAWE1EU887HwSAAKQq/opN3mLTau4IgAy0ytLs5yEABIAA2AFIlQECQABmb9ytxk8ACECq4t8q+M6Tt4kQgLxzZ92NNXcEgAAQADsAqTJAAMZqIpp63vkgAAQgVfFXbPIWm1ZzRwBkoFWWZj8PASAABMAOQKoMEAACMHvjbjV+AkAAUhX/VsF3nrxNhADknTvrbqy5IwAEgADYAUiVAQIwVhPR1PPOBwEgAKmKv2KTt9i0mjsCIAOtsjT7eQgAASAAdgBSZYAAEIDZG3er8RMAApCq+LcKvvPkbSIEIO/cWXdjzR0BIAAEwA5AqgwQgLGaiKaedz4IAAFIVfwVm7zFptXcEQAZaJWl2c9DAAgAAbADkCoDBIAAzN64W42fABCAVMW/VfCdJ28TIQB55866G2vuCAABIAB2AFJlgACM1UQ09bzzQQAIQKrir9jkLTat5o4AyECrLM1+HgJAAAiAHYBUGSAABGD2xt1q/ASAAKQq/q2C7zx5mwgByDt31t1Yc0cACAABsAOQKgMEYKwmoqnnnQ8CQABSFX/FJm+xaTV3BEAGWmVp9vMQAAJAAOwApMoAASAAszfuVuMnAAQgVfFvFXznydtECEDeubPuxpo7AkAACIAdgFQZIABjNRFNPe98EAACkKr4KzZ5i02ruSMAMtAqS7OfhwBMIACv8hMuyVlQBggAAZi9cbca/ysn6H/TD/H0BRX/VsF3nrxNhADknTvrbqy5+4Ppu+MEAJ5IAOwALCgDBGCsJqKp552PX5yg/00/xFMXVPwVm7zFptXcEQAZaJWl2c9zyvTdcQIAV4iIz5IAuwALyQABIACzN+4W4/9cRJwwQf8zxIh48UKKf4vgO0fuBkIAcs+f9TfG/JX3hnlNQuBWEXERCbALsIAMEIAxGohGnnceSi+49SS9zzAvJvCiBRR/RSdv0Wk1dwRABlpladbzePf/hFrwtRFxFgmwC5A8AwSAAMzauFuM+8yIuMGE/c+QI+IOEXF+8gbQYhE4R94mQgDyzp1113fuLogI7/yfXAUe7P0AdgESSyAB6NtENPGc/C+MiB+fvPcZ/sUEviciSiG1mDHIlgECILPZMtv7fsuf/N1V90PgYAI3jYg3kwASlCwDBIAA9G6oma7/FxFxk4MLv39HYI/AMRFx94h4Z7ImkGkBute2DYsAtOUpn8vk+Q4/9e+1OV/XIXCjiHhURJwREf8UEWeTArsDA2aAACyzYRGRzee11OpSs0vtLjX8husU/Bm/5/8DHZxJZFT2rwEAAAAASUVORK5CYII=;" parent="1" vertex="1">
          <mxGeometry x="705" y="260" width="82" height="82" as="geometry" />
        </mxCell>
        <mxCell id="8yuOUE8DRb-jMOZw8tpv-12" value="" style="shape=image;verticalLabelPosition=bottom;labelBackgroundColor=default;verticalAlign=top;aspect=fixed;imageAspect=0;image=data:image/png,iVBORw0KGgoAAAANSUhEUgAAAgAAAAIACAYAAAD0eNT6AAAAAXNSR0IArs4c6QAAIABJREFUeAHtnQn8fsXY/z+PREp72qQ9tEgRytJm30NCPHjk6cmaPXuRh5AlS2QL2ZWdiKIUrVJEihaK9pVKeP7/14f76Pzu7uWcmc/MmXOfz/V6/V73/bu/58xc8545M3NmrrkuwFIqgdsA2AXAlwD8BsBVAH4H4KsAngPg9qUqbr1MwAQGRWAZAHsA+BqA80Z9FfusLwJ4PAD2ZRYTMIGGBDYD8BMA/2/Gv4sB7NowPV9mAiZgAikI7AbgjzP6KfZhJwC4e4rMnaYJLBqBbUYz6FmDf/1v71w0AC6PCZhA8QT+A8C75gz89X7qSgDs2ywmYAJTCHCWfHWLh6p6wN40JT3/bAImYAIpCLw1oJ9i3+aVgBS14TR7T2Dl0V5/Nai3+fwHgO17T8AFMAET6AOBnQCwz2nTR1XX0jZgpT4U0jqaQC4CSwH4duADVT1YJ+ZS1vmYgAkMmsA8+6SqT5r2eRSA2w6aoAtvAjUCbfbSpj1U/H3zWpr+agImYAJqAltGvqhU/deBasWcngn0kcCzRA8UH6wX9BGAdTYBE+gNgRcL+6tn9qbUVtQEEhC4N4AbhA/UWxLo6CRNwARMoCLwdmF/dSOAbauE/WkCQyKwOgCe5a+WxBSf/zskgC6rCZhAdgLKCQD7vIsA3Cl7KZyhCXRIgJ6xvise/Pkw7d5hmZy1CZjA4hPgsr3iZaWextH2Frj4DcclvIXAaxI8RH8FsNYtWfibCZiACcgJ3BnAzQn6L/aJFhNYeAIPBPC3BA/QZxaenAtoAiZQAoHPJ+i/2Ceyb7SYwMISoLOfCxI8PJf77X9h24wLZgKlEVgbwBUJ+rE/AFittMJaHxNQEKDv7G8leGjoketxCgWdhgmYgAk0JMA+5/8S9GfsI9lXWkxgoQi8NMHDQkOaNywUJRfGBEygLwTemKhPe1lfAFhPE2hCgAEwlOf9KwvaIzxbboLf15iACSQgwDf1LySYBNwEYIsE+jpJE8hOgD6vT0rwkJwOYLnspXGGJmACJnALgTsAODVB/3YagKVvycbfTKCfBLhEX72xqz5p9LdBP3FYaxMwgQUjsB6AyxL0c97eXLCGMrTibAWA5/NVAz/TYXo+LjO0luTymkDZBHZM4B+AfR37UIsJ9I7A7QCcIR78OQHYu3ckrLAJmMAQCLwqQX93FoBlhgDPZVwsAvTLr3zzZ1pftdHfYjUSl8YEFogAjQK/naDfc4yTBWokQyjK5gmWw34PYNUhwHMZTcAEektglQTOzugl8J69JWLFB0WAs+AfimfB9L19/0FRdGFNwAT6SoAhftXxAn7s1c++Nodh6f0c8eDPpX87xhhWG3JpTaDvBF6boB9k32oxgWIJcImeR/SUe//cU+vSNSZDF28EYHsAWwJYsVj6VswEhk2AzyaXyvms8pnls9uVMO8fiPtCxh9wrICuatT5ziXwsQQNvqsQvysBeAeAi8fKxP04bnE8seOJydzK8AUmMAACHGh3BXDshCijFwE4oMNJ+7oArhnrP2Jfjj4+gDp1EXtI4AEJgmM8tSMODwZwSYMH9zgAfMgtJmAC+QnQAc/xDZ7TPwHYOb96/8zxvxro12ZSwABED+qoLM7WBCYS4CycrnnbNOR5135xYk7pf3w0gBtblIUThU3Tq+UcTMAEagR40ujSFs8pn2k+213IN1voOa9f5N/pX2WpLgriPE1gEoFnixs4Z+xdHPm7N4C/BJSFcbx5/MdiAiaQngD3wce35poMnHy2+YznFm5jcv++iY5Nr7FBYO5adH4TCSwLgHttTRtuk+seOzGntD/yIeVA3kS/SdccllY9p24CJjAi8LmI55TP+JodkOR25qR+I/Q3ToAcDK2DinSWSxJQx8T+7JLJZ/kfXW2eGPmA/h3AJlm0dSYmMFwCDC3+j8hn9acdudf9WqTe45OFfYfbDFzyEgisAeA6YaO+FsDaHRRMdXrhdR3o7ixNYEgE9hP1N5/uABoNhq8X6c/JwA0A1umgHM7SBP5J4KPCxswG/bwOuL5CWAb6LLCYgAmkI/Bd4fPahYOxVwr1Z5/JlxeLCWQnsAUALnuPL0uF/v+kDhx3MKwwz/WH6jx+30+y14IzNIFhEThZ+Lx24WJ8aQBnCsvAPvgew2oCLm0JBI4QN+KtMxeKlsQxRn/jgz//T89fFhMwgXQEfiTsd/jMdhFkjHFNYu0Y6v0P+2KLCWQjQJe4dEhRb4Qx39+bTfN/ZUS/BUcK9a/K/q7M5XB2JjA0AgcleG67cDeu3D5lX+xogUN7Ejos7+HCh/DKDs7QpwjUwUnAfTusE2dtAkMgsJ2w76km7vzcJzO8O4ndBLNPtphAcgLqt/8XJtd4yQzYgSj3/atOhL7ILSZgAukJMDRu9dypPtknMIxvTnm1sBxcBWDfbDGBpASUb/9nA6BRTC6h44xzhA9d1fn82T4AclWh8zEBbCg+flw9x78FcMeMfOl/5AJhf+RVgIyVN8Ss1G//j8sM8WDhw1Z1Gpx5dxW0KDM+Z2cCxRB4mtgOqXqeP5C5hE8X9kleBchceUPLjgF6qgcl9vOYzPAekajDeEvmcjg7EzCBfxF4q7A/qvozDqIPzQj4PwCcIixHV0HUMiJzVl0QWF947p9HYHIe+2OgnpDgIVWnMO3zKx34Luii7p2nCZRIgKd5vi4cPKvnnMeDV8pY4O2FZaBfAPbVFhOQEniPsJF+SarZ/MQ+KdS96iR+nnm/cH4pfYUJDI/A8gB+meD5/nhmlN8TluHdmXV3dgtOYEWh0Q3f/ulFMJfslGDp/yrPsnNVn/MxgbkENhYfqeMkn1sBO8zNWXcBnQNVLxexn4ypwj7bYgISAkr/1Tn3qG4P4FfCB6vqGJ4goepETMAEVAR2FT/nfNZ/kzlqoHIV4OUqsE5n2ARuC+BC0cPFt/+cfqtVkcPqM/J3DLs5uPQmUCyB94v6qfrzznDnuUTp5Ih2DDmPWOdi5HwyE+Bxm/oDEfP9Cxl1vyuAG4W6s9yMI367jGVwViZgAs0JcMBjQK6YPmr83psA3L25CtFXKlcBnhKtjRMYPIETRA8U3/43z0hT+SCxU+C+/10y6u+sTMAE2hNI4SToO+3VCL5DuQpwfLAWvtEERgP2+Iw49P/fyEj0UaJJS72su2fUf1JWKwBgBEOLjgC3t3gO26IjQB/3bKtdynMTPP/0I5JLjhPqv1kupZ3P4hFQHv3bMRMeLgOqDf9yGi7WMdFXAo8jXV7rELitwdWNZwLgAGZZksAdRkGZuPxJ41XuC3PyeQaA3wG4ZLSaQyvvaoJHP/Bc4aGvCF7zMwDfBPA+ADSmehKAewOgK2nLkgT4vD0bwPcBcLm8YnoZgI8B2GrJy7P9j/VX6aL45FHDXM/bLkLdfSQwW5NbrIxoQX+FqCGelhHNi0Q6V50GB4VVM+rPrNjRMLQwnXpUekz6ZCwFDkxDFTqCuReA540mSvTNkCLQU8We9cGJBEO58i2TrrGXGip8APcDcO6cNsr6eGcHnNYcmzhXdRjzyXaWQ9iuVTFL+PLAvtxiAq0I0L99zMNSv5f+rnPIysJJS6U/txNyCt+ovtyC/V8BPD6ngh3nRQ9tuwE4dPQ2X9VTV5+cJB8G4MkFLH3nrBrWwc0t2imdf7Ft5xTqqGwXXNXIdb7+BULdHaskZ6tbkLx+IGqAOY+jvF2kc9VpfL6DuuTAVuXf9JOTABoPLapwWZ82GNz6SPmG35T3tOtYD0cB2GPBvUTuHFgPbNu5Rb0VkCv2B7ebrgzoCya1zaNzQ3d+/SZAS9r6HumkRtX0t1dlQrE6AIblbarXvOu4J8xlxJzC/eZ5ek37O5diGV50kYRLzB8GcHUEl2m8Uv9Ob2wfyhzzIkfdM1zu7yPq42U5lKzlsS6A6yP0HW8n12U0xlUFO2JfTm+JFhNoREDlQIdGQbks17lnPv6wxvx/z0akdBdxq2Henv+88vy3Tp3OUqJV/iMBKC2h53FL/feTATxxQU4ccACP4cU2ntOing05Vufx8nKlMYesB4DHp8fzD/n/m3Io7DwWgwCNy0Ia2fg9uZbQ1wJwg0hnloHnZ2mIk0votOgagf4/zqVwgnzIm3u2tMAfb0eL8n8aEPZ9IsAyxNYHV3RyvpHSqFbZrrjSyBXHHHKkgDfri326xQTmEuCxndgHvLr/wXNz01zwXqHOnHHTsjyXcH+b1usVs5hPrrj00VPhAwGcKmIQwy/XvRxEcxuXKtozDTBVW4MckHNuWbGNqXRnO+GKYw7hhFHVLnOGYM/BxnkkIHCAqMH9NtOS5xpil7+5w4B+RMS76iRyH1mMaYLcn6V7aGXHXHHow+dXAJBBX2QTcVuljUROaXO6Zl774YojnR6lFp6c+JOIO/t2iwlMJcD91/NFje21U3PR/mF/kb584GksxO2EXMLjkfM6mjZ/50DatRe2Juy43P8K8bZNG04lXcvlZBrK5j4i16Sexq+hcbCaXc4jatS/7qwotiy0lcohbxNxZ99uz5c5aqyneaj8UPOoVo6BlEdlVM6K2BnkmrSwedDAh5bisZ1Q/X4+4KXLBgCOFZe7zqCv37kNlDPoTEg74cRNaVHPuqI9QM4YG8qjwvQLwC281EJ7CdUq2baplXX6/SVwkKhjzhU844UifdkR0eNfjoeZrYMd6Q+FuleDHm0hShZ6z+Mxqkpffy7JgqsBzym5AkdbNup6o8+RXG+mdOSjOl9PDntlqi8a+Cq4l95HZMLpbCYRiDnfW2+c9FOfWuiClX7b6/nGfKfnrVwSc95/WhnplW2jXAVomQ+NvT4prKtpDBbl988VvJXzAOHbaL2+XtyyTcVczpW+et4x3+mylxP61KLyDHhhakWdfj8J3FP0UDBYTY59aKV1LB+KXP6y7yY2Wqw6r9cV2uy4vHuKqG1VZR3C51kAuF1SotA5k7oOaFSX62ggnRlx+V5VhsdlqCQaO8f6CanKe48M+jqLnhFQzYqPyFRuuoWtGnTsZy4HOlzmTLH0zzRLDErDo1eMvhdbP0O9n+zoDbE0oe0NJyjqemFEwVxCI1SV/rm2PMlHofOrc0F2Pv0hQOc3isbFoCiphda8Kg9Z52W0wGbYVAXjehqMtZDLKUmben20rfwldc03Y652lSYq51X1tszvz8hU0GWFk1P2Retn0JsxJsZ5hfy/zw7DMmAeXhZ016tYXqKBVw5DOpWPbD48NCTMIWTM0JwhD+y0e3ikqcQ3RB7tahMpblr5/Pu/2gsHmBKNA7n0rbJOr+qaS/Or5HggAXDbrMo39jNHkCBGO2XAqVhd2dfnYpypKp1NDAHOumMbFe+nU5fUonSMwSOEXM7MIQeLGNfrKXe8giacuJ2imEzWyxnznR3mrwDQ6Q69t71x5Bue7Lha9RQA/M4lYZ7rfg8ARpCjcVdJkQc5CXhWkwrIfI3SD0dVz+/PVAYOgqoAYn/MtJLI7YaKU8wno2taTOCfBOizP6YxVffmWL5TGv+x88ohWyQYTD6WQ/GWefxngjfCqm01/aQHSnpX5CoEjcroBz5U6FaZZ/N5qoWnGFSnZJqWZfw6TqzIuCShBbxqUKrKy4nXppkK+T5R30fdn5BB5+eL9P1sBl2dRQ8I0DBNsTTNzilH5D++yVUdRcwnTyvQsjaHqIx3qvIyulxOP+pNGD2mo2V/LkHTfoXnselcKbXQHe7eHZ5s4HOWw86mDUcuTSuP5LKd5zKs40kL1YpVDgNotvGqH4j55FZLLt8LbdqSr81MgEdCYhpSdS874dTCYCQqV56HplZ2lD6DvlSMFJ80CuNRwpKE1v7US1G+pmlcAIAhTnMdHZvEezMAdNNKJ1JN9VZcx8lraR7d6B9AZZhbMXroJOgJfvuqqP5YL3Q0lFrOFOm7eWpFnX75BFTe9F6ToagqK1h2MDk6UM6w1VHuXpmBc5ssOABfJeqQqo5/1uevR0vyMUv7bcrX5FpuFdD2Qf0WPIsDjwjmWPFoUv7qGtpPzNK57d9OrBJO/Plwod486ZNaVLEBnpdaUadfPgFVhKwtMxSVLkPbdiKTrqff9Ryyi0jfqgwnFXbenwaUvxCXsSrr+OcvR0vfObyuhbYNTkpoB/ObTEz4Jrh8qLIJ7uPRunPFZefWUmphm+Jx4PE2F/J/+idJLVxtCdFt/J4vplbU6ZdNgG+olwoaE42jUsvawr26HDNfdiqM+z7+0IX+n1sfpS3ZqYxHZzFh8Bm6Tu5DtLzqGaBXSR4x+4uw/qcxOrzKtJDP7cVbAadl2qumc5xpjNv8TnuC1LZFdPqliGfAMMO2AyjkwelCDQ4obRr3tGs/nUF5lfUrj/3kcFXMM9LTeIX8Xpqr35eJyzeJCQe3dTK0rVRZ0MDsGxk45fJk2ZQTj/FNqs/Q32hHk1o4aKt8V+Q4nquyWyg9AmXqeh90+qpBlXvzqUV11IiBVnKIKnoXO02uJJS05824EQqHJNMGBL71Pz1HJWXKg058Uq4GMO1cx+aaIOPWEONrTKvftr/T1XUO+bZIZ076UstLRLr+T2pFnX65BD4jakSpLbEZvIMWtm07jknX59hT3E6ka6U/jZRKERq8Kbc2qjJWn0y7tFMOCvb0BUGHRFU51Z+nZwxo1YQH/RUoy3ifJplGXqNyiMYJWWqPqFuL+H4qkplv7zEBWlTHPqT0RZ9a6GAjVk/eT38HOfaSeR5YoS/TyBkgpUk9Kt0wjzNiZ5S642xSxlTX8M04pd3Em1MpHpAubWA4KRmv49D/5zBY44uGaqXmsQHM2txCvlcL+NK41jJAArQeVpzb5SpCavm4oKGz46E73tRyZ6HXPzq5uVdqhVukz7cwldOU8YHggIEYJNHo6t2i9jzOkIaiDNJTijxMWE7uz6+VoWCqCdohGXRV2Jfwec7lDj0DEmfRlMAOoocztQESO0z62R7v7EL+v2NTOBHX7SvSleXLZa/QpLisB57LDuE+6x5OcmhQODTZJ5Hb5KMKA0l9ZtV/m7+9PkPZVK7Gc6yM8nRMG37TrqUjL8vACKisuFOf/6dx07SG2+Z3HptJbUjH4zkqf/E0smPY41KEgWja8G5yLQf//+qogLRloAtb/kvdLqYVkZNnMmjCqs01jINQinCvWrHSyPLTsJDPWEpR2hvRbXRKUfkDoGtry8AIMBhEm05l0rV0/5q68+SZ/Ul5t/0tx1bFo0W6smw5tiuaNnluF6lWYer1luPNn+56edrlwwCOGbntnXTci8vnHGBoc/HBkWe/1B04+b9K2GYqtpyE0hdBKcIooZVusZ+PzFAo1Ymj1KujdLyk2JI7LANTZ1EYgbMFD+VPMpTpSwI92ekw7GtqUe0f8q2wJEt4xjqP7bjH7397osqgcdSDATDWAx2djOfb9v9cyuV+LpdJUzlNSWET8KJEfEOSvZ+gHqp6yzGRV7105NjCU8QF4OkUy4AI0OhDsSyXOm43O1yFp0K+8aUO0qG0IM4VCa1Jk2fM9OuEHTg7cjqOUg+mDBTFPWLVFkw14NQ/6S6Wb+xq97tkoZo8Vvpy8sM3xFLkp6I2RB8RqY3W6HxKsTXDVbPUwoluVeehnxwLFvn0Teo66F36qjOkqQNfqDwV5ohUqDz3/IiCWhSPloV2LJPu4xuLsrPhwM/gKNeK9Zyke/Ubgx8xEqFyIsBB7SxxGUoKHEW7hIpf7OfTMjwfqrpIvZL3AhFXOveyDIQAH6DYh5D307lJSqEHNYWe+6dUcpS24kgOy0rfDOq349Dic3BVnDWu6pBvbyrXo2TESRej4lXp5/68CMBuoXAn3McJr+ocOlkw5vsyE/Lp4if63+B2iqKOvpKhALQDUej6zMS6qrZXlO04cZGdfCyB/QSNm0ZTqQ0AaQineAh3jgU2534utdIgUqErDdZKEcYfUJSpSoMDtkLWHBnrVel2/UkXsndSFGx0KkJZnq5OWUzCwZDhirIxnkfqic2uIl1Tb5NyNU2xnfvGSRXm3xaTgMIql2FgU8vJgoeQLoSVS86Tyvx4gZ7sGNmx0ZagBFEeaWTZ6B1RIQ/p+K1/2gDG1QD61lDI10Xtiboyml4pspow4A5P3KQUTugUdgC0fUgtvxO0F54KswyEwM8FDSZ1GFKe0+Yqw7QOt+nvx2ao048J9GR5eOKhFKEr06aM513Hic1dBAWjdbbi2NM8fUP//jcA3LaKlfXFWwE8L16KfFfUrnisM7XQTW5oW6ju4wtIavfjimOLJU0UU9froNPnMSnFcjWPhqWUbQQPHx/Cd6ZUcpS2yvK8pH04VWQ01gEt52NF6WGx6pxTfPKt8bWxhR2lodIvx3G0pkVm5FBFuc5vmmHEdZ8Q6Uqj65SiOEZK+5xSbI9Sshp82uuJGjUjZ6UUVUeR+vw/ncUoOjQaf6U+3tS0vthGFPuK5MIzxrFvQOqTCIr6mpfGG5rCnnIdV8B+I2xbpWwtrSrcBthgCjvVzyp/AKntMPYUtZO1VeCcTrkEHiRqLHxDTynvEumZupNgPO15g0GTv385JcyWadNPfROdm1wTOwFTdcJNdFVfE+uMRxWeluV6ess2kPLy74nal2K7ZVY5VauQqZxeVbqr4rpsWyXoz8UloDqPqzwDPYm2Ygn6igzLWioHLrED5SSGob+dJOqg+QYb47v9McKVCPXg3iQ92is8PLQSRuzOFdUFj6mWIs8VlSm1C1uVHVJq9jwV06Q9zruGJx8sC07gFYLGQkcoqYVe1+Y12Hl//0FqJQFwL3KeHvP+zsA/pSzRcvlfYf3MMscsfa4LgBO4eexK/zvP4jNEdKiotsLYxhj4qARRWdhzcpRaaBwX28bOSawk9+5pbBir50sS6+nkCyDwXkFDoTe3lKI625r6DC47stiHjvfnOCrUtL5UUSJpGBm6989VgxNEbBX1E5sGT6LQ+DZE+BaqcqCze4gCie5RWNhzokpX1SmFsQdi658rQamDMylWirjtallwAjy+F9ugU/uqp1vKWB15f2qnOoxMptDzwILa3NGiMsV4X3yhSAdF3ajSoK1IqPyviAet2ksRHuNTsI3ZYmnCgvElFHrSy2NKYaTLWD2/mFJBp10GgRMFDYXR0VLK4wQ68mHYKaWSAGjpHfvQ8f4nJNazafJ8S1EcEWWZQkPpcj/zGhFXRd2o0rgSwOpNK2LsOrpPVujBcMeliCp2Br1VppQnidg/KqWSowBbsW2Eq26WBSdAj2WxDSX2iNM8xKoAF2vNyyjy7wqPilzGDB0YItW/1e2qEyIxYaI/Imifse071f10bR0qKsPM0IlZqN7T7uPpHAXn1B7sVAHJYlaApjGs/65YJSppglgvm78LCSiMRWKMu5oUhdHdYjsHvsmmdmxxhkBPWsqXIqoVDR7dCxF6C6SxWmzdT7ufk1+GImaUPJ664PIxt3EYHIt+6jmhU4SfnpY/PVuGnrVWbYukHoja1LviZeRnbTIMuJZxPhRGsakdp+0leG7osdOywARoXDetc2rze+rlLIXhTeqBlYZqiskU43mXIkeJ2gdPEoTI+0T519syO++vjvz0N5kQsl4ZjlnFoq4Lv78nBAyADUVsPhqYf4rb6Pp6nE/b/9OBVqiBZdMy8SRHW73Gr/9U08wCr9tFoCN1ptGpZUEJ8O1jvGGG/H+7xHxoNR2iV/0eGrOlFFWH/OqUSrZMW/H2y8AkIcI3resE9V5vA78FwG2NUOFEV/GWWteJ9g2hwakUR05PCYWR4D6Vh8fQCWfTIimOAtJIL6WonAGtkVJJp90tAdV+liqm+zQaZwsGgk9OS1z0+44CHTkwlOJ8Q+VMJPQNk57q6gNl7PdTRSF61wFwllg3OuMKkY8L9OCqVeow3k3L9ixBedhOYiZ5TXTlClJse6RL7JSypUBHlvFuKZV02t0SeKCokaSeJSqW3FLvuanctKYOFNK0xT1U1Da4nx4iKvew7MRohLhCiBJT7qH/ekUEzWoQoZfLEFFNklIfSWtaNkYprJjEfKb2b0B/IjH68d5LmkIJvI72M7E68n67Aw6sgD7cpgrxmtKpBfdpbxY05pcmrhAajSkeOOVAFVNklQOgjQKU4PK/yviPXirpRVAtfDOikZSizvkWHrINoAo8VYrbadWqE2NXpJT9BPXO9p1S6ElU0TZpFGtZUALPFDQSGt2kFMYYUDRkLi+mFMVbAffcS5EPCrjTyj3E9//DBHlXbSZ0BaJJPagCP1HXBzfJcOwaLt0rJko8BVGCcLLPMLRV3YV+HpS4MC8W6MiypY72qXhxSr2akriqnPwsAoqjIhfPykDwN769hXYE9fvoTCil8PxxPb+Q7zHn5dVlU+xzcq88RBTHPsmf7mWbWPqH6Mh7OAArYlRQV57bDpFfC9pd6gGzTbkUWyupgwKpnBbRniSlXC5oGwzUZFlQAoqZLDvAlKJyA5zaMIjukEMG/fo9qaOEtamnkwXl+UqbDGvXKliS67Nraab6yhC/9ToM/f6tQAW/Jsg/tJ4CVZ55GwN2hTKs7gtlOVOx2h8ZlbLKK+bzHrU0U3xVxIwI9eGRojxOU0zg5YKGnPp8/X0FOvIhpVVsSlG4VGYo4VJEcdztHYGF4dHBmI6V93JpPPUSK4tHg8B/CPQNjWTHuBGxrDjZK0UUE5rUK2kqD5nbJIaueI72Tqyjk++QgMJw7ReJ9VedVEh9VFFxNCz0yFyKKvibYGB5bYBiNChltLTYQe34gLxDb6H3uVh9yTvE6Qp938fmTX8CpYjC6VfqPkn1UnL/xNAV20Ol2IckRjXM5N8o6DxSu95kAJ/YDo7301FPSlGE32Ro5hKEg7CCOZfH2wr3RRV5H9A244jrVR4LQ9wCK7bxSjI+VUQFTL0quZWojdJ3SEpRuCZPHVwpZfmd9hwCPBsf29ly6Tul0D97rI68P7XBDQNnxOoZEzJXWQcrCspCFiF78JuK8g6ZfIQy5LGz2Lr0YlFyAAAgAElEQVTn/SFOVxiHIzZvelwsRRRbGqlXNDYTMGed8bRLSqGXx9i2wSOPlgUlwD3a2Aby48RsVL4KUjsr+pOAZSlugFXnsRk6ta2olldDveu11ZfXKwZhPoche8L0HBn7DHPLpRRRnLFPfTJpYwFz1hmNCVMKw/nGto23plTQaXdLYEgTgNQhdv8oeNhSOzBp2trWF5SFHc8TmmZYu+5+orx3q6WZ+qvCnwZ5sexthYxjO3nen9KZV5sy7SsoD5/FlKKK+8GXm5RCO5jYtpFzKy0lC6c9gYAiZnTqLQBGYottxLy/D1sAb5pQR138xGAqCuY8L91WVPEpnt8244jraSil4MXtj7ai8p9fSjyAdwpYXtAWYsvrVdtU3N5MKYqjvAzQZFlQAorZdmojwJ0FHQI75z4YAb67kHa2moj5CwLKo3L8lLPjUuxbh05SXyioK3qMK0UOFpTnnMSFUQXaoYFzSjldwPINKRV02t0S4DGt2DcXeltLKapjgCEGVm3KpTgGeEibDBNeS7/0se2C94fYNPDs/v8J8mcwoVyiWGplmUPiASiO8jIkcSnyaUHdp+6TaKuheD4Y/CilKPqkUrYlU3IabNqKpcvUR25Ue8KpvW6dJOgU6E64BKH7XIVzm1ADIoUHMwbqCTlX35Y/g64ofK7zFEmIcI82djCiAWspQq+EseX5aeLC8Px+rI68/z6J9VQcTU4dRC0xAic/iwC9PMU25NRHblRnblPPto8UsPz6rMrK/LdrBeX5QqDOCnewbNePD8y/zW2qkLxHtcm0du2XBPUU6oWwpobsKznE9kmh4ZWbFkJll5TaO6niaDK3mCwLSoCGUrEPW2qL2w0EOrKMqY/cfE6g53EFtbNfCcoTah9Ch0ix7ZL3pz6iypUSRfAa6hpq/6HIv6R2d6qg7ulNMKUwwqSifdLYNqVcItBzz5QKOu1uCTxH0EBShwNWOaUJsUhvUzsfELCk//1ShHvosZ0cl+FDovHtIsi70j2loRVXGKp8Yj9DolXeBgCfv9i8S9l6Ytu/SlAeemZMKYoXJ9bZCimVBHCjgCWPuFoWlIDqDPEyCflwAFH4hk8d1ELhkz3UECwFfsYliB1YeH/I8cuVRHXO/GlPsEoCQHcCoHD+RB3ZvlnmtqI6rsnwyyUIAysp2lyI8Wmb8r9eoCdjP4RMjpvqqTLkTb1y2rQ8vi4BAZWf/bUS6FZP8grBA5f6jL3KGcwW9YJ3+F0RJ4Kdeeg+PCO6KQYDpnE4gKWELGlc+F2hfqFL8KoJfMhxTSHOfyel8gL5jH+nmObLuwR1f1ka1f6dKvtkxfOTOoz6vxX2l/wEVAZ29I2dUhTWrB9LqSAA1WQqdMBUF4+udBUdyEGBiqmWWasy0Lpc4e2OVv8KQ7VKL37+TyCj94vq6JGB+atv211Unh3Uio2lR+PWev2FfE99ekoVr6CUF5KxKvB/FQRUS4ipLewV56xTnwtX+Qd/maJiBWnQb0JIxzZ+z5mBunA5+K8iHSqd+KZNo9JQYad6mlgn7tOuHKiQ4pw32aRewWtaPDqdqeoq5jOmjpvoqvCxn9pAlX1yDMPq3js3AeJr+kmARihVRcd8pt4nUsy4adWeUuhK9SYBT4ZDLUFoYMYocTHtgvfSriE0DgON02LzH7+fhonc824TepcDCt+21RMS6kbHNyHCQVvhMCn1KZ42ZTtMUN+cUCm3eybpr/BTwVNDKeXRApZsn8umVNJpd0uARig0RhnvJNv+f4/ExVD4B78+sY5M/hcCljzWVYrwjbltW5h0feieLJcfFYPcJJ1oeEd/A/SGyQksYxAwCBJdRvN8Nk8iMDId3/ZS6UBnSyH+/9k+VDEAUp+Zb9OWFVt9Z7TJMOBaTvQVRslvD8i7zS2KE158obEsOAEao0zqINv8ljpm9IsFOrI89HGfUhROWdi58OhjCfIeEXcazIWKwjNcm7ac81q2l1D5vqhu3hKqgPg+VQjqUOdTTYuj8kuS2sGOwoi3pNWhpvXj61oSUDgSSW1gp7J2Tm3RqohlzgGInsZKEIYrVQyInNS0WXKvl/3uiZbeFeWKSYNL1bQbCRHuyyreQktqa7uK2hoHvpRCg8mYeq/uTW3s+xGBnnTKZFlwAt8SNJSYN7wmeO8t0JEPXmqvVqoBc/8mUDJcs7xw8H1FhL6KsNVVx1vKZ8yq2atEzwMnIaXs8apWmx4V0c6a3EojXUUb4gmslKJwTf61lAo67TII0OgstkGnjr7FgUixDxvqbrVpTamWMY9pmmGG634kaB9sX2wjoY5POEgxxGtsOy3l/l8DCHWeRYYKN81kwW2EUuQUUf3SQVNKUbxZsy9j1MuUorBHondTy4ITUHi1YuCY1KKwvOWsOLX8XtCR0b1rjkh2TVgoQkZXAy9XSEJla5Fr00qXrj5vABATmVLpJjlmVSa0Hifdxwm+whg5dWAy6q4wjL1gEgTxb1cL+qHUHhXFRXZyIQSeLWgo7ExDXJm20VfhfCWHUcuXRTxTL2U2ZU/reNVgeWLTTKdc9zyhLqoytU0n9sSM6k2ZesdMRKZUUdDPTxHV6+eDcm9+E4/GXiPQNfWWqep4d+jpneZEfWXnBB4iaNDsTO6XuCQM8NG2s510fYhv+jZFo1vVSfm2/e3QNpkmvpZR/drqP+16trcY4TbOtLRL//0dMQUHoDJAI6fU23ZtinqEqE5T2/jQIFXRxmjvkFLuI9IztUfFlAycdkMCqkbNc8kpRfX2xxMFKYXnuhWdBKOiLZ1S0RZpv1RUJnKhV8dQWwCqzLcwRehlRR21SeNTkeUmM66gtMlz1rWvbFH/KS/lXrgioiHLuklKRQEwougspk3/Fur6uWnx+ObeVJdZ123UNENf118C9I+uOFKUOqLY/UWNmhblKYUdtSpKXCnHAWncqNijrTqb2BCjtI/gcm+VXumf9PYXO5lTOHapOMUcy1Q/O7uJ6pE2QqlFtQq5XWJF6duhquvQT3q9pNMjywAIKCysv5qYEy3BFYNQDstndvihD179vo8nZtomecVx0apslwpsRrgSwEBDVZqlfnLZP2bFg3XEcMaXC8uaeg+6TbtS2cx8ok2mgdf+VFAH7MMYqjelKJimdp2esvxOuyWBbwoaNo82pRa6+Yzt6OkLPvZtbF45nyzQk+W8MoOu88pS/f3BojJV9ffBKuHIT0YN5Hn2Kt1SPrmsHWvwV6E5RFy+J1UJd/ypXP5PvbXHKJA3C+rh9AzMFUcAU7/QZcDgLJoSUPja58ORemDlG7Gig08dvZDHmhSBgVjWpzWtxAzXKY0B6Qd/Z5HOPCKoWMVStC2mwSh9qjCqDwVAVirdyCl1sJym1cq9cEW5OAFMfa7+4SJdP9oUTuB1rFvFhPiAwPx9Ww8JPFfUuFN7t1IZAtL3QWrhMquic+OyYymiitdecaGtxBqiwnGLiHufqolXpWObT57xpyvaUCc/4yjoPpnbJW10mHdtakv58TJM+z+3RVThjLk9lVpo4zSPbZO/p+avOrbL4+GWgRB4oKhxq5Y8p2G/l0hPRoFLLapJFTuV+6ZWtmH6NAqiE5MmHV3Ta2iTwf18ldwNAJcvFZ4jm5aBb+gMQsNIgirhm9wPxaw54VJNTmLLqXqjZh39V6wyDe5XncBI/ZJEA9um7XbWdakNFRsg9yW5CNB95qzG0PRvH0qsMDtFhYcrvqml9oG+svBt9LOJubZJXhWGtt6m3tRGgYbXcgme3GjNXM9L+Z1LrfTXwEmHWlRvnPXy7qNWMiK974jqhXWQOnomnZwpDJB5tFc52Z2EX2UYy/7LMiACFwseyJMz8PqGQE92io/LoCvfROsdcOh3DmKh0fTUxWQHprQFIBO+rXPFJIUwBDRDr3IrRbGXziN0xwL4b8FJhmnlVW111dvbhRmsz6eVZ/x3TphUKzSHjyee4P+0w6mzDP2ew7DuBIGudGduGRgBxcDK/dfUPuxVTmlShzBm81GFOGWHU0qEQJaLxnuhneC0+ziwpg6RuiqAJwJ4PwAGObqkQTl4vvxoAPTexlgGqd82aaGv8MsxzrkkY9KDG3Af13/a/1mfqUXleGrvxIpyi07hVCnHRCUxCifflsC+ooeS+/QphRbf0zqDNr9zPzT1chwnQyojLvog59tsKaL0C1DVG7dmcrsf5fIu9+4Zcpp5PwgA2xh/49GvnMKJlcKCu+JZff5E4ItAxWF94dYYn+HULxw82cSl+4plzOc9VRCnpMPYDjH6Vfe+bkr6/nmBCahi2XP5MqVw0Ob5+Kqxxnxum1LRUdo8ThOjY/3e92bQt2kWdBNKnwp1/RTf+QbzmKZKLNB1jPKXYvDnUnvqOB1tquEzwjaT2qsny7WTSN8rMrxwqAyPS/FA2qZd+dpIAqpY9rSGTi2qJbkDUys6epNU7D1zcKUtQEn+uV8k6hzHJw5cAk9lE5ChyltnwSNXCiOzcY78P93XliJ8A1Y9C0yHqwmpRbVdwYlPajlM9DzSKNwyQAIMlzupE2nzG5flYl2fzkOvMsqh4WPqbQCW5UgB16oOSjoRQHbcS690U37yzfW1GdrSvLaW8u/kxxMQSm71tH6T4bRLGz488lnXL+Y7vZemFi7/XybS+amplQVA470YpryXxqKWgRJQuARmI0pxLKpeJTTEUrjlpK5c4kstqpDL1JcDI/erS5ENAFwv6HhYtkn/aJxKX/iLJrTnUB2Fm8SNKwo5tria1guXlSfpGfpbDluRR4l0Zl9FW5OUQpuVUJb1+3KcqkjJwWlHEOAbV70xhH5PHe6SRVQ5SclxGoD6Ko/O5XBk1KYZ0RFLaFtpch+dD5U0mLVhM+na7QFclJgZvSKWIrRO/7mwvDmOG5OdKqjXMRkqQvUMlhImOgMyZzFOgD7ym3TI867hHn1qeZlIVzoWSh2diyzUbnRLc9Wp2iud1rb4FsVBLUddpWq7PFXA6ICp9vsrdsdliMvRhtGrRc9qVT6GEE4trKvrRHrz6HJq+aRI11K8jqbm5fQnEOCRGsU5UtoSpLYD4NKzyplIbHz6CShv9RPfgs4VPaTsCHk0qRTnQCws247CCUnVyU/7PK+npwToE4I+BaaVS/U7V0tKMuLaVHy64exMwYzo6ElRJ+yj2FelFoWLbk542E9ZBkyAy8uKhp/aHwCriOebFboynRzynyJ9qzJ/PYfSLfLghERhSFqVb9Yny576XHWLok+99D4Avieu92lcaIux5VRN8v+BrrtVPvSrMudyaHSqqM5yBPNSBQBiADPLwAm8QdTwmU5qUR5Dy9FxskP8tYhv1SFya6Ek2Ua4dFqVcdon365oJFjisiUdCqkiQk4rf/13snhCSQ0BAPeT6zrGfmec+xyndtiGY3Wt7n9xhjphjIcqv5jP12TQ1VkUToAGSjGNqLr3pAzlZChZ1X7qBzPoyyyeIuJbcaaDEVVIXRWCHcXLvlVZZ31y5Ypvh13aCHDfmMGSuAc/S9cUf0vtZrZt2+BJILVjI7pJziE0DFbUEf1Z0L9KalG1t/unVtTpl0/g9qIHl446cgxMqrcs7n+lPqrD2qdtBCdHig6mSoNvwaltLtq2XAZbUk3OqnI2+bwWwMcBcBKSYz+TzwtD29IJSwrPiE3K/Kq2lZP4ejJRt3Hal+Ro4zyeqbCDYr3R70Fq4RFZxXPGMqd2q5yahdMXEThKNEDliNOt3FentXIO4UxbZcBYDRCvz6F4yzyeIfT8VpWzzScndYxZwBMjtBfgFkys0DkMtxzYVvicqAaLNuWqX1tivX9Y1H9U5eSzkmubRxUThbrn6P9Up4vorMxiAv8kwOXE6uGL+TwiA08u+aqCddCAjW8vOeTzIsZV/XDFpUQf3tzyoAvjSs8uPxmt8pcA2C7fOgrp+2QADwPASRmDqXCi8MARS/6NsS14dI9Gh7RAVzmgUnAoKUJk9cw8J0Fdc3Ulh7AvUXn+Y/Cu5TIorXKLTnsqiwn8k8DGooeYb0c5IqodJNKXnTI7sByyboIlYwZJynHkqC2fhyb2FqgYTPuUBid7Oc6Wt61nGs+p9/15smGdtooEXr+XsB/5QKAObW5bBgC3vBRtt8R+ow0LXysmwLcdRcPKYaWuOgbD8v4qk6Uxq+vlIsb1ejq9Y0O4ac2QS7iXJyhvvexD+M5JdWnW/qxz+h6gH3l1HbxkWoMS/67208HVpNTCdqDgfVZqRZ1+/wi8S9S4aKCWQ44X6csHKsekhUzY6XDAVjzE9TTowrRE4dG4up7+3o7HJRn3wtu0H9pWqPyH1NvEKSK7jSZloWfNet4x33P5FfmiSGducVlMYAkCO4saF/d/V14i5TT/URoDMopaDgtykuCbMY8LxXQ4k+7NtZXRpjbpDW+Srv5tPhdOFEtdpk0R0ZCW7TmcibH90rCTHiZV7TCHZ1FuraoMUHMEVmrTT/jaAgjwoaCffMVDsUeG8lBfpavVnL72DxBxrtcV6660KHoHJihnvcyL+p0rOl36N5j1+K6fyMgzp4Ejg5ep2g5Xabg3n1pU1v80oM71spOaidMXE1BZmOY4D8uiqzxisTPgG0Guc7E8eXCmsBOqOrNc+6dNm92PE5SxKusiftLJE/0plCzvTlCnXO3I+ez9XlgGRlTNIV8T6ZzrhEUOJs5DTODxokbGJe67iHWblBwd+agieHFAyTmA8viZ+rjc0ZMgdfQbV2huELWnRRzsx8tEH/K5rN9jmsQ54jrlUc0cBnRVmZXuiukIKseqGw0uVX3FYysQ/jSBcQJ8M1VtA7xxPPFE/1e+kXB5bNVEek5KVtkZcUC5dFImHf12b/FAMT5gLtr/cxwji20K7B94JFHJnk6bcsnqAHheX6X/+zIprjo9xP4t10pLJjTORk3gUNEDwiNCOQJ5rCdyjVl1Cu9XA52RHl2d0nNdlXfsJ42ESpEXCMsVy6UP99MCvnShca+SZW6X1h8S6s9VzhxGmuwjVAHF6DLbYgIzCdDPueohz+Wpjg1bpTOtkRnTPJdwxUG1J3lxLqUb5ENDNlWdDCEdehws1fCvqm4e/1P4oWd9Mp59juXzSvctxKdvch29VQVrI3N6wLSYwEwCtBBVucfM4RqYheFMXOmylT7fc8p2Iv2/k1PpOXmp94qHMAmgS+LS5TTBxI772ffLWFC+RdM+RtWGOAmi99QcQqM9hd7s0239n6PGFiAP1VIZH5S1MvE4RPSgVA9bLudAFR4GEqnyDv18fpVYx59c1VAHPwpl0qf7XtFxvTXJ/g2Cdrpnk4yE1zBks7IdMHxwDqGRs+rsf67w5zm4OI/EBBgoRfXAvC6xrlXy9LVPi2KV3jSoy7lEyXLwIQ3Vn253V6xgdPz5qIhy1Mt/OAAaxzHmQf33Rf3+5Y7rrUn2DPlNf/2hdZDTxoblYbhfpUtqrl7QF0IOoYFkKOfx+9inW0ygMQFGURtvRCH/zxlxj4NFiI7T7sk1068qhUfnjgksQ05HRpW+0z7fHFiG8XrYbZQBrc+fBIBGY8qtnvH8uv4/bUH6IC8OrF+2bbbxnPKpQF2ntQWGPs4hXK6nncQ0Pdr8zr7cYgKtCPBMfJtGNuvaXIPTmmK/AFzG3rEVtfiLuepAi/BZPMf/lus4UtPS0YZiXMeQ/3NVZ1x4JppuoD8zOvYYkq7yHq5OfAWAyubhzuMFLvD/3FPn5LgNx5MzuQiv42JUSuVWFM/956ofhtVuw3fWtTn9m9T5+3uPCXAfV7WkfgYAdho55DXCB4cP1fkAVsiheC0PLuXTgHLWQ82/8W2Y5c3Ftqbi1K88+qnwJcGVo3nCcm8N4NUA6CmNdTWPWezfuTXElQiG592qdtRV5d6ZKx19ENbzfg1PBXBrI/czxP1z1emaqs3sm7FiThK1ZYZrzunbJCMiZ5WawOdFjZAPEGfjOYR+udUDwSdyKD4hj4cA4D74uCEQ9zRp9Hi3Cfd0/dNmojbDt+oQYcfPo1MvAnDwaGLAaG0cDJpMaPmWRx8WPwPAUxUHAaDveKY5qyPdRVTuvkVq45HZjwKgG+NqoOQn2ywH/geHVKLgHvUx1IsALCvQq0kSPA1SZxnzne7dLSYQREAVIZAN+MggDcJuUi6fVQ8fO/iuhPumdK3MaGlcFi/pjX+cCaMSVsxiPhnnIYVwgkDDsA3H/nFpNyaoC0+7xJS3uve4FIXOkCbbJNsm2yjbau69/noRuYpS8VR95oj4V5WBk1+V3jtVifrTBNoS4EP9W1Fj5F7clm0VCLyeep8g0rt6ELn0Swtoy2wCquOYfQxZqjDa4ptzl4Pn7Not/6+0A1Ja/fP5P7W21ZOaAFf1VO6Wzy38ZSE1S6cvIMC9zmoQjP3M5RiIxebesMprWVVuRjnM4d5YUG2dJUF7j4pX6CfrbbnOShCe8RcEZSczvkVb2hOgp8LQUzTT2ioHYzrqyiU0bp2mS9vfbfyXq9YWOJ/lhQE0uArAKHi55F3Ch6l6+Gj4ZJlMgG2FPtIrVqGf3H/vo6gmy6U4dOpbHewvaHvjbZZ2JLlkE+FLy7UF+QXJxc/5JCKgHEhzrgLQaOc8cafANwL71J7c0FQ2I/RE2Ufhm+L4ABLyf55dt7QjQGNDxeSzXl9/ynx0kQZ79fxjvr+zHT5fbQLTCSgj7nEVgMencgnjX8c8SJPupT1ArvPAuTgp8lEdwczlN0JR5noadFjU5KTBpDZV/+039UT9fS6BdRLs+7M+aEycS3iaQjWB4RYa+2yLCcgIfFE4kIYe8QotDI/S1TtYxXee0y09elsor9D7eBZfwTZnNMbQsk6770QBA06SZx05nJb3EH/nM9jWcVaTNpo7sJby7Z99tcUEpAQYvavJg9PkGnZw20i1m51YCstglvOztrJdAvwlgjZCJ0J9NrR8r4AB2xbjKVhmE+BpH6WvkqrvuibzG/Q9hJb/LEPOSIuza8h/XSgCx4s6NzbSYzOTSXE2mOXgsrflXyGZqw405vN7PYf5VNEz8qaec8ih/mtFrMfba+4tqO8Ky8E+2mICSQg8QthQ+dDldq6j9g7GMtAo8PFJaPcrUQ98/6qvDUTPSN8nQqlbL5851Xn5+gTgq6kVH0v/4aL2UpXhkWPp+78mICWg2OOsGiudDN1Oqt3sxOhjn25eq/xVn1wyZMc/ZKHLXAXPRejAaD0ey4Jtqs9bISmfBXpxJJ9YxuP3X5bZ2Rf9FpwpLAdtIbgtYjGBZATYQY8/ODH/Z2jRnMLjQineHL6esxAF5vVTQbtYFOM3G0OmbaDfErS1SX1W7hXJ54rLwRVaiwkkJ6BcBWAQkZWTa7xkBv8rfvCqzqTE4DxLljzN/1TH3xhSdxGE0QmrNhHz+V+LAENcBlWwqfF6yenwh0juCECxUlSVgxNwiwlkIaBeBeDycU65LYAfiTrp6gHk5ytzFqKgvLYVsaSNxiLIjiIeH14EGOIyqHxN1J/b0yIDQYUU8W2iNlKVw2//IbXge4IJKFcB6AAjt//ztQHQoU/1ACk+Dwum2e8b9xZxfEG/Mfxbe77dKZy6/PzfKfpLRUB5Xp7PPG0JNq4Sz/S5OYC/ip4ZlsFv/5kqztncQkBtvXoyABrF5JSHiO0BuPc7RFGdxb73AsHj4B07qeQkgpMJyy0E1Pv/u96SdJZvNNJjyOfYtlG//6FZNHcmJjBGgEeV6g0x9nsXb4D7CsvwyTE+Q/nv+QKGNyxYGFwu38c+D7yf2wmWWwgoo+W975Zks317jqhdVG2LPgQsJtAJARrkKEPuMoIVl+ZzCmfkKjfHL8+peCF5rS7q0PhWtEhCA76qk475pEGh5RYC+4i4/jjzEWSWgO6dLxfpzzbFFSJ6EbSYQGcEPiZs0GzUXE7OLYw9r1iyHeIpADpkiRngqnsPzF3pifNjPIOqbDGfQ91WmlY9ilMAjBC62rQMEv7OFcKYtjB+70cT6uqkTaARgbUAXC9u2I9rlLP2IkbPijEKHOpSnMqaOfderLb13Do1rixdJXgueFTMsiSBoyK4XgdgiyWTy/I/2kzRz8X4IB76f/a57HstJtA5AeU+Oh8IdnpdzNAfEGid+xcAfY5gF9OAjhF1aneJUaLQe1U+3tcvtHxdqUUretqMtB08u3LbvRKAiwL0nVU+9rkWEyiCAJfQLxY38K5CWvJNtM0RHe7D7VZELeRXgqc2FKs/7BwXUfYTPROMs2BZksDTWp7g4eDfhZExtVbHIGFfyz7XYgLFENhd1NnVZ71P6ah0DwPwxwblYejax3akYwnZ3rMBo3p9Tvt+RAmFSaCDymHWexLotghJ0nVvk5gANLx7QkcFZr7T2n3o70/vqCzO1gRmEvi+uLHTTfCaM3NM98cVAOwPYNIRNwYNeSeAO6XLvhcp7ymq70X1oLiKaN/Xjl6mPw48hfIuAHwmxwfUCwDQRiW3q/FKW/YPMXZF4+Xh/39QJe5PEyiNwF0B3DThQZzUkJv+9s2OI1zRmIuewrYHQMdBtPTnbxbgE6K6JttFlbMFjPhMMd6CZToBPpN8NvmMsj1tVMBzypWtpv1ck+vYDtjHWkygWAKqfc/6A0FXs5byCPxK0MHRj8Qi72eqjn7dr7zqt0YzCDxf8GzU+0B+Z99qMYGiCfBNRfHWU2/8NwPYruhSD085WjYrwiozEMsiy/NEA4Enwf1pJVsGnlKo93nj38/tIGBRf4hb06II0Df1eAOO/f+FALinaimDgCoWxAfLKE4yLbYWPQsMgmMpnwBjN6hfgNh30qDUYgK9IaD02V1NHg7vTekXX9E3iAa2Zy04Koae/rOAFb3XWcon8AVBXVf9XfXJvtRiAr0iwCXiPyR4GLo6y9sr+BmU/Y6obodg1PQjEauuTsRkaE4LkUWKfX8eR/bK50I0j+EV4lGijq+aCfOTlrDbDg9lUSWmxTWPaNbrJeT7lQVYaucAe4CAFfl24SI7B59FyOO+ABzyxBcAACAASURBVG4U1XP9WWIfajGB3hJgwIp6g1Z8p6vgdXpLpP+K861dUY9cRRiCqJzBvHUIsHpYRq7MpFjt/EgPWVhlE1iCAI94/VY0YNQHHVqPL7tETv5PLgLPFNXnUPyZM2hLve2Gfj86VwU7n8YElgFwoqh+6+2CDsjojMxiAr0nsLPII1r9AeH3w3pPpp8FoOX+eF2E/J8nCYYi9EoXwqh+D40JaVRoKYeAOhw665tRA+mO3GICC0PgfYIOsN4ZVt9fvjCE+lOQUwV1yU5uSMZNKutwnjG3lEGAfU/VDyk/2VdaTGChCHCp7PQEDwyj8Xm2nK+pcNuFjpliOzyelR6SvETAjMwZf8HSPQH2Oex7Yp+D8fvZR7KvtJjAwhGg8dh1CR4aBtxYY+FolVmgB4rq71NlFi+ZVvRkOd7Zh/z/48k0dMJNCdDob1LwoZD6rN/DvnEIx2KbcvZ1C0ggRdhgPkQfWEBWJRbpFaKBjC5yhyR0ka0IlHXWkKAVWtaDRc9AffDn96cVWl6rZQJSAimOBv5lwYPKSCsgIjFVhLOtInTo660Ka3HaTnQV3rav3JV681STwrPj+OB/iFJJp2UCJRO4A4AzE8yiGYPAkpaA4rwzJ2tDtGZ/r6jNu52nbeOzUn+EqA7rE4AzALBPtJjAYAhsmmAmbTfBaZsPnS/VO67Q78emVbPY1LnEG8qsfh/jMFi6IfBiUR1W9Xk9gLt3UxTnagLdEniy2D/AS7stzsLnvquo8ztw4UlNLuDmIn7fmpy8f81A4JWiOuQEgNs5fKYsJjBYAm8WPlBPHyzFPAV/p6iurgFAb4JDkvsLPWJePpAYCiW2D5UXTE4A3lRiAa2TCeQkcBsAXxUNLJvkVHyAef1YVE/V8ueXAay64ByXBvCWBGfG3da7aThcrq/ab8znVzyJ66YCnWt5BO4oMAqkUaElHQEOZDeIOr96x3kJgMekU7vTlDlYnJKAGfn9Z6clG3bmP4+sUx7ltJ//Ybchl36MwPqRzjWeMpae/6slsE1kp1cf9Me/cy+Ux6B4xGoRhOGS6bEvxXGxip39XnTXUmJ8mTAE9kbdqe6cTaBcAvQy99eAgebbXk5LXqkvDKiXarBq+vk7AA9IXpK0GdAj5TczsGI8Bks3BDjB+3pAHf8NwE7dqOxcTaAfBHYBcGOLh4vOVbyclr5uP92iTpoO+JOuY5wBHnPro58AWnRfkZGTz46nb/fTclix5fYOt88ePy0x/24CJnALAVpMc59s0gBR/fYPAAzFyeA0lvQEzplTH1W9qD5/AmDj9MWS5MAJKGMbqMreNB2umFm6I8Atq080OMpMm4H7daemczaB/hGg0RkNnXjmmYZi7BQ56P8GAH1x37N/ReqtxrTU5z5904FJdR2dpJQe/W57AOd3wIaMGZfB0j2BrQF8CAAnyeyjWDd/Gp1ueiqApbpX0RqYQL8JMJiKpRsCj+pogKsmEtxTLy3a4+0AvL3W4Ve65vzkMUpLeQTcV5VXJ9bIBEwgkMD+HU8AOKgy/CrtQ0qQzQCcVgCTi0uAYR1MwARMwAQWl8BRBQx21Zs1jRGX7wh1dbyPwYwqfbr+ZHwGiwmYgAmYgAnICXDQu7qgAY8DLvfcufeeU9YE8J3COJDFk3JCcF4mYAImYALDIaAKYKN+U6ax1UEAuBefWhi0ig5c1GVQpPeO1IV3+iZgAiZgAsMksEehA181eNIF9JaJqoZnvemhsMqrxM/jEpXdyZqACZiACQycwEcKHwA5KNNx1D4AGFhKJTsD+H0Pyk4HMzwyazEBEzABEzABKQG+YZf45jtJp+8DiDWKWwbAAR0f75tUtlm/3Vta407MBEzABExg8ARobf/3Hk0AOEheA+AZgTVHe4fTe1ZelvkFgeX1bSZgAiZgAiYwkQCXwWe9eZb8ty8BWGViqW79I0867A3gpp6Wl0cjLSZgAiZgAiYgI/Aa0YD44Y720y9sEH1tPQDHisrZZkLElZW3AeAefpv7Jl1LF7QWEzABEzABE5ARCAl5OmmAuiuArizqGcOAlvyTgkbxeN9VggF4Upln/Vb3Y3C8IH+WcTVZrTshEzABEzCBwROogjDNGszm/Y3hcbnEXgkH3Vwhc+u6Mbokg7ZQVgLwGcHAW0+/6fdxT4bvEunBeA0WEzABEzABE4gmsIFoYKL3vHGhpT4t9psOmqrruMf/bgD0oa9Ks2k6jGUwKR48J0RN05h13ZvHIfv/JmACJmACJhBCYHfRwPSGKZlXfvX/LMpn1uDY9d++C2DtKRzWFZX/e1PS988mYAImYAIm0IoA3ewqBs6HzMl1UwCnivJS6KtMgwZ+PF1Q3wKZhEOxIsHjj0pHSJP09G8mYAImYAIDIHCiYFCmv34a/82T2wLYr4c+B2ZNFk4CQOPHJvIVAWvqwjDFFhMwARMwARMIJnB70Zn4X7TUYFsAPNI2a2At/W9/G3kSbOOel26MFeV6TkvevtwETMAETMAEliCwnWhAYhyBtsLjeqrtB8Wg2iaN3wF4QNsCA9hBxJvHHS0mYAImYAImEEzgpaIBKeaN9BEA/ijSo80gHnJt5WtguUDinPRw5SAk7/o9Pw/M37eZgAmYgAmYwD8JfEEwGHFgit2TXh3A10S61AdK5Xf6SniMoN0oYhDQu+AKAl2chAmYgAmYwEAJXCAYdK8WWqU/E8D1Ap2UAz/TOhzAqqI28iFR+XYS6eNkTMAETMAEBkaAb92KgZJn35VCx0THiXSLLd+1APZUFg7As0VlY/wGiwmYgAmYgAm0JrCLaCDisT61LAWAFvN/FekYMhE4AcBG6oIBoD+EEH3G7+GWicUETMAETMAEWhNghLrxQSXk/49snXPzG7YBcJ5Iz6Zlo6HfK4XbGuOlpbMgbps01WfadbRJsJiACZiACZhAawI/FAxCHCxXaZ1z8xueBOAvAj2nDaLTfv8SgDs0V7P1ldw2mZZ3m9/Xb52zbzABEzABExg0AS6xK4ztfpWQIl3r0sNgmwFRee1PAdBOIoW8SVSup6ZQzmmagAmYgAksLoGtRAPQJxIgortglaV87ISADn/unqCMDOkbqxvvf08C3ZykCZiACZjAAhPYSzQAqS3kVwZwtEg3xQDLNK4CoD5yx20Tbp/E6shVCosJmIAJmIAJNCZwqGDw4eB1j8Y5zr9wQwDcUogdFFPcz9MI9FGgFEUshJsAMJ6DxQRMwARMwAQaEVAMtNcBoC2BQhiT4NJCB//6hIKxC1SheD8tKi8DK1lMwARMwARMYC6BlUTGdT+Ym1OzC54M4AbRYFgfrFN9V50QeIGozC9phtlXmYAJmIAJDJ3Aw0UDz/6RIHkens5+urT0D50kKE4I3FtUD5+PrAffbgImYAImMBAC+4oGnkdH8LodgE+J9AgdxGPviz0hsLTIxwEdJVlMwARMwARMYC6B7wgGXlqwrzY3p8kX0AL+RwIdYgdwxf2xJwR+LOKw5mTU/tUETMAETMAE/kWAy+5XCAadcwOB3hUA71UMvvPSOEN01G5ePjEnBA4UsXh8YH34NhMwARMwgYEQ4AA8b0Br8ncu37eVBwC4TJT/PB0PAUCHQrtmNDAMOSFA/eaVpcnf39q2Mny9CZiACZjAsAjwLHuTAWXeNc9riY0hcHNE9vs7gBeP6cZjcgycM69Mir+3PSFwF5Fex4yV2f81ARMwARMwgSUIfFA04Gy9RKrT/8MtB4YLVgyu89L4M4DHTlFlAwBnZdKj7QmBiwR6sexc8bCYgAmYgAmYwEQCpwkGG0bnazLY0EPdZwT5zRv4+feLAfBY3SxZHsC3M+nT5oTAESKd7jmr8P6bCZiACZjAcAkwvO3NgsGGFvzzZFUAxwnyajL409hv3XkKjf7OicsHMunV9ITAq0T6qOMyNETqy0zABEzABEonsL1ooHnbnIJuAkDh577J4P9dACvM0WfSn3OFGm5yQkBVLx+fVFD/ZgImYAImYAKqN81ZR84eAuBq0URj3gSgsvQPrdlHAmA8g3n5KP4+64TAsgD+JtCDNg4WEzABEzABE7gVAdVe8zSnM3uIthjmDbiTLP1vVdiGP2wJ4PeCwXeezvz7rBMCPxPoQOdMDKdsMQETMAETMIElCCiszSe5nc1p6X/9DEv/JQrb4j9rAzhVMAA3mQT8BMDqE3Q7WJT/wyak7Z9MwARMwAQGTEB13vyzYwyXAcBgNE0Gv9hrmlj6j6nX+L/LAfhapnJMOiHwLFHeb2xcYl9oAiZgAiYwCAIMuRs7APP+F9VorQXgZFG683SjpT8nMSllKQAHZCoPTwjsWCvM3UT58pijxQRMwARMwAT+TUDlc/4+oxS3AHCBaNCaN/iHWvr/u/Atv/x3JluG+gkBVYyGKwEwLYsJmIAJmIAJ/JPA8YLB+kYADOPLfeZrBOnNG/j591hL/9Dqf2jGMlYnBI4UMeUxTIsJmIAJmIAJgHHnbxAMLgxdS2cziiNr8wZ/paV/aBPgKsf5Am7zysq/84SAavvhP0ML7PtMwARMwAQWiwBd5DYZhOZdk+t8Py39H11IFawB4EQRv1x86enQYgImYAImYAJ4YaYBbN4A1+TvtPS/V2F1xpgGPP3QRP8SruGRRosJmIAJmIAJ4LCeDF45LP1Dm0NOXwexkwjGe6B3QYsJmIAJmMDACZzbgwkADeBCfPrnrtpnA6D1fuwgnfr+B+UG4/xMwARMwATKIsCofHQRm3rAiUm/K0v/0Jp6AIDLCmf6itDC+T4TMAETMIHFIPCYggcqWvrXHQv1ifhGAM4umO2X+wTTupqACZiACegJ7F/oIJXCp7+e3uwUVwHww0L50pjSYgImYAImMGAC3y9wgCrR0j+0idAx0qcKZMwtmXVCC+X7TMAETMAE+k2Aluu5zu43tQEo2dI/prb3BvCPwiYCu8YUyPeagAmYgAn0l8DmhQ1IfbH0D61xDrgKj4tNJ1PzrntnaEF8nwmYgAmYQL8J7FHQBID+7hltb9HlfgAuKYQ7XTdbTMAETMAEBkjgIwUMRH229A9tMhsAOKsA9lXwptBy+D4TMAETMIGeEjiz40GIlv48hjhEWR7Atzrmzy0CxoGwmIAJmIAJDIgAByC+fc/bJ07190Wy9A9tNtzyYGCeVIybpPuCUOV9nwmYgAmYQD8J7NzhwLOolv6hLaHLEwKfDlXa95mACZiACfSTwGs7mgDQ0p+rD5YlCTwSwLUd1Mk5S6rh/5mACZiACSw6ga93MNgMxdI/tO1sCeD3meuFcSBWC1XY95mACZiACfSPQM6jaEO09A9tEWsDODXzJODRocr6PhMwARMwgX4R2DDjADNkS//QVrEcgK9lrKM3hyrq+0zABEzABPpFYPdMg4st/cPbBd0075epno4KV9N3moAJmIAJ9IkA9+KbHBGLuebnAO7SJyiF6vpcADcnrq9rANym0PJbLRMwARMwASGBkxIPKLb0F1YWgIcC4CAdMyGbd+9mWpWdmgmYgAmYQGkEbg/gpoSDybsH4tM/d71uAeDChPX2nNwFcn4mYAImYAJ5CWybcBDhkbL3AVg2b5EWPjfaA7wIwF8S1t0hC0/RBTQBEzCBgRN4acJBpFpmPg/ADgPnrCr+egCOzlBn9M5oMQETMAETWGACX8gwmHAi8A8ANDbkloMljMCTAVyVsb5WCFPTd5mACZiACfSBwAWZBpRqNYBhb7fpA5iCdFwDQBeeGncqiIFVMQETMAETEBLgwFINzDk//wbgAAC3E5ZlUZPiW/8VHdXTaxYVqstlAiZgAkMnsEtHA0s12TgTwNZDr4Qp5b8TgMM7rh96H7SYgAmYgAksIIG3dTzAcCJApzb0cLfUAvINLdKjANBrYjVR6urz0tAC+D4TMAETMIGyCfywgEGmGtxOBHD3snEl125FADx+VzEp4XOD5KV2BiZgAiZgAlkJ8I2bgXlKGGQqHW4AsM9A3dA+rIPQvxX3WZ9Py9oqnZkJmIAJmEByAlsVNvjXB6HjAWycnEAZGdBJEo9H0mlSnUEp399bBiZrYQImYAImoCKwV6EDTjXw0cvd3gDo9W5R5f4Azim8Hrg1YzEBEzABE1ggAocWPvBUE4HvAVhngbizKMuMjkHSOVJVzlI/GSfCzpsWrAG6OCZgAsMm8OseDD7VoMjId3suSHXdF0Cf2LMOGC/CYgImYAImsAAEVhq55q0G2L58fhvA2j3lv/TIwJHHHvvCu9LzJT1lbrVNwARMwATGCDy8h4NQNRjRF/4zxspT+n8ZuvdnPWb++dIBWz8TMAETMIFmBN4oGowOA3CZKK1qgG/6+VkAqzQrbmdX3RbA6wH8tQNG3LunK1/FUc/zOyPojE3ABEzABKQEviMakOi4Z3UAR4jSazr4V9ddAuDxUjK6xDYFcHJHXOoullXOnvq69aKrUadkAiZgAj0nwGN1iuAyV4857GHQmis7GvC+BGDlQuqFfGmwyGOM1UQl1+ekIEsqd8+MG2ExARMwARPoMYG7iQamIycwWBPAN0Xptx00LwTw4Ak65fxpfQCqN+625Z8WZlkV8IkTCYsJmIAJmECPCTxTNEAzgM8kqd6AFXvPbQdBetOjL/07TlIs4W9dlpm+BFhmehScJNyiactx0vXHTErcv5mACZiACfSHwAdFA8Ij5hS5y7fh8wDsMEc/1Z/X6nDVo2k5acQ3aVBv89ufAdCo0WICJmACJtBTAqcJBgO+aTexwK/ejLvYD69WA6a9GSuqryu7h6psTVc6eIyvzWA/7dp7KqA5DRMwARMwgfwE7gBA4YiGnuzaSJcW8dwbv08bZRtcy2X1r4gG1WmD7bTfLwiwdaAjn2nptfn9fxqw8SUmYAImYAIFEtheNBAwjkBb4fIxQ/12cSZ+knV8W/2r6/nWf7mIY5vBl9eGnnagK9+2eU26/hMVBH+agAmYgAn0i8CrRANBzJvgPTr0ilc/H9+25ug+mcZ2kwbG1L/R38Hj2ipcu57BfOgYKFbPX9XS9FcTMAETMIEeEVA57IndC6ZffJ4i+LtgUGo7qHEL5AAA1KGp0ODxog50Zdn41r9qU0VnXPdTgf60PSjF38KMovpPJmACJmAC4wQUg5jSGpxL02cLBqa2kwBezzj39GQ4S1bo8K2fLpafNEu5ln97j4jzw1rm68tNwARMwAQ6JnAX0QCgPg9Ow0S+kfM8e8hAHnPPjSO7hNtMqJuHAKBzoZj0Q+9NEfXwqaKyMI6ExQRMwARMoEcEaLwWOiDV73trojI/EMBvRTrW9W3y/QQAm4zK1eWE5JqRG+EUiOmXoQmLeddwcmIxARMwARPoEYEDRQNAyuA7XHKnpfm8QSjF368DwLfbczvKnwGa7py4Pf1JUDbGkaB/B4sJmIAJmEBPCBwv6Pw58NLff2rp0uguxeRiVpp0krR3pkH1q6I2cNfUDcDpm4AJmIAJaAjQ4v0GQedP17O5hMfuPi3Qedbg2/XfOCnbOBdQAK8W8WQ8CYsJmIAJmEAPCNATnmKw+2wHZe3S8Y6C2aQ0OBmjU6RJxocpEe8oageMJ2ExARMwARPoAYEXijr+F3dU1jUAqJavJw3IOX/jeXyGZO5ClgNAr4ix5T21C+WdpwmYgAmYQHsChwk6fQ4a922ftfQOrgZcJSpL7CDY9n46IKLzo6WkRNondrqAHycRnExYTMAETMAECiegsGynK1m6lO1a1gXwA8Eg1nYAj7n+DABbdQ1ulP+HROweVEh5rIYJmIAJmMAUAnQjSxeuMQMY7+VZ+VKkCjN8vaBcsVxm3a8MQqRi/2wRs1eqFHI6JmACJmACaQg8RtThvyuNelGpbgDgWFH5Zg3kIX9jGOJtokqX5ma6Pw4pz/g9h6dRz6magAmYgAmoCOwv6vB3UykkToeW9DxHr4h2Nz7IhfyfLo0PKmS7ZBJqrp7QmU9I2er3XDwpcf9mAiZgAiZQDoHvCzp7dvyMJVCybA6A1un1QSr3998B2L5kSCPdjhRxKr1N9KAqrKIJmIAJpCHAt2P6l48dCPvwtseycl86tqwx9x8NYL00VSlNdV8Rp12lWjkxEzABEzABGQG+FccMaNW9pe/3bgjgh6KyVmUO/aRr3y6c/LRpNHS1HFq++n3vbJOprzUBEzABE8hHYA9RR1+qxXd1GuDPonLWB7fY78dldvPbplXRzbIi/PKP22Tqa03ABEzABPIR+IhoYCzxzPdGAH4kKl/sYD/t/pJXA34tYHcjgNvla87OyQRMwARMoCmBMwWdPD3YLds0wwzXca9/TwAlvvVPmwjwTXmTDGzaZHGooG2wvCUedWzDwdeagAmYwMIRWB7A3wWdfEl+3/nWX+q5/2mDf/V7aasBewnaBsvGOBMWEzABEzCBggg8WNTBf6CAMlVv/RxEqwG1r5+lrAbQNbGCIeNMWEzABEzABAoi8FpRB/+Mjsu0GYCTRGVRDHiKNEpYDWBQIoUrZcaZsJiACZiACRRE4OuiQXPjjsp029FxOhqaKQbdEtM4HsBdO+LLbBVHJxlnYrUOy+CsTcAETMAExghcIhg46TKWR+1yC/0XLNpb/7QJyA0d+g14m6CNsFyPzt1AnJ8JmIAJmMBkAgySM23AafP7tyYnn+xXvvW/pkO//ueLuLVhXF3LI400cswpjxeVl/EmLCZgAiZgAgUQ2F3Usb8+Y1n41n+ySO9qUG36yW0Geu/jvvjDAfy+Iz1yrwasLirnURnbibMyARMwAROYQYDR6JoOfrOue8iMPFR/qvb6u4rmdyKATccKswKAQwBwf3sWn1R/OwHA3cZ0SvXf8wRlvBYAT2pYTMAETMAEOiag2D+nq9gVE5djCwCnCAagkIG4/tY/rZgPA3BBR/pVqwFclUgpnxOVjys4FhMwARMwgQ4J3F60h/6LhGXo+q3/pxPe+qcVl14QDxD5zg+ZqKReDdhbNAF4zjSA/t0ETMAETCAPge1EHTrjCKSQ0t/6p5WZ8RDOEbFtOxFIuRpwP1GZuGViMQETMAET6JDAS0UdOiMJKqV66/+rSL+2gyjf+u8eWaCuVwN+IijDOAIG81H4WjhjPGH/3wRMwARMIC+BL4gGWOWe7j0AMKZA20FbcX2Tvf62NfQAAL/pqDwpVgM4sYhlTZsRGk9aTMAETMAEOiKgMFpTWXUvPTpe1+e3/mnVeIeRbYAi4FLI4KtcDXi3YALAMuw8DZZ/NwETMAETSEtgLVFHrjjXvSWA00T6tB0gU7z1T6u5+wM4u+flfIpIf8afsJiACZiACXRA4AmijvzNEbp3/davfDNuiqHr1YBY+4b1RO2G8ScsJmACJmACHRDgcbW2b8uTrg/17c63/p+JdJik16zfUuyNt63CbQH8qqPyx656XCzQ+9K2wHy9CZiACZiAhkBX0d2G+NY/rcaW6dg2oI2Pg3oZviKYAHCCxjgUFhMwARMwgYwEVPHdad3eRu458Lf+aax4vv4s0aA6a+Vj0t9CVgMYC2FSWm1/e9o0IP7dBEzABEwgDYGtRB34pxqqV7313yzKt+1Aw73+XP7yGyK51WVdM5oU5+BWSo5+2EFUj++dloF/NwETMAETSENgL1EH/vwG6nGycboov7YDfwl7/Q0QLXFJl6skTVcD6OTob4I65aTDYgImYAImkJHAoYLOm4PxvWbo3PX+dmq/+DOKHv2najWgK58InLBx4jZLFAacLB/bicUETMAETCATgV8LJgB/AUCXvZOEe9pdWbj38a1/EkP+1qV/BG7X8KQIJyOT5GBBG+IkkvEoLCZgAiZgAhkIrCSKVnfsBF391j8BSuRPXcdF+PmU1YBniSYAjEdhMQETMAETyEDg4aKO++1juvJcu2Jloe0+P6+v3vpvM6bTIv23y8iIk1YDaFQZUlfj9zAehcUETMAETCADgX1FHTc9CVJKeOu/60iXRf+oVgNuEtXh+GA87/9cDdh6BPk/AFwh0OP8Ra80l88ETMAESiHwHUGnzYFi7dH+rd/689csoy+eLKrHeYP++N+r1QCGBla2pfwUnaMJmIAJDIiA6q3tMgCMCsewruMDRI7//wjARgOqt0lF5WrAawB0tRpwCoAviep/l0kF9G8mYAImYAI6Aqp92xyD/KQ8hrDX37a2NwZAg8xJvPry29vaFtrXm4AJmIAJtCOgstzuYmA5HsAm7Yo7mKtp/LgngD/3dCLAuBQWEzABEzCBhARUZ7dzTgDob4C+5xfZwl9V5dwW4fZIzvpR5MWJyzSfEio2TscETMAEBk3gtJ4NDj/2W3/r9ko7jz6uBtAFssUETMAETCABAZX/dsUb37w0/NYf3wA2BHBMjyZ8/xNfZKdgAiZgAiYwicD2PRkM/NY/qfbCfqtWA67vQd1/IqyIvssETMAETGAegVcVPgj4rX9eDYb/fQMARxde/4wdYTEBEzABE0hA4IiCBwC+9fM4myUdgWo14LpC28H/AVg5XfGdsgmYgAkMl8BFBXb8fuvP3x7XB/D9AtsC7UIYp8JiAiZgAiYgJHCXAjv84/zWL6zhdkmVuhrAOBUWEzABEzABIYEnFzQB8Fu/sGIjk2I8h28U1DYYW8BiAiZgAiYgJHBgIZ283/qFlSpMihPEKwtoI9SBqxMWEzABEzABEQG60Z139j7l3/3WL6rIhMmsBeBrHbcTtsGhhHZOWJVO2gRMwAT+RWBpAAyik3KAn5X2UQDWdWX0hgBXA67osL08szekrKgJmIAJFE7gPh115teOXNJ6SbfwBjJBvTUBfLWjdvPBCfr4JxMwARMwgQACL+qgI/+e3/oDaqq8W7pYDWC8CosJmIAJmICAwGcyTgD81i+osMKSWANATidSfwOwXGEMrI4JmIAJ9JLAuZkmAH7r72XzaKw0VwMuz9SWGLfCYgImYAImEEFgNQB0sTrLSE/xNwZy8V5/REX15NYHA+AbuqLNzErjlT3hYTVNavzqYgAAFZhJREFUwARMoFgCj8nQWVcd+TcBbFQsCSsWQ2AVAAdlGvzZng6PUdb3moAJmIAJAPtnnACw4755NFCsaPgLQeC2o5Mcl2VuRxcvBD0XwgRMwAQ6JNBV0BeeI98bwFIdlt1ZxxHgcv8vMg/81WoSPxm/wmICJmACJhBA4DYArumwA2cn/jMANugKqLwOb9kEwJc6bjdsOzQ6tJiACZiACQQQ2LyATrx6o6N9wAYBZfAt+QjcEcB+AG4qpN0wfoXFBEzABEwggMAehXTk1SSA7ogPALB8QFl8SzoCXCmi+91LCmsvjF9hMQETMAETCCDwkcI69GoiQAOvPQFw4LF0S2AHAKcX2k5uBHC7bvE4dxMwARPoJ4EzC+3Yq4nAKQAe0E+0vdeaBnafzuQjoqrvkM9tek/aBTABEzCBzAS4zP73wicAHBDopIgGZ+tl5jPU7JYd7fPz7TpkQM59zwuHWlEutwmYgAmEEuARrtyddUx+fxkNTHcILbDvm0mAXhppVX9hz9rFYTNL5T+agAmYgAncisBre9bRV5OHP4wM0uxW+FZVGvwDw0Gf0NP2wDgWFhMwARMwgRYEvt7TDr+aCJwIYNsW5fWltyawNoBDAPyjx22BW0R3unXR/IsJmIAJmMA0AqUd6aoG9jaf7PxpqLbmtEL694kEuI2yD4Drejzw19sJ41lYTMAETMAEGhCgw516Bxr6/ZxCzoZfC4DR4XwkbHblc9tkNwAXiOo/tN3wPq46/ESkB+NZWEzABEzABBoQ2F3U8b4BwHIFeYfjfrDdw05uAFsDOFZU7zEDP+89abR9wy2I2LR4/1GTi+xfTcAETMAExgkwbKui431oLeGNC/EPz3IdA2DLmm5D/rrqKPpiCUc+Jxlw/l7QFrkCZKdRQ27lLrsJmEBjAnwDi50AcP99pQk57gzgDEH6sfpxiZn2AatP0HEIPy09irbYdbAn1iOPcNLFM2MJjIsqqBDjWlhMwARMwARmELi9KJjLL2fkUfmOv7SAicDVI4M3lnso8hAAZxXAvokTp5eL9GRcC4sJmIAJmMAMAtuJOtyPzcij+tPKoze/v4ryjFkV+A2ARbcWvxuAbxfAmvV0KoAHVg1hxiddPcfUa3Uv41pYTMAETMAEZhB4qajD/e8ZeYz/6a4AviXKt+rwQz+/D2CLcQV7/n9OtGjX8bcCGLcN5LQMAMUEkXEtLCZgAiZgAjMIfEE0SNxjRh7T/sSlaW4dhA7eqvtuHjnAWW2aoj35/bajqImXFcCUgzgnISsEsGPQp9i6pc1HSN4B6voWEzABE+gnAcUZcDqQWSqw+DROY6jfywWdfuygceXIUI4Dad+EsRxKieb4TQAbRgB8v6gt0ADVYgImYAImMIHAWqKO9ugJabf9aZWCjqf9GsAj2xago+s3Kei45c8A7CDg8AxRu2R8C4sJmIAJmMAEAk8QdbT/OyHt0J82BXCkSK/YFQG+yW4UWpDE9/EI3X6iExyxnK4YrZyErgKNo6IPiVideD/jW1hMwARMwAQmEOBZbEVH+7gJacf+9FgAvxPpF1NG2gdwL3vF2AKJ7q+OVJYQuyElG8WRUaZhMQETMAETmEDgh6IBdo0JaSt+oi//vQHQs1vMIK64V/2WG8KHy+unF8CCPHl6YrOQQjS8h6svinqLsUVoqKovMwETMIF+EeBy7fWCTpZv6amFtgoMU1uC+1ruc2+fusBj6a8z8mJIRzqKQTEmjbMBPGpMvxT/fb2orIxzYTEBEzABE6gR2ErUwX62lmbqr/cCcJxI75hBkPfyDZVRFFPKsqN9/hsLKPNVIw+KuSIs8ohobB3xfm7fWEzABEzABGoE9hJ1sC+upZnrK+0DzhfpHzPI3DDybLi8uOAM08sohhcWUEY6E+Lqy53EZZyXHJkqVnwY58JiAiZgAiZQI3CoaHC5by3NnF/vMHojVWxjxEwCeG9bb3ezOG0D4ARR3cSW6wcAQhw8zSpfm78pnETRIRG9C1pMwARMwARGBHjWPXaAuAlA10F17lzQ/jg92NGXfYisPXrTpge72HqJvf+c0QpESDmU9zC+RGxZeD/jXVhMwARMwARGYXsVA81PCqJ5HwDURzFgxKTRJOJdHVu1kkFvijH5Ku7lagp9C3Q9qav4ML6EolyMd2ExARMwARMA8HBRx/ruwmiWtHfOmPccTDnATxPaMpwnqouYgZKTwU8DSHWcc1r55/3O7YeYclX3Mt6FxQRMwARMAMC+oo71KYXSXK4g6/k/AHgmAE5OKtkawLGiOqgGudBP+oLgiZAShU6PFD4gGO/CYgImYAImIIwRv37hNOkE5ohCBloO+AzY81EAiu2X0AG/uo8rD08qvP6oHg0RK51jPulLwmICJmACgybAN1F6tYvpTHnvH3tEcUcAPxeUOZZZCff/ebQ60hfL+LeI6m2XHrVXq2oCJmACSQjcTdShfiWJdukSLcmHfhcTgco4cd10iJOkTDsJBa+3JdHOiZqACZhAjwg8S9Sh7tOjMtdVLSmKnmJga5LGyQDuX4fQo+90QNSkjPOuoa2DxQRMwAQGTeBgUYeqiPveZUVsAuBLIhbzBp+u/n7RBAPELpmH5q2ICsmtj9uGKuD7TMAETGARCJwmGPToopVv0osgNMw7U8Ckq0F+Ur6pXBR3Vd+MNzGpnG1/K/W0Q1dcna8JmMCACDC4DH27t+04x69nSNpFEr4Z7gngMgGbcVa5/88gRaWfzmjbdhhvQsGR8S8sJmACJjBIAgxjq+hIP7Sg9FYeRY9TTJIUnNukwZWdBy1ovTDeRBsW065l/AuLCZiACQySwKtEHemzF5weT0p8W8Rq2mCk+p3HMbl6sdQC18nSALitEcuM8S8sJmACJjBIAiqnOHcfCD3GpD9LMPDEDlyT7r95tFqxwkDqQhEhkUchucpjMQETMIHBEaBV+KTBpM1vVwPgmfohyEoA6IiGA0cbRjmuPR7AvYZQCaMyMu6EgivjYFhMwARMYFAE7iLqQI8cALXVRt7yONlRDDop0+BEYKcB1MluorpgHAyLCZiACQyKwJNFHSgj3C2qrD4a+BUBaFIO+pPS5kSAXvMWVejBcFK52/72nUUF5HKZgAmYwDQCB4o60EdOy6DHv3NwOUhkaNZ2QFJfz71yTgTq0Qd7XDVLqH6xoA1zVWcR2SwByv8xARMwgToBviHGDjbcC1+1nmjPv/O8PAf+GwVsYtmq72fwI4YhXiR7DcafUHDiKQ+LCZiACQyCgOoY1dkLQmsjAIeInCIpBqSUafxiNBFYBDe4jD+hYMV4GBYTMAETGASB+4g6zk/2nNY9AHwaAF0ZKwaSPqVBf/r0F8DJYF+F8ScUzBkPw2ICJmACgyDwIlHH+bye0qIPeAb+KfE4n2JAa5PGBQD2BrBMD+tS5cqaXhMtJmACJjAIAp8RTQC27hmtBwKgb/w2A+RQrr0EAJfUOaj2SX4mqE+6el6uT4W2riZgAiYQSuBcQaf5lx6FU+XA/wNBmYcwGWAAJB7tXDG0cWW+TxXOmnExLCZgAiaw0ATo1Eax9H1c4ZR4tOtxAE4qdODnBIo2FH8oVL8rAbwRAL0fliw04FNMzF5ZciGtmwmYgAkoCDxG1GG+XaFMgjR4zI3n3k8RlVMxuNTTuH501HCtUdlvN7LKP6cn+iaosqgkeYSvzjf0O+NiWEzABExgoQnsL+own1gYJQ789G74K1H5QgeSafddB+AAAKtM4Va6/n8eTVzuPEX/rn7mSs8VgjpnFEWLCZiACSw0ge8LOksOcqUMBDzGRgc3vxGVa9oAHvr75aM99aZL6dUKxqmFluevo6OTGxf0lDAeRWj91O9jfAyLCZiACSwkAQ4u1wg6ywsLoMOlc55j/72gPPVBQPX90tHAHxqel2+23Mo4sdDyMfwwfSiU4EWPRouKeuMKksUETMAEFpLA5qKO8osd0uFxLZ5bV/iBVwwa42lwckT97iBkVPIphn+MjlZ2eST0EaJ2zfgYFhMwARNYSAJ7iDrKl3VAZ/nRwPonURnGB+7Y/5+fwaFOyX4MeLKEPhboZTK3cHuFE5HYOmR8DIsJmIAJLCSBjwg6SXay989Ih8GGuMR7lUj32EFi/P7fjrYicvrW59t2yZ4MaWeybcY2wqx+LWgfDALFrSWLCZiACSwcgTMFnST3fpXL29Mg32k08CtsFsYHbcX/yZLGh0tNK0CG37csPJYB36hpx5BDDhW0bbaLLlYwcvBxHiZgAgMmwCV0RdAbOtZJKWuMjsvRUY5ioFancfrouGFJMeQ3G00E6NJWXV5FetVEICWzvURlZ5wMiwmYgAksFIEHizrI9yWisv7onDmXYRWDjjqNahBLVHxJshuMGN5UKMOfJ5w8McCTos4ZJ8NiAiZgAgtF4HWiDvLpYiobAjgEQOlvr+JiJ01u3dFE4AZRnSsG1noav0iwfcKtGHpZrOcT8p1xMiwmYAImsFAEviHoHNmhbiSiskXh+9ddGLKJ0P47mdVHdhTXiuo+ZECddc/vxAaUPxKVk9wsJmACJrAwBBjudVZn3ORvjBQXK1yqLdWCvcujbLFcZ93PAFA8SXG1oA00aSdtr1EdoaSr5bZ5T7qe8TIsJmACJrAQBLjMPqmja/sbVxFC5QGjc+KKSIRt9Z53fQnObEK5trmPhqD7AGCkv3lMuvg7J6nUb9k2hapd+wRRuRgvw2ICJmACC0Fgd1HHSDuCtlKy85qS3Nm25Rpz/R1HTosYAKeLgX5enlxp4orFii0LyQiL89Ju8ndu/1hMwARMYCEIHCTqGHmSoKk8BMBPRfk26bTbXFNiQJumXJXX3X60B/+HQuuJUf44EVi5RaEvEJSFkRu79O/Qori+1ARMwARmE+DZ/TYD5KRruUw+L7BNFcnuZEF+k3SI/Y3H43jiYJ3ZuAb3V3q/o1OjcwqtNw7InMSu2aBmviAqA41ULSZgAibQawJ8y1OcC6fnu2lSxbI/S9T5xg704/fzeBgHEC4RW6YTqEIrK9zqjteB4v9/HtXjrFDULxW1QcbNsJiACZhArwlsJ+oQPzqBQjVgnC3KQzFI1NPg8Tdahq8yQXf/NJ1AtZJzWqH1Wm3hTDqSqmrvjJthMQETMIFeE1C9ET23RqFaMmYgnPqAW8r3y0d7x4wSZwknQNe99OWv2EJK0TYqI8671oqYY8Wrlp2/moAJmEC5BJR7osuNrMcvKnTgv3Q08M+zVSi3tsrVjKc5ji603mmfQt8Sm47wKSYsTWxeyq0ta2YCJmACAOhkJfbtizYErwfA41mxaaW4n5bfzwewjGs8OYGdABxTaDvgoP1FAN8T6dfm1Ety8M7ABEzABNoQUJ2LTjFoK9I8b7QiwWVfS14C9y/YsZOibTGNEL8XeWvBuZmACZjAFAIqz2iqDlWVDm0P9gRw2ynl9s/5CGxZeEyHmDYX4/kyXw04JxMwAROYQEDlGz2mE1Xey6OIPK9uJy0TKrvjnzYfTQRKjeoY0g4VsS86rhZnbwImMFQCquhoIZ2n8p7TE8aRH2rbSFXuDUZn9RW+J5RtKDQtxtGwmIAJmECvCKjio4d2nIr7jh8dQ+sVeCv7TwLrjSYCN4gM8hTtKSQNxtGwmIAJmECvCDDsbkiHV8I9HPgZS8DSfwKrj5wx/aWn7ZEeJC0mYAIm0CsCe/Www2UUtm17RdnKNiWw2shHw9U9a5f0KWAxARMwgV4ROLQnHS3Pbn8TwDa9omtlQwnQSdM+AK7sSfukt8E7hBbW95mACZhAFwRKDehSbTFU3ts26wKO8+ycwB1HPhz+2IOJAH0eWEzABEygFwToA58DbDXYlvRZ+W+/Wy9IWsnUBOjEiT4d/lBoe+Wzw3gaFhMwARPoBYGHF9iZVhHcNu4FQSuZm0AVYOrcAtsu42lYTMAETKAXBPYtqBNtEsO9F1CtZBYCJYaYZqwJiwmYgAn0gsB3CpgAXD86B854BBYTaEvgNiMfEKcV0Ja5DbB22wL4ehMwARPITYAx3K/osNO8dnTue5XcBXd+C0mA7fmxAE7usE1zAsC4GhYTMAETKJoAjeu6MPq7fHTOmwaIFhNIQYDOoX7SUftmXA2LCZiACRRN4FmZO8hLR+e6ly2aipVbJAIPHPmOyDnRZVwNiwmYgAkUTeDgTBOAC0fnuO0kpejmsNDK8Xw+nUj9X4Y2T1fGDj+90M3JhTOB/hP4WeLO8LzRwM/z2xYTKIHAPUehiFP7vmB8DYsJmIAJFEmAy/Cp4rGfBeCZfgsqst6t1L8IbDGaCKR6Bhhfw2ICJmACRRLYPsHb/5mjgZ/hhS0m0AcCGwI4BAC9TirtBBhfw2ICJmACRRJ4lbDDOx3AkwHwGJbFBPpIYL2RL4obRc8F42tYTMAETKBIAoeLOronFlk6K2UCYQTWAfALwbNBY8OVw1TwXSZgAiaQlsBFgk6OYVr91p+2npx6fgLvFDwb3E54RH7VnaMJmIAJzCawrqiDoxthiwksGoFdRc/HfosGxuUxARPoPwHu1ysMnhhIyGICi0bgLqLn48hFA+PymIAJ9J/AgaIOjqGELSawiAQUW2RXe4tsEZuGy2QC/SZwvGACQCMnB/Hpdzuw9tMJHCF4RrjKxngbFhMwARMoggBjqN8g6NzOLqI0VsIE0hBQHZNlvA2LCZhAwQQ2BvCUkdvafUYBaxb1U7X8/8sF57So9e9yAU0Y0JGPwk6GgYGa5Nfna14JgBOdHez9s+BRzqrdisCTAJwhetAVnYXT0HS65miObgPdtAEeDX47gBVu1dv6BxMohMDtAHzeA7/kDccdbTcdrbmbe8ltgBFANy2kv7caJrAEgc958Pfg7zbgNuA2kLQNXAaAnhUtJlAMgd390Cd96Et+K7Fufmt2G8jbBr5XTM9vRQZPgG5rGarWnYAZuA24DbgN5GkD2w1+5DGAIgjcx4O/Jz9uA24DbgNZ28D7i+j9rcTgCbzUD37WB99vWHnesMzZnEtuAzxpZTGBzgm82xMATwDcBtwG3AaytoGrOu/5rYAJAPiAH/ysD37JbyXWzW/NbgN52gA9j1pMoHMCDM/ph94M3AbcBtwG8rWBCzrv+a2ACQB4nCcAngC5DbgNuA1kbQMMrGQxgc4J0D3l9X74sz78ftPK96Zl1mZdYht4Tuc9vxUwgRGB93oC4AmA24DbgNtAljbwJwDLePQxgVIIrAjgfD/8WR7+Et9GrJPfkt0G8rWBJ5fS8VsPE6gIbAXgEk8CPAlwG3AbcBtI0gb+D8Brqg7XnyZQGoENARzphz/Jw+83rHxvWGZt1qW1gT8A2LW0Dt/6mMAkAvcbxa/+wShOwO8A+J8ZuA24DbgNNGsD5wI4AcBhAHYDsOykjta/6Qj8f4ku89cB1DcaAAAAAElFTkSuQmCC;" parent="1" vertex="1">
          <mxGeometry x="696.5" y="461" width="109" height="109" as="geometry" />
        </mxCell>
        <mxCell id="8yuOUE8DRb-jMOZw8tpv-13" value="Повязка" style="text;html=1;align=center;verticalAlign=middle;resizable=0;points=[];autosize=1;strokeColor=none;fillColor=none;" parent="1" vertex="1">
          <mxGeometry x="711" y="90" width="70" height="30" as="geometry" />
        </mxCell>
        <mxCell id="8yuOUE8DRb-jMOZw8tpv-14" value="Жилет" style="text;html=1;align=center;verticalAlign=middle;resizable=0;points=[];autosize=1;strokeColor=none;fillColor=none;" parent="1" vertex="1">
          <mxGeometry x="716" y="220" width="60" height="30" as="geometry" />
        </mxCell>
        <mxCell id="8yuOUE8DRb-jMOZw8tpv-15" value="Дополнительные устройства:&amp;nbsp;&lt;br&gt;Контрольная точка" style="text;html=1;align=center;verticalAlign=middle;resizable=0;points=[];autosize=1;strokeColor=none;fillColor=none;" parent="1" vertex="1">
          <mxGeometry x="651" y="420" width="190" height="40" as="geometry" />
        </mxCell>
        <mxCell id="8yuOUE8DRb-jMOZw8tpv-16" value="Тагер" style="text;html=1;align=center;verticalAlign=middle;resizable=0;points=[];autosize=1;strokeColor=none;fillColor=none;" parent="1" vertex="1">
          <mxGeometry x="911" y="180" width="50" height="30" as="geometry" />
        </mxCell>
        <mxCell id="8yuOUE8DRb-jMOZw8tpv-24" value="" style="endArrow=classic;html=1;rounded=0;entryX=0;entryY=0.5;entryDx=0;entryDy=0;" parent="1" target="8yuOUE8DRb-jMOZw8tpv-9" edge="1">
          <mxGeometry width="50" height="50" relative="1" as="geometry">
            <mxPoint x="560" y="310" as="sourcePoint" />
            <mxPoint x="550" y="260" as="targetPoint" />
            <Array as="points">
              <mxPoint x="560" y="160" />
            </Array>
          </mxGeometry>
        </mxCell>
        <mxCell id="8yuOUE8DRb-jMOZw8tpv-25" value="2.4 ггц" style="text;html=1;align=center;verticalAlign=middle;resizable=0;points=[];autosize=1;strokeColor=none;fillColor=none;" parent="1" vertex="1">
          <mxGeometry x="460" y="308" width="60" height="30" as="geometry" />
        </mxCell>
        <mxCell id="8yuOUE8DRb-jMOZw8tpv-27" value="" style="endArrow=classic;html=1;rounded=0;entryX=-0.006;entryY=0.536;entryDx=0;entryDy=0;entryPerimeter=0;" parent="1" target="8yuOUE8DRb-jMOZw8tpv-12" edge="1">
          <mxGeometry width="50" height="50" relative="1" as="geometry">
            <mxPoint x="560" y="330" as="sourcePoint" />
            <mxPoint x="570" y="380" as="targetPoint" />
            <Array as="points">
              <mxPoint x="560" y="520" />
            </Array>
          </mxGeometry>
        </mxCell>
        <mxCell id="8yuOUE8DRb-jMOZw8tpv-32" value="NFC&lt;br&gt;13,56 МГц" style="text;html=1;align=center;verticalAlign=middle;resizable=0;points=[];autosize=1;strokeColor=none;fillColor=none;" parent="1" vertex="1">
          <mxGeometry x="831" y="200" width="80" height="40" as="geometry" />
        </mxCell>
        <mxCell id="xWVjlc-ErnpRMG1p6QOf-1" value="2.4 ггц" style="text;html=1;align=center;verticalAlign=middle;resizable=0;points=[];autosize=1;strokeColor=none;fillColor=none;" vertex="1" parent="1">
          <mxGeometry x="841" y="240" width="60" height="30" as="geometry" />
        </mxCell>
        <mxCell id="xWVjlc-ErnpRMG1p6QOf-2" style="edgeStyle=orthogonalEdgeStyle;rounded=0;orthogonalLoop=1;jettySize=auto;html=1;exitX=0.994;exitY=0.343;exitDx=0;exitDy=0;exitPerimeter=0;entryX=1;entryY=0.5;entryDx=0;entryDy=0;" edge="1" parent="1" source="8yuOUE8DRb-jMOZw8tpv-10" target="8yuOUE8DRb-jMOZw8tpv-12">
          <mxGeometry relative="1" as="geometry">
            <Array as="points">
              <mxPoint x="1080" y="226" />
              <mxPoint x="1080" y="516" />
            </Array>
            <mxPoint x="438" y="347" as="sourcePoint" />
            <mxPoint x="990" y="550" as="targetPoint" />
          </mxGeometry>
        </mxCell>
        <mxCell id="xWVjlc-ErnpRMG1p6QOf-5" style="edgeStyle=orthogonalEdgeStyle;rounded=0;orthogonalLoop=1;jettySize=auto;html=1;entryX=0.986;entryY=0.606;entryDx=0;entryDy=0;entryPerimeter=0;" edge="1" parent="1" target="8yuOUE8DRb-jMOZw8tpv-11">
          <mxGeometry relative="1" as="geometry">
            <mxPoint x="1040" y="230" as="sourcePoint" />
            <mxPoint x="797" y="157" as="targetPoint" />
            <Array as="points">
              <mxPoint x="1040" y="237" />
              <mxPoint x="1040" y="310" />
            </Array>
          </mxGeometry>
        </mxCell>
        <mxCell id="xWVjlc-ErnpRMG1p6QOf-6" value="ИК" style="text;html=1;align=center;verticalAlign=middle;resizable=0;points=[];autosize=1;strokeColor=none;fillColor=none;" vertex="1" parent="1">
          <mxGeometry x="1000" y="200" width="40" height="30" as="geometry" />
        </mxCell>
      </root>
    </mxGraphModel>
  </diagram>
</mxfile>
